<?xml version="1.0" encoding="UTF-8" standalone="no"?>
<svg
   xmlns:dc="http://purl.org/dc/elements/1.1/"
   xmlns:cc="http://creativecommons.org/ns#"
   xmlns:rdf="http://www.w3.org/1999/02/22-rdf-syntax-ns#"
   xmlns:svg="http://www.w3.org/2000/svg"
   xmlns="http://www.w3.org/2000/svg"
   xmlns:sodipodi="http://sodipodi.sourceforge.net/DTD/sodipodi-0.dtd"
   xmlns:inkscape="http://www.inkscape.org/namespaces/inkscape"
   width="256px"
   height="256px"
   viewBox="0 0 256 256"
   version="1.1"
   id="svg15"
   sodipodi:docname="git-commit-amend-symbolic.svg"
   inkscape:version="0.92.4 (33fec40, 2019-01-16)">
  <metadata
     id="metadata19">
    <rdf:RDF>
      <cc:Work
         rdf:about="">
        <dc:format>image/svg+xml</dc:format>
        <dc:type
           rdf:resource="http://purl.org/dc/dcmitype/StillImage" />
      </cc:Work>
    </rdf:RDF>
  </metadata>
  <sodipodi:namedview
     pagecolor="#ffffff"
     bordercolor="#666666"
     borderopacity="1"
     objecttolerance="10"
     gridtolerance="10"
     guidetolerance="10"
     inkscape:pageopacity="0"
     inkscape:pageshadow="2"
     inkscape:window-width="3230"
     inkscape:window-height="2052"
     id="namedview17"
     showgrid="false"
     inkscape:zoom="0.921875"
     inkscape:cx="-435.52542"
     inkscape:cy="128"
     inkscape:window-x="130"
     inkscape:window-y="48"
     inkscape:window-maximized="1"
     inkscape:current-layer="256x256/git-commit-amend-symbolic" />
  <!-- Generator: Sketch 41.2 (35397) - http://www.bohemiancoding.com/sketch -->
  <title
     id="title2">256x256/git-commit-amend-symbolic</title>
  <desc
     id="desc4">Created with Sketch.</desc>
  <defs
     id="defs6" />
  <g
     id="VCS2-Clement-Colored"
     stroke="none"
     stroke-width="1"
     fill="none"
     fill-rule="evenodd">
    <g
       id="256x256/git-commit-amend-symbolic"
       fill="#000000">
      <g
         id="commit"
         transform="translate(25.000000, 69.000000)">
        <path
           d="M159.797143,44.1959135 C153.175714,18.8569231 130.368571,0 103,0 C75.6314286,0 52.8242857,18.8569231 46.2028571,44.1959135 L0,44.1959135 L0,73.6598558 L46.2028571,73.6598558 C52.8242857,98.9988462 75.6314286,117.855769 103,117.855769 C130.368571,117.855769 153.175714,98.9988462 159.797143,73.6598558 L206,73.6598558 L206,44.1959135 L159.797143,44.1959135 L159.797143,44.1959135 Z M103,91.3382212 C85.0485714,91.3382212 70.6285714,76.9008894 70.6285714,58.9278846 C70.6285714,40.9548798 85.0485714,26.5175481 103,26.5175481 C120.951429,26.5175481 135.371429,40.9548798 135.371429,58.9278846 C135.371429,76.9008894 120.951429,91.3382212 103,91.3382212 L103,91.3382212 Z"
           id="Shape" />
      </g>
      <g
         aria-label="+"
         style="font-weight:normal;font-size:144px;font-family:ArialRoundedMTBold, 'Arial Rounded MT Bold'"
         id="+"
         transform="translate(-14,-16)">
        <path
           d="m 225.23437,173.71875 v 39.16406 h 39.16407 v 11.95313 H 225.23437 V 264 h -11.8125 v -39.16406 h -39.16406 v -11.95313 h 39.16406 v -39.16406 z"
           id="path826"
           inkscape:connector-curvature="0" />
      </g>
    </g>
  </g>
</svg>
