<?xml version="1.0" encoding="UTF-8"?>
<svg width="256px" height="256px" viewBox="0 0 256 256" version="1.1" xmlns="http://www.w3.org/2000/svg" xmlns:xlink="http://www.w3.org/1999/xlink">
    <!-- Generator: Sketch 41.2 (35397) - http://www.bohemiancoding.com/sketch -->
    <title>256x256/github-repo-symbolic</title>
    <desc>Created with Sketch.</desc>
    <defs></defs>
    <g id="VCS2-Clement-Colored" stroke="none" stroke-width="1" fill="none" fill-rule="evenodd">
        <g id="256x256/github-repo-symbolic" fill="#000000">
            <path d="M101.5,139.875 L88.625,139.875 L88.625,127 L101.5,127 L101.5,139.875 L101.5,139.875 Z M101.5,101.25 L88.625,101.25 L88.625,114.125 L101.5,114.125 L101.5,101.25 L101.5,101.25 Z M101.5,75.5 L88.625,75.5 L88.625,88.375 L101.5,88.375 L101.5,75.5 L101.5,75.5 Z M101.5,49.75 L88.625,49.75 L88.625,62.625 L101.5,62.625 L101.5,49.75 L101.5,49.75 Z M204.5,36.875 L204.5,191.375 C204.5,198.45625 198.70625,204.25 191.625,204.25 L127.25,204.25 L127.25,230 L107.9375,210.6875 L88.625,230 L88.625,204.25 L62.875,204.25 C55.79375,204.25 50,198.45625 50,191.375 L50,36.875 C50,29.79375 55.79375,24 62.875,24 L191.625,24 C198.70625,24 204.5,29.79375 204.5,36.875 L204.5,36.875 Z M191.625,165.625 L62.875,165.625 L62.875,191.375 L88.625,191.375 L88.625,178.5 L127.25,178.5 L127.25,191.375 L191.625,191.375 L191.625,165.625 L191.625,165.625 Z M191.625,36.875 L75.75,36.875 L75.75,152.75 L191.625,152.75 L191.625,36.875 L191.625,36.875 Z" id="Shape"></path>
        </g>
    </g>
</svg>