<?xml version="1.0" encoding="UTF-8"?>
<svg width="256px" height="256px" viewBox="0 0 256 256" version="1.1" xmlns="http://www.w3.org/2000/svg" xmlns:xlink="http://www.w3.org/1999/xlink">
    <!-- Generator: Sketch 41.2 (35397) - http://www.bohemiancoding.com/sketch -->
    <title>256x256/github-repo-push-symbolic</title>
    <desc>Created with Sketch.</desc>
    <defs></defs>
    <g id="VCS2-Clement-Colored" stroke="none" stroke-width="1" fill="none" fill-rule="evenodd">
        <g id="256x256/github-repo-push-symbolic" fill="#000000">
            <path d="M100.418641,61.625 L87.563981,61.625 L87.563981,48.75 L100.418641,48.75 L100.418641,61.625 L100.418641,61.625 Z M87.563981,87.375 L100.418641,87.375 L100.418641,74.5 L87.563981,74.5 L87.563981,87.375 L87.563981,87.375 Z M138.982622,87.375 L100.418641,138.875 L126.127962,138.875 L126.127962,229 L151.837283,229 L151.837283,138.875 L177.546603,138.875 L138.982622,87.375 L138.982622,87.375 Z M190.401264,23 L61.8546603,23 C54.7845972,23 49,28.79375 49,35.875 L49,190.375 C49,197.45625 54.7845972,203.25 61.8546603,203.25 L113.273302,203.25 L113.273302,190.375 L61.8546603,190.375 L61.8546603,164.625 L113.273302,164.625 L113.273302,151.75 L74.7093207,151.75 L74.7093207,35.875 L190.658357,35.875 L190.401264,151.75 L164.691943,151.75 L164.691943,164.625 L190.401264,164.625 L190.401264,190.375 L164.691943,190.375 L164.691943,203.25 L190.401264,203.25 C197.471327,203.25 203.255924,197.45625 203.255924,190.375 L203.255924,35.875 C203.255924,28.79375 197.471327,23 190.401264,23 L190.401264,23 Z" id="Shape"></path>
        </g>
    </g>
</svg>