<?xml version="1.0" encoding="UTF-8" standalone="no"?>
<svg width="256px" height="256px" viewBox="0 0 256 256" version="1.1" xmlns="http://www.w3.org/2000/svg" xmlns:xlink="http://www.w3.org/1999/xlink">
    <!-- Generator: Sketch 41.1 (35376) - http://www.bohemiancoding.com/sketch -->
    <title>256x256/vcs-has-conflicts</title>
    <desc>Created with Sketch.</desc>
    <defs>
        <radialGradient cx="49.8039245%" cy="95.76177%" fx="49.8039245%" fy="95.76177%" r="70.9894089%" id="radialGradient-1">
            <stop stop-color="#F4D708" offset="0%"></stop>
            <stop stop-color="#FCB400" offset="100%"></stop>
        </radialGradient>
        <radialGradient cx="36.1828806%" cy="30.5674302%" fx="36.1828806%" fy="30.5674302%" r="50%" id="radialGradient-2">
            <stop stop-color="#FFEA95" offset="0%"></stop>
            <stop stop-color="#FFEA95" stop-opacity="0.49803922" offset="67.85714%"></stop>
            <stop stop-color="#FFEA95" stop-opacity="0" offset="100%"></stop>
        </radialGradient>
    </defs>
    <g id="VCS2" stroke="none" stroke-width="1" fill="none" fill-rule="evenodd">
        <g id="256x256/vcs-has-conflicts">
            <g id="Group" transform="translate(25.000000, 25.000000)">
                <path d="M0,191.867587 L87.9434457,7.01792268 C87.9434457,7.01792268 100.507543,-8.77240335 113.070212,7.01792268 C125.633834,22.8092511 198.796661,192.79584 198.796661,192.79584 C198.796661,192.79584 200.273866,202.085387 185.494199,202.085387 L13.3019861,202.085387 C13.3019861,202.085387 2.21699769,202.084385 0,191.867587 Z" id="path17" fill="url(#radialGradient-1)"></path>
                <path d="M0,191.867587 L87.9434457,7.01792268 C87.9434457,7.01792268 100.507543,-8.77240335 113.070212,7.01792268 C125.633834,22.8092511 198.796661,192.79584 198.796661,192.79584 C198.796661,192.79584 200.273866,202.085387 185.494199,202.085387 L13.3019861,202.085387 C13.3019861,202.085387 2.21699769,202.084385 0,191.867587 Z" id="path19" stroke="#E2A713" stroke-width="8"></path>
                <path d="M98.2416667,8.00131566 C98.021771,8.36010905 97.6473754,8.99610133 97.1297348,9.87404293 C98.0920732,8.69350738 98.144959,8.24139841 98.2416667,8.00131566 Z M100.16127,8.56561406 C100.222377,8.67011411 101.060816,9.37462662 101.214679,9.56050042 C101.12402,9.41398948 100.813859,8.90526311 100.746497,8.79970497 C100.478491,8.37969157 99.8679632,8.06411268 100.16127,8.56561406 Z M99.2706124,8.84711858 C98.4489436,8.78717809 97.3930723,9.15797408 96.6242499,9.52062831 C96.2467465,10.2533738 95.8595855,10.9971541 95.2862014,12.1363522 C93.7554073,15.1777387 91.6016559,19.5326884 89.041975,24.7294178 C83.9226181,35.1228762 77.1921176,48.9189904 70.4877025,62.7278972 C65.6318639,72.7293475 61.3751902,81.5624571 57.1815536,90.2791441 C61.4453825,88.6022941 65.7943422,87.227422 70.2052256,86.2224227 C79.7281727,84.0526513 92.1847072,84.0282019 101.619631,86.2537487 C108.998803,87.9943786 115.063434,90.3631831 124.544862,95.0563643 C128.707808,97.1169708 134.134138,99.5907702 135.026242,99.9432256 C138.648616,101.374389 142.167681,102.248641 144.630457,102.543286 C144.803958,102.564042 144.928429,102.535197 145.09134,102.543286 L145.09134,102.527623 L123.355485,56.3217232 C114.754167,38.0363918 108.984859,25.8762103 105.262096,18.2449288 C103.400713,14.429288 102.038349,11.7426887 101.158748,10.0844969 C101.007801,9.79994176 100.968014,9.7419525 100.846536,9.52062831 C100.516284,9.3049408 100.133624,9.04625793 100.02884,9.00374875 C99.8807197,8.9436589 99.6143803,8.87219645 99.2706124,8.84711858 Z" id="path2845" fill="url(#radialGradient-2)"></path>
                <path d="M97.0269515,142.81603 C90.7622679,102.734244 87.6308776,81.1057475 87.6308776,77.9320443 C87.6308776,74.0711733 88.8445173,70.9521027 91.275127,68.5713241 C93.7038337,66.1925504 96.4470115,65.0021611 99.5022818,65.0021611 C102.808273,65.0021611 105.601404,66.2727451 107.879774,68.8104044 C110.158143,71.3480638 111.299469,74.3353144 111.299469,77.7736599 C111.299469,81.0531198 108.127164,102.734745 101.784457,142.816531 L97.0269515,142.816531 L97.0269515,142.81603 Z M109.872217,161.948468 C109.872217,165.004886 108.846499,167.612716 106.794587,169.773962 C104.742674,171.933704 102.29351,173.014327 99.4428129,173.014327 C96.5416859,173.014327 94.0663557,171.933704 92.0149192,169.773962 C89.9630069,167.612215 88.9391917,165.004385 88.9391917,161.948468 C88.9391917,158.945178 89.9630069,156.364414 92.0149192,154.203168 C94.0668314,152.041923 96.5421617,150.960799 99.4428129,150.960799 C102.29351,150.960799 104.74315,152.041421 106.794587,154.203168 C108.846023,156.364915 109.872217,158.945178 109.872217,161.948468 Z" id="path25" fill="#000000"></path>
            </g>
        </g>
    </g>
</svg>