<?xml version="1.0" encoding="UTF-8"?>
<svg width="256px" height="256px" viewBox="0 0 256 256" version="1.1" xmlns="http://www.w3.org/2000/svg" xmlns:xlink="http://www.w3.org/1999/xlink">
    <!-- Generator: Sketch 41.2 (35397) - http://www.bohemiancoding.com/sketch -->
    <title>256x256/vcs-merge-symbolic</title>
    <desc>Created with Sketch.</desc>
    <defs></defs>
    <g id="VCS2-Clement-Colored" stroke="none" stroke-width="1" fill="none" fill-rule="evenodd">
        <g id="256x256/vcs-merge-symbolic" fill="#000000">
            <path d="M191.833333,113.428571 C180.981283,113.428571 171.638835,119.41925 166.625814,128.206277 C165.315592,128.113839 164.033854,128 162.666667,128 C132.802279,128 104.461393,105.267661 94.1222656,77.1279554 C100.338639,71.7847946 104.333333,63.9583438 104.333333,55.1428571 C104.333333,39.056 91.2666667,26 75.1666667,26 C59.0666667,26 46,39.056 46,55.1428571 C46,65.8936116 51.8889323,75.1926875 60.5833333,80.2514777 L60.5833333,175.75558 C51.8889323,180.807312 46,190.09933 46,200.857143 C46,216.936942 59.0666667,230 75.1666667,230 C91.2666667,230 104.333333,216.936942 104.333333,200.857143 C104.333333,190.09933 98.444401,180.807312 89.75,175.75558 L89.75,123.325531 C108.926172,143.595982 135.408366,157.142857 162.666667,157.142857 C164.119303,157.142857 165.315592,157.043134 166.625814,157.000558 C171.667318,165.751839 181.009766,171.714286 191.833333,171.714286 C207.92627,171.714286 221,158.651228 221,142.571429 C221,126.484571 207.92627,113.428571 191.833333,113.428571 Z M75.1666667,215.428571 C67.1203125,215.428571 60.5833333,208.911272 60.5833333,200.857143 C60.5833333,192.817357 67.1203125,186.285714 75.1666667,186.285714 C83.2344401,186.285714 89.75,192.817357 89.75,200.857143 C89.75,208.911272 83.2344401,215.428571 75.1666667,215.428571 Z M75.1666667,69.7142857 C67.1203125,69.7142857 60.5833333,63.2040446 60.5833333,55.1428571 C60.5833333,47.0816696 67.1203125,40.5714286 75.1666667,40.5714286 C83.2344401,40.5714286 89.75,47.0816696 89.75,55.1428571 C89.75,63.2040446 83.2344401,69.7142857 75.1666667,69.7142857 Z M191.833333,157.142857 C183.786979,157.142857 177.25,150.625558 177.25,142.571429 C177.25,134.510241 183.786979,128 191.833333,128 C199.894043,128 206.416667,134.510241 206.416667,142.571429 C206.416667,150.625558 199.894043,157.142857 191.833333,157.142857 Z" id="Shape"></path>
        </g>
    </g>
</svg>