<?xml version="1.0" encoding="UTF-8"?>
<svg width="256px" height="256px" viewBox="0 0 256 256" version="1.1" xmlns="http://www.w3.org/2000/svg" xmlns:xlink="http://www.w3.org/1999/xlink">
    <!-- Generator: Sketch 41.2 (35397) - http://www.bohemiancoding.com/sketch -->
    <title>256x256/vcs-cloud-symbolic</title>
    <desc>Created with Sketch.</desc>
    <defs></defs>
    <g id="VCS2-Clement-Colored" stroke="none" stroke-width="1" fill="none" fill-rule="evenodd">
        <g id="256x256/vcs-cloud-symbolic" fill="#000000">
            <path d="M175.25,196 L73.25,196 L73.25,195.78325 C51.77475,193.64975 35,175.5405 35,153.5 C35,131.45525 51.779,113.34175 73.2585,111.21675 C73.2585,111.14025 73.25,111.0765 73.25,111 C73.25,82.83525 96.08525,60 124.25,60 C149.52475,60 170.45175,78.40675 174.48925,102.53825 C174.7485,102.534 174.99075,102.5 175.25,102.5 C201.06875,102.5 222,123.43125 222,149.25 C222,175.06875 201.06875,196 175.25,196 Z M175.25,111 C173.822,111 172.41525,111.08925 171.02975,111.255 L171.02125,111.23375 C170.966,111.238 170.9235,111.26775 170.86825,111.26775 C168.535,111.26775 166.648,109.385 166.62675,107.06025 L166.55025,107.05175 C164.55275,85.42775 146.38825,68.5 124.25,68.5 C100.77725,68.5 81.75,87.52725 81.75,111 C81.75,112.26225 81.83925,113.49475 81.954,114.723 L81.9115,114.73575 C81.93275,114.91 82.0135,115.06725 82.0135,115.25 C82.0135,117.55775 80.169,119.41075 77.87825,119.4745 L77.86125,119.534 C77.74225,119.52975 77.62325,119.5 77.5,119.5 C58.7235,119.5 43.5,134.7235 43.5,153.5 C43.5,170.83575 56.48375,185.1115 73.25,187.20675 L73.25,187.5 L175.25,187.5 C196.37675,187.5 213.5,170.37675 213.5,149.25 C213.5,128.12325 196.37675,111 175.25,111 Z" id="Shape"></path>
        </g>
    </g>
</svg>