<?xml version="1.0" encoding="UTF-8"?>
<svg width="256px" height="256px" viewBox="0 0 256 256" version="1.1" xmlns="http://www.w3.org/2000/svg" xmlns:xlink="http://www.w3.org/1999/xlink">
    <!-- Generator: Sketch 41.2 (35397) - http://www.bohemiancoding.com/sketch -->
    <title>256x256/vcs-stash-symbolic</title>
    <desc>Created with Sketch.</desc>
    <defs>
        <linearGradient x1="49.9964286%" y1="-0.00100030009%" x2="49.9964286%" y2="100.005002%" id="linearGradient-1">
            <stop stop-color="#000000" stop-opacity="0.7" offset="0%"></stop>
            <stop stop-color="#000000" stop-opacity="0.6" offset="100%"></stop>
        </linearGradient>
    </defs>
    <g id="VCS2-Clement-Colored" stroke="none" stroke-width="1" fill="none" fill-rule="evenodd">
        <g id="256x256/vcs-stash-symbolic" fill="url(#linearGradient-1)">
            <path d="M207.554857,115.129571 L48.2724286,115.129571 C40.9387143,115.129571 35,121.081571 35,128.415286 C35,135.735714 40.9387143,141.674429 48.2724286,141.674429 L207.554857,141.674429 C214.888571,141.674429 220.827286,135.735714 220.827286,128.415286 C220.827286,121.081571 214.888571,115.129571 207.554857,115.129571 Z M48.4318571,88.5315714 L207.714286,88.5315714 C215.048,88.5315714 221,82.5928571 221,75.2724286 C221,67.9254286 215.061286,62 207.727571,62 L48.4451429,62 C41.1114286,62 35.1727143,67.9254286 35.1727143,75.2724286 C35.1727143,82.5928571 41.0848571,88.5315714 48.4318571,88.5315714 Z M207.727571,168.272429 L48.4451429,168.272429 C41.1114286,168.272429 35.1727143,174.224429 35.1727143,181.558143 C35.1727143,188.891857 41.0981429,194.817286 48.4451429,194.817286 L207.727571,194.817286 C215.061286,194.817286 221,188.891857 221,181.558143 C221,174.224429 215.061286,168.272429 207.727571,168.272429 Z" id="Shape"></path>
        </g>
    </g>
</svg>