<?xml version="1.0" encoding="UTF-8" standalone="no"?>
<svg
   xmlns:dc="http://purl.org/dc/elements/1.1/"
   xmlns:cc="http://creativecommons.org/ns#"
   xmlns:rdf="http://www.w3.org/1999/02/22-rdf-syntax-ns#"
   xmlns:svg="http://www.w3.org/2000/svg"
   xmlns="http://www.w3.org/2000/svg"
   xmlns:sodipodi="http://sodipodi.sourceforge.net/DTD/sodipodi-0.dtd"
   xmlns:inkscape="http://www.inkscape.org/namespaces/inkscape"
   width="48"
   height="48"
   id="svg2"
   version="1.1"
   inkscape:version="0.91 r13725"
   sodipodi:docname="file_grey.svg">
  <metadata
     id="metadata18">
    <rdf:RDF>
      <cc:Work
         rdf:about="">
        <dc:format>image/svg+xml</dc:format>
        <dc:type
           rdf:resource="http://purl.org/dc/dcmitype/StillImage" />
        <dc:title></dc:title>
      </cc:Work>
    </rdf:RDF>
  </metadata>
  <defs
     id="defs16" />
  <sodipodi:namedview
     pagecolor="#ffffff"
     bordercolor="#666666"
     borderopacity="1"
     objecttolerance="10"
     gridtolerance="10"
     guidetolerance="10"
     inkscape:pageopacity="0"
     inkscape:pageshadow="2"
     inkscape:window-width="1071"
     inkscape:window-height="785"
     id="namedview14"
     showgrid="false"
     inkscape:zoom="4.9166667"
     inkscape:cx="24"
     inkscape:cy="24"
     inkscape:window-x="127"
     inkscape:window-y="69"
     inkscape:window-maximized="0"
     inkscape:current-layer="g9" />
  <g
     id="g4">
    <title
       id="title6">background</title>
    <rect
       fill="none"
       id="canvas_background"
       height="402"
       width="582"
       y="-1"
       x="-1" />
  </g>
  <g
     id="g9">
    <title
       id="title11">Layer 1</title>
    <path
       id="svg_1"
       d="M 37,47 11,47 C 8.791,47 7,45.209 7,43 L 7,5 C 7,2.791 8.791,1 11,1 L 29.973,1 29.98,1 30,1 30,1 c 0.32,0 0.593,0.161 0.775999,0.395 l 9.829,9.829 c 0.235001,0.183 0.395,0.456 0.395,0.776 l 0,0 0,0.021 0,0.005 0,30.974 c 0,2.209 -1.791,4 -3.999999,4 z M 31,4.381 31,11 37.618999,11 Z M 39,13 30,13 c -0.552999,0 -1,-0.448 -1,-1 L 29,3 11,3 C 9.896,3 9,3.896 9,5 l 0,38 c 0,1.104 0.896,2 2,2 l 26,0 c 1.104,0 2,-0.896 2,-2 z"
       inkscape:connector-curvature="0"
       style="clip-rule:evenodd;fill-rule:evenodd;fill:#4d4d4d"
       sodipodi:nodetypes="sssssccccccccccsscccccsscssssssc" />
    <path
       style="fill:#ffffff"
       d="M 9.9966057,44.607435 C 9.0060756,44.030504 9.0305085,44.552186 9.0305085,23.979661 9.0305085,3.3013017 9.0015612,3.89534 10.036192,3.3416226 10.288149,3.2067793 13.727768,3.1322034 19.695104,3.1322034 l 9.267608,0 0,4.6634382 c 0,3.9683034 0.04764,4.7110804 0.319613,4.9830504 0.271971,0.271971 1.014748,0.319613 4.983051,0.319613 l 4.663438,0 0,15.269882 0,15.269884 -0.594525,0.594523 -0.594523,0.594525 -13.693612,-0.0062 c -8.922197,-0.004 -13.817635,-0.07842 -14.0495483,-0.213499 l 0,-2e-6 z"
       id="path3381"
       inkscape:connector-curvature="0" />
    <path
       style="fill:#b3b3b3"
       d="m 30.99661,7.6600881 0,-3.2009288 3.152543,3.1476204 c 1.733898,1.7311911 3.152542,3.1716093 3.152542,3.2009283 0,0.02932 -1.418644,0.05331 -3.152542,0.05331 l -3.152543,0 0,-3.2009289 z"
       id="path3383"
       inkscape:connector-curvature="0" />
    <path
       style="fill:#cccccc"
       d="M 9.7028672,44.33629 9.1322034,43.845464 9.0780501,24.353239 C 9.0381119,9.9776791 9.0855118,4.7120699 9.2586231,4.2935945 9.7502775,3.1050794 9.5075422,3.1322034 19.652035,3.1322034 l 9.310677,0 0,4.6464431 c 0,4.2430955 0.03229,4.6756635 0.371947,4.9830505 0.323079,0.292382 0.977793,0.336608 4.983051,0.336608 l 4.611104,0 0,15.238631 0,15.238633 -0.526554,0.625774 -0.526556,0.625776 -13.801086,0 -13.801087,0 -0.5706638,-0.490829 z"
       id="path3404"
       inkscape:connector-curvature="0" />
    <path
       style="fill:#cccccc"
       d="m 31.005933,7.6576271 0.0093,-3.2033898 2.938819,3.0394682 c 2.030396,2.0999327 2.860545,3.0891755 2.685593,3.2002755 -0.139275,0.08844 -1.465939,0.162208 -2.948143,0.163921 l -2.694915,0.0031 0.0093,-3.2033899 z"
       id="path3406"
       inkscape:connector-curvature="0" />
    <path
       style="fill:#cccccc"
       d="M 10.139174,44.579542 C 9.8949613,44.387445 9.6454883,44.279935 9.5847901,44.340635 9.5240918,44.401332 9.4202136,44.280175 9.3539495,44.071395 9.1749419,43.507391 9.1067209,4.3524719 9.2847458,4.3525099 c 0.083898,1.78e-5 0.1525423,-0.139521 0.1525423,-0.3100863 0,-0.4350639 0.8296619,-0.7014004 2.3013759,-0.7387837 L 12.99661,3.2716866 11.979661,3.1322034 C 11.420339,3.0554876 15.00801,2.9783412 19.952263,2.9607669 l 8.989551,-0.031953 0.0613,4.7698836 c 0.04591,3.5723368 0.127599,4.8361678 0.325381,5.0338988 0.196934,0.196882 1.451065,0.281176 4.932204,0.331508 l 4.668118,0.06749 0,15.212686 c 0,13.274263 -0.03887,15.24495 -0.305085,15.465884 -0.167797,0.139259 -0.305085,0.377537 -0.305085,0.529504 0,0.151968 -0.205932,0.326522 -0.457627,0.387899 -0.251695,0.06137 -6.492171,0.131762 -13.867723,0.156416 -12.406767,0.04147 -13.443317,0.01869 -13.85412,-0.304446 z"
       id="path3408"
       inkscape:connector-curvature="0" />
  </g>
</svg>
