<?xml version="1.0" encoding="UTF-8"?>
<svg width="256px" height="256px" viewBox="0 0 256 256" version="1.1" xmlns="http://www.w3.org/2000/svg" xmlns:xlink="http://www.w3.org/1999/xlink">
    <!-- Generator: Sketch 41.2 (35397) - http://www.bohemiancoding.com/sketch -->
    <title>256x256/vcs-discard-changes-symbolic</title>
    <desc>Created with Sketch.</desc>
    <defs></defs>
    <g id="VCS2-Clement-Colored" stroke="none" stroke-width="1" fill="none" fill-rule="evenodd">
        <g id="256x256/vcs-discard-changes-symbolic" fill="#000000">
            <path d="M175.196974,53.5473281 L155.78891,53.5473281 L155.78891,49.4076875 C155.78891,38.7062187 147.072317,30 136.35854,30 L123.64146,30 C112.927683,30 104.21109,38.7062187 104.21109,49.4076875 L104.21109,53.5473281 L84.8030265,53.5473281 C72.2967831,53.5473281 62.1219683,63.7104531 62.1219683,76.2023281 L62.1219683,81.9433437 L197.877672,81.9433437 L197.877672,76.2019687 C197.877672,63.7104531 187.702857,53.5473281 175.196974,53.5473281 Z M144.845228,53.5473281 L115.155132,53.5473281 L115.155132,49.4076875 C115.155132,44.7340156 118.962053,40.9311094 123.64182,40.9311094 L136.358899,40.9311094 C141.038307,40.9311094 144.845587,44.7336563 144.845587,49.4076875 L144.845587,53.5473281 L144.845228,53.5473281 Z" id="Shape"></path>
            <path d="M69.7181799,92.8744531 L69.7181799,202.883453 C69.7181799,209.012953 74.710963,214 80.847873,214 L179.151767,214 C185.288677,214 190.28146,209.012953 190.28146,202.883453 L190.28146,92.8744531 L69.7181799,92.8744531 Z M108.963894,197.52625 L98.0202116,197.52625 L98.0202116,109.348203 L108.963894,109.348203 L108.963894,197.52625 Z M135.471661,197.52625 L124.527979,197.52625 L124.527979,109.348203 L135.471661,109.348203 L135.471661,197.52625 Z M161.980148,197.52625 L151.036466,197.52625 L151.036466,109.348203 L161.980148,109.348203 L161.980148,197.52625 L161.980148,197.52625 Z" id="Shape"></path>
        </g>
    </g>
</svg>