<?xml version="1.0" encoding="UTF-8"?>
<svg width="256px" height="256px" viewBox="0 0 256 256" version="1.1" xmlns="http://www.w3.org/2000/svg" xmlns:xlink="http://www.w3.org/1999/xlink">
    <!-- Generator: Sketch 41.2 (35397) - http://www.bohemiancoding.com/sketch -->
    <title>256x256/vcs-pull-symbolic</title>
    <desc>Created with Sketch.</desc>
    <defs></defs>
    <g id="VCS2-Clement-Colored" stroke="none" stroke-width="1" fill="none" fill-rule="evenodd">
        <g id="256x256/vcs-pull-symbolic" fill="#000000">
            <path d="M72.6666667,35.3464696 C57.9466667,35.3464696 46,47.3049064 46,62.0394089 C46,71.8863924 51.3970833,80.403734 59.3333333,85.0372529 L59.3333333,172.512726 C51.3970833,177.13978 46,185.650657 46,195.504105 C46,210.232143 57.9466667,222.197044 72.6666667,222.197044 C87.3866667,222.197044 99.3333333,210.232143 99.3333333,195.504105 C99.3333333,185.650657 93.9491667,177.13978 86,172.512726 L86,85.0372529 C93.9491667,80.403734 99.3333333,71.8863924 99.3333333,62.0394089 C99.3333333,47.3049064 87.3866667,35.3464696 72.6666667,35.3464696 Z M72.6666667,208.850575 C65.31,208.850575 59.3333333,202.881158 59.3333333,195.504105 C59.3333333,188.14019 65.31,182.157635 72.6666667,182.157635 C80.0429167,182.157635 86,188.14019 86,195.504105 C86,202.881158 80.0429167,208.850575 72.6666667,208.850575 Z M72.6666667,75.3858785 C65.31,75.3858785 59.3333333,69.4229261 59.3333333,62.0394089 C59.3333333,54.6558916 65.31,48.6929392 72.6666667,48.6929392 C80.0429167,48.6929392 86,54.6558916 86,62.0394089 C86,69.4229261 80.0429167,75.3858785 72.6666667,75.3858785 Z M192.666667,172.512726 L192.666667,88.7323481 C192.666667,48.58867 152.666667,48.6929392 152.666667,48.6929392 L139.333333,48.6929392 L139.333333,22 L99.3333333,62.0394089 L139.333333,102.078818 L139.333333,75.3858785 L152.666667,75.3858785 C164.424583,75.3858785 166,88.7323481 166,88.7323481 L166,172.512726 C158.057292,177.13978 152.666667,185.637727 152.666667,195.504105 C152.666667,210.232143 164.619792,222.197044 179.333333,222.197044 C194.046875,222.197044 206,210.232143 206,195.504105 C206,185.650657 200.609375,177.13978 192.666667,172.512726 Z M179.333333,208.850575 C171.976667,208.850575 166,202.881158 166,195.504105 C166,188.14019 171.976667,182.157635 179.333333,182.157635 C186.703125,182.157635 192.666667,188.14019 192.666667,195.504105 C192.666667,202.881158 186.703125,208.850575 179.333333,208.850575 Z" id="Shape"></path>
        </g>
    </g>
</svg>