<?xml version="1.0" encoding="UTF-8"?>
<svg width="256px" height="256px" viewBox="0 0 256 256" version="1.1" xmlns="http://www.w3.org/2000/svg" xmlns:xlink="http://www.w3.org/1999/xlink">
    <!-- Generator: Sketch 41.2 (35397) - http://www.bohemiancoding.com/sketch -->
    <title>256x256/vcs-branch-symbolic</title>
    <desc>Created with Sketch.</desc>
    <defs></defs>
    <g id="VCS2-Clement-Colored" stroke="none" stroke-width="1" fill="none" fill-rule="evenodd">
        <g id="256x256/vcs-branch-symbolic" fill="#000000">
            <path d="M175.736038,48.7142857 C158.254138,48.7142857 144.052029,62.9222857 144.052029,80.4285714 C144.052029,92.1279219 150.456902,102.247504 159.894033,107.752658 L159.894033,112.142857 C159.894033,112.142857 159.894033,143.857143 128.210024,143.857143 C115.075517,143.857143 104.779699,146.675502 96.5260143,150.99583 L96.5260143,76.0383728 C105.97082,70.5332188 112.368019,60.4136362 112.368019,48.7142857 C112.368019,31.208 98.1735828,17 80.6840095,17 C63.1944363,17 49,31.208 49,48.7142857 C49,60.4136362 55.3971996,70.5332188 64.8420048,76.0383728 L64.8420048,179.969308 C55.3971996,185.466781 49,195.578683 49,207.285714 C49,224.784319 63.1944363,239 80.6840095,239 C98.1735828,239 112.368019,224.784319 112.368019,207.285714 C112.368019,198.985491 109.103576,191.490513 103.890071,185.822824 C108.500342,180.155134 115.995838,175.571429 128.210024,175.571429 C191.08298,175.571429 191.578043,112.142857 191.578043,112.142857 L191.578043,107.752658 C201.015175,102.247504 207.420048,92.1279219 207.420048,80.4285714 C207.420048,62.9222857 193.217938,48.7142857 175.736038,48.7142857 Z M80.6840095,32.8571429 C89.4481036,32.8571429 96.5260143,39.941817 96.5260143,48.7142857 C96.5260143,57.4867545 89.4481036,64.5714286 80.6840095,64.5714286 C71.9199155,64.5714286 64.8420048,57.4867545 64.8420048,48.7142857 C64.8420048,39.941817 71.9199155,32.8571429 80.6840095,32.8571429 Z M80.6840095,223.142857 C71.9199155,223.142857 64.8420048,216.050502 64.8420048,207.285714 C64.8420048,198.536536 71.9199155,191.428571 80.6840095,191.428571 C89.4481036,191.428571 96.5260143,198.536536 96.5260143,207.285714 C96.5260143,216.050502 89.4481036,223.142857 80.6840095,223.142857 Z M175.736038,96.2857143 C166.979618,96.2857143 159.894033,89.2010402 159.894033,80.4285714 C159.894033,71.6561027 166.979618,64.5714286 175.736038,64.5714286 C184.492459,64.5714286 191.578043,71.6561027 191.578043,80.4285714 C191.578043,89.2010402 184.492459,96.2857143 175.736038,96.2857143 Z" id="Shape"></path>
        </g>
    </g>
</svg>