<?xml version="1.0" encoding="UTF-8"?>
<svg width="256px" height="256px" viewBox="0 0 256 256" version="1.1" xmlns="http://www.w3.org/2000/svg" xmlns:xlink="http://www.w3.org/1999/xlink">
    <!-- Generator: Sketch 41.2 (35397) - http://www.bohemiancoding.com/sketch -->
    <title>256x256/vcs-compare-symbolic</title>
    <desc>Created with Sketch.</desc>
    <defs></defs>
    <g id="VCS2-Clement-Colored" stroke="none" stroke-width="1" fill="none" fill-rule="evenodd">
        <g id="256x256/vcs-compare-symbolic" fill="#000000">
            <path d="M198.435178,169.115493 L198.435178,87.7827608 C198.435178,48.8118813 159.565522,48.9131043 159.565522,48.9131043 L146.60897,48.9131043 L146.60897,23 L107.739313,61.8696565 L146.60897,100.739313 L146.60897,74.8262087 L159.565522,74.8262087 C170.991176,74.8262087 172.522074,87.7827608 172.522074,87.7827608 L172.522074,169.115493 C164.803815,173.607367 159.565522,181.844293 159.565522,191.435178 C159.565522,205.732936 171.180868,217.348283 185.478626,217.348283 C199.776384,217.348283 211.39173,205.732936 211.39173,191.435178 C211.39173,181.869599 206.153437,173.607367 198.435178,169.115493 Z M185.478626,204.39173 C178.329848,204.39173 172.522074,198.59671 172.522074,191.435178 C172.522074,184.286401 178.329848,178.478626 185.478626,178.478626 C192.640158,178.478626 198.435178,184.286401 198.435178,191.435178 C198.435178,198.59671 192.640158,204.39173 185.478626,204.39173 Z M42.9565522,86.8907832 L42.9565522,168.217239 C42.9565522,207.188119 81.8262087,207.086896 81.8262087,207.086896 L94.7827608,207.086896 L94.7827608,233 L133.652417,194.130343 L94.7827608,155.260687 L94.7827608,181.173791 L81.8262087,181.173791 C70.4005541,181.173791 68.8696565,168.217239 68.8696565,168.217239 L68.8696565,86.8907832 C76.594191,82.3926327 81.8262087,74.1557071 81.8262087,64.5648218 C81.8262087,50.2607882 70.2171379,38.6517175 55.9131043,38.6517175 C41.6090707,38.6517175 30,50.2607882 30,64.5648218 C30,74.1366772 35.2320177,82.3926327 42.9565522,86.8907832 Z M55.9131043,78.0653467 C48.7643267,78.0653467 42.9565522,72.2766021 42.9565522,65.1087945 C42.9565522,57.9600169 48.7643267,52.1522424 55.9131043,52.1522424 C63.0809119,52.1522424 68.8696565,57.9600169 68.8696565,65.1087945 C68.8696565,72.2766021 63.0809119,78.0653467 55.9131043,78.0653467 Z" id="Shape"></path>
        </g>
    </g>
</svg>