<?xml version="1.0" encoding="UTF-8" standalone="no"?>
<svg width="256px" height="256px" viewBox="0 0 256 256" version="1.1" xmlns="http://www.w3.org/2000/svg" xmlns:xlink="http://www.w3.org/1999/xlink">
    <!-- Generator: Sketch 41.2 (35397) - http://www.bohemiancoding.com/sketch -->
    <title>256x256/vcs-stash-symbolic</title>
    <desc>Created with Sketch.</desc>
    <defs></defs>
    <g id="VCS2-Clement-Colored" stroke="none" stroke-width="1" fill="none" fill-rule="evenodd">
        <g id="256x256/vcs-stash-symbolic" stroke-width="13" stroke="#000000">
            <polyline id="Path-3" points="41.8586078 73.2742483 52.6120964 73.2742483 74.3327191 73.2742483 87.9042932 73.2742483 91.5260926 73.2742483 105.10784 73.2742483 129.544812 73.2742483 156.698134 73.2742483 183.851456 73.2742483 202.855729 73.2742483 208.288428 73.2742483 210.994604 73.2742483 212.805504 73.2742483 215.521853 73.2742483 218.126293 73.2742483 220.842643 73.2742483 223.447083 73.2742483"></polyline>
            <polyline id="Path-3" points="42 128 52.7534886 128 74.4741113 128 88.0456854 128 91.6674848 128 105.249232 128 129.686205 128 156.839526 128 183.992848 128 202.997121 128 208.42982 128 211.135996 128 212.946896 128 215.663246 128 218.267686 128 220.984035 128 223.588475 128"></polyline>
            <polyline id="Path-3" points="42 182.725752 52.7534886 182.725752 74.4741113 182.725752 88.0456854 182.725752 91.6674848 182.725752 105.249232 182.725752 129.686205 182.725752 156.839526 182.725752 183.992848 182.725752 202.997121 182.725752 208.42982 182.725752 211.135996 182.725752 212.946896 182.725752 215.663246 182.725752 218.267686 182.725752 220.984035 182.725752 223.588475 182.725752"></polyline>
        </g>
    </g>
</svg>