<?xml version="1.0" encoding="UTF-8" standalone="no"?>
<svg width="256px" height="256px" viewBox="0 0 256 256" version="1.1" xmlns="http://www.w3.org/2000/svg" xmlns:xlink="http://www.w3.org/1999/xlink">
    <!-- Generator: Sketch 41.1 (35376) - http://www.bohemiancoding.com/sketch -->
    <title>256x256/vcs-added</title>
    <desc>Created with Sketch.</desc>
    <defs></defs>
    <g id="VCS2" stroke="none" stroke-width="1" fill="none" fill-rule="evenodd">
        <g id="256x256/vcs-added">
            <polygon id="Path-2" stroke="#4E72BF" stroke-width="5" fill="#648FEE" points="25 105.549422 105.480287 105.549422 105.480287 25 152.266548 25 152.266548 105.993785 231 105.993785 231 153.764891 153.212292 153.764891 153.212292 231 104.433843 231 104.433843 150.538526 26.6268689 150.538526"></polygon>
            <g id="Arrow-33" transform="translate(198.000000, 172.000000) rotate(-90.000000) translate(-198.000000, -172.000000) translate(154.000000, 139.000000)" fill="#191A1B">
                <path d="M0,0 C7.86202241e-05,-0.000265677934 5.77946702,14.2767664 17.9731021,23.4462339 C30.1883264,32.6033084 49.9945376,28.8620004 49.9945376,28.8620004 L46.5414116,17.7794799 C46.4129776,17.3672259 46.6450802,16.9295449 47.0598648,16.8018788 C47.2777686,16.7348186 47.5142582,16.7651215 47.7079156,16.8849423 L71.6291723,31.6849535 C71.9977911,31.9130146 72.1106111,32.3948918 71.8811344,32.7612773 C71.8486013,32.8132252 71.8100303,32.8612035 71.7662231,32.9042121 L50.5108838,53.7744796 C50.2020007,54.0777744 49.7042089,54.0747738 49.3990523,53.7677595 C49.2189019,53.5865359 49.1389609,53.3293909 49.1848437,53.0787473 L51.0279376,43.0085065 C51.0272143,43.0088347 28.4405516,45.1580129 14.6031406,33.1221305 C0.747269506,21.0958906 7.86202241e-05,-0.000640752663 0,0 L0,0 Z" id="Arrow-33-shape"></path>
            </g>
        </g>
    </g>
</svg>