<?xml version="1.0" encoding="UTF-8"?>
<svg width="256px" height="256px" viewBox="0 0 256 256" version="1.1" xmlns="http://www.w3.org/2000/svg" xmlns:xlink="http://www.w3.org/1999/xlink">
    <!-- Generator: Sketch 41.2 (35397) - http://www.bohemiancoding.com/sketch -->
    <title>256x256/vcs-tag-symbolic</title>
    <desc>Created with Sketch.</desc>
    <defs></defs>
    <g id="VCS2-Clement-Colored" stroke="none" stroke-width="1" fill="none" fill-rule="evenodd">
        <g id="256x256/vcs-tag-symbolic" fill="#000000">
            <g id="Group" transform="translate(128.000000, 128.000000) scale(-1, 1) translate(-128.000000, -128.000000) translate(51.000000, 52.000000)">
                <path d="M94.4585332,152 C93.7037531,152 92.950453,151.714368 92.3732682,151.141623 L1.87365691,61.3065138 C1.31423168,60.7515284 0.999,59.9937884 0.999,59.2064492 L1.00047996,3.41192187 C1.00047996,1.778045 2.32652496,0.452 3.96040184,0.452 L59.7504893,0.452 C60.5319087,0.452 61.2807689,0.759831875 61.8357543,1.3118573 L152.335366,91.1484461 C152.893311,91.7034315 153.208543,92.4582116 153.210022,93.2440708 C153.211502,94.03141 152.899231,94.7876701 152.342765,95.3426554 L96.551198,151.134223 C95.9740132,151.709928 95.2162732,152 94.4585332,152 Z M6.91884375,57.9736418 L94.4526134,144.860668 L146.057371,93.2573905 L58.5310015,6.37184375 L6.92032371,6.37184375 L6.91884375,57.9736418 Z" id="Shape"></path>
                <path d="M23.52,32.782 C20.901,32.782 18.438,31.762 16.585,29.91 C12.763,26.085 12.763,19.863 16.584,16.039 C18.438,14.186 20.9,13.166 23.52,13.166 C26.14,13.166 28.603,14.186 30.456,16.038 C34.279,19.863 34.279,26.086 30.456,29.91 C28.603,31.762 26.14,32.782 23.52,32.782 Z M23.52,17.166 C21.969,17.166 20.511,17.77 19.414,18.867 C17.151,21.132 17.151,24.817 19.415,27.082 C20.512,28.178 21.97,28.782 23.52,28.782 C25.072,28.782 26.53,28.178 27.627,27.081 C29.891,24.816 29.891,21.131 27.627,18.866 C26.529,17.77 25.071,17.166 23.52,17.166 Z" id="Shape"></path>
            </g>
        </g>
    </g>
</svg>