<?xml version="1.0" encoding="UTF-8"?>
<svg width="256px" height="256px" viewBox="0 0 256 256" version="1.1" xmlns="http://www.w3.org/2000/svg" xmlns:xlink="http://www.w3.org/1999/xlink">
    <!-- Generator: Sketch 41.2 (35397) - http://www.bohemiancoding.com/sketch -->
    <title>256x256/vcs-up-to-date</title>
    <desc>Created with Sketch.</desc>
    <defs></defs>
    <g id="VCS2-Clement-Colored" stroke="none" stroke-width="1" fill="none" fill-rule="evenodd">
        <g id="256x256/vcs-up-to-date" stroke="#417505" stroke-width="5" fill="#63B00A">
            <path d="M53.3733478,144.97805 C58.426051,144.978184 62.2481309,149.002597 64.8394071,157.051311 C70.0213585,172.142984 73.71413,179.688764 75.91676,179.688677 C77.6011947,179.688764 79.3505542,178.431093 81.163636,175.915751 C117.56979,119.322496 151.255299,73.5447671 182.220224,38.582418 C190.252729,29.5277117 203.014337,25.0002433 220.505166,25 C224.651328,25.0002433 227.436296,25.3775493 228.861694,26.1318659 C230.28643,26.8866844 230.998798,27.8299041 231,28.9615366 C230.999699,30.7224568 228.861694,34.1809367 224.586764,39.3369943 C174.576485,97.6912557 128.194173,159.315131 85.4396476,224.208793 C82.459725,228.736291 76.3702709,231.000035 67.1716459,231 C57.8432919,231.000035 52.3370177,230.622451 50.6528234,229.868111 C46.2475636,227.981706 41.0653116,218.360834 35.1056468,201.005471 C28.3684487,181.763797 24.9999399,169.690547 25,164.785692 C24.9999399,159.503795 29.534508,154.410345 38.6037645,149.505467 C44.1746628,146.48729 49.0979975,144.978143 53.3735282,144.977968" id="Shape"></path>
        </g>
    </g>
</svg>