<?xml version="1.0" encoding="UTF-8" standalone="no"?>
<svg width="256px" height="256px" viewBox="0 0 256 256" version="1.1" xmlns="http://www.w3.org/2000/svg" xmlns:xlink="http://www.w3.org/1999/xlink">
    <!-- Generator: Sketch 41.1 (35376) - http://www.bohemiancoding.com/sketch -->
    <title>256x256/vcs-not-registered</title>
    <desc>Created with Sketch.</desc>
    <defs>
        <radialGradient cx="50.0000189%" cy="50.000089%" fx="50.0000189%" fy="50.000089%" r="50%" id="radialGradient-1">
            <stop stop-color="#000000" offset="0%"></stop>
            <stop stop-color="#000000" stop-opacity="0" offset="100%"></stop>
        </radialGradient>
    </defs>
    <g id="VCS2" stroke="none" stroke-width="1" fill="none" fill-rule="evenodd">
        <g id="256x256/vcs-not-registered">
            <path d="M233.903605,198.670824 C235.89201,207.890069 206.878282,221.779159 169.099628,229.692974 C131.320974,237.606789 99.0834033,236.548529 97.0949978,227.329284 C95.8087246,221.365478 107.657946,213.123559 128.179175,205.708177 C148.700404,198.292795 174.775977,192.830523 196.583479,191.378947 C218.390981,189.927371 232.617332,192.707019 233.903605,198.670824" id="Shape" fill="url(#radialGradient-1)" opacity="0.07000002"></path>
            <path d="M132.580078,99.3925781 L132.580078,203.411133 C132.580078,210.6182 130.866228,216.067364 127.438477,219.758789 C124.010725,223.450214 119.660183,225.295898 114.386719,225.295898 C109.113255,225.295898 104.82863,223.406269 101.532715,219.626953 C98.2367999,215.847637 96.5888672,210.442418 96.5888672,203.411133 L96.5888672,100.447266 C96.5888672,93.3280894 98.2367999,87.9668149 101.532715,84.3632812 C104.82863,80.7597476 109.113255,78.9580078 114.386719,78.9580078 C119.660183,78.9580078 124.010725,80.7597476 127.438477,84.3632812 C130.866228,87.9668149 132.580078,92.9765304 132.580078,99.3925781 Z M114.782227,62.2148438 C109.772436,62.2148438 105.487811,60.6767732 101.928223,57.6005859 C98.3686345,54.5243987 96.5888672,50.1738563 96.5888672,44.5488281 C96.5888672,39.4511464 98.4125794,35.254411 102.060059,31.9584961 C105.707538,28.6625812 109.948218,27.0146484 114.782227,27.0146484 C119.440453,27.0146484 123.571271,28.5087741 127.174805,31.4970703 C130.778338,34.4853665 132.580078,38.8359089 132.580078,44.5488281 C132.580078,50.0859652 130.822283,54.4145352 127.306641,57.534668 C123.790998,60.6548008 119.616235,62.2148438 114.782227,62.2148438 Z" id="i" stroke="#BD3636" stroke-width="5" fill="#F44747"></path>
        </g>
    </g>
</svg>