<?xml version="1.0" encoding="UTF-8"?>
<svg width="256px" height="256px" viewBox="0 0 256 256" version="1.1" xmlns="http://www.w3.org/2000/svg" xmlns:xlink="http://www.w3.org/1999/xlink">
    <!-- Generator: Sketch 41.2 (35397) - http://www.bohemiancoding.com/sketch -->
    <title>256x256/vcs-unknown</title>
    <desc>Created with Sketch.</desc>
    <defs></defs>
    <g id="VCS2-Clement-Colored" stroke="none" stroke-width="1" fill="none" fill-rule="evenodd">
        <g id="256x256/vcs-unknown" stroke="#003232" stroke-width="5" fill="#005A5A">
            <path d="M62,83.1074219 C62,74.7577708 64.6806373,66.2983827 70.0419922,57.7290039 C75.4033471,49.1596251 83.2255345,42.0625281 93.5087891,36.4375 C103.792044,30.8124719 115.788994,28 129.5,28 C142.244204,28 153.494092,30.3510507 163.25,35.0532227 C173.005908,39.7553946 180.542454,46.1493736 185.859863,54.2353516 C191.177273,62.3213295 193.835938,71.1103041 193.835938,80.6025391 C193.835938,88.0732795 192.319839,94.6210656 189.287598,100.246094 C186.255356,105.871122 182.651876,110.72703 178.477051,114.813965 C174.302225,118.900899 166.809624,125.778272 155.999023,135.446289 C153.010727,138.170912 150.615732,140.565908 148.813965,142.631348 C147.012198,144.696788 145.671879,146.586417 144.792969,148.300293 C143.914058,150.014169 143.232913,151.728019 142.749512,153.441895 C142.266111,155.15577 141.54102,158.165994 140.574219,162.472656 C138.904289,171.613327 133.674849,176.183594 124.885742,176.183594 C120.315407,176.183594 116.47023,174.689468 113.350098,171.701172 C110.229965,168.712876 108.669922,164.274444 108.669922,158.385742 C108.669922,151.002893 109.812489,144.608914 112.097656,139.203613 C114.382824,133.798313 117.41502,129.052267 121.194336,124.965332 C124.973652,120.878398 130.071257,116.022489 136.487305,110.397461 C142.112333,105.475561 146.177234,101.76222 148.682129,99.2573242 C151.187024,96.7524289 153.296378,93.9619294 155.010254,90.8857422 C156.72413,87.8095549 157.581055,84.4697446 157.581055,80.8662109 C157.581055,73.8349258 154.966335,67.9023679 149.736816,63.0683594 C144.507298,58.2343508 137.76176,55.8173828 129.5,55.8173828 C119.831983,55.8173828 112.712913,58.2563233 108.142578,63.1342773 C103.572243,68.0122314 99.7050939,75.1972182 96.5410156,84.6894531 C93.5527194,94.6211434 87.8838308,99.5869141 79.5341797,99.5869141 C74.6122801,99.5869141 70.4594896,97.8510916 67.0756836,94.3793945 C63.6918776,90.9076975 62,87.1504108 62,83.1074219 Z M126.335938,227.599609 C120.974583,227.599609 116.294454,225.863787 112.29541,222.39209 C108.296367,218.920393 106.296875,214.064484 106.296875,207.824219 C106.296875,202.287082 108.230449,197.628925 112.097656,193.849609 C115.964863,190.070294 120.710909,188.180664 126.335938,188.180664 C131.873075,188.180664 136.531231,190.070294 140.310547,193.849609 C144.089863,197.628925 145.979492,202.287082 145.979492,207.824219 C145.979492,213.976593 144.001973,218.810529 140.046875,222.326172 C136.091777,225.841814 131.52151,227.599609 126.335938,227.599609 Z" id="?"></path>
        </g>
    </g>
</svg>