<?xml version="1.0" encoding="UTF-8" standalone="no"?>
<svg width="256px" height="256px" viewBox="0 0 256 256" version="1.1" xmlns="http://www.w3.org/2000/svg" xmlns:xlink="http://www.w3.org/1999/xlink">
    <!-- Generator: Sketch 41.1 (35376) - http://www.bohemiancoding.com/sketch -->
    <title>256x256/vcs-modified-staged</title>
    <desc>Created with Sketch.</desc>
    <defs>
        <radialGradient cx="50%" cy="50.0000909%" fx="50%" fy="50.0000909%" r="50%" id="radialGradient-1">
            <stop stop-color="#000000" offset="0%"></stop>
            <stop stop-color="#000000" stop-opacity="0" offset="100%"></stop>
        </radialGradient>
        <linearGradient x1="9.04347826%" y1="80.2624684%" x2="91.1304348%" y2="79.4512946%" id="linearGradient-2">
            <stop stop-color="#000000" offset="0%"></stop>
            <stop stop-color="#000000" stop-opacity="0" offset="100%"></stop>
        </linearGradient>
        <linearGradient x1="41.0516852%" y1="57.4805539%" x2="51.0169856%" y2="67.6226233%" id="linearGradient-3">
            <stop stop-color="#FCAF3E" offset="0%"></stop>
            <stop stop-color="#CE5C00" offset="100%"></stop>
        </linearGradient>
        <linearGradient x1="21.4426699%" y1="96.8831613%" x2="18.7428441%" y2="99.630882%" id="linearGradient-4">
            <stop stop-color="#CE5C00" offset="0%"></stop>
            <stop stop-color="#CE5C00" offset="100%"></stop>
        </linearGradient>
    </defs>
    <g id="VCS2" stroke="none" stroke-width="1" fill="none" fill-rule="evenodd">
        <g id="256x256/vcs-modified-staged">
            <g id="pencil-256" transform="translate(25.000000, 25.000000)">
                <g id="Shape">
                    <path d="M198.476404,178.709022 C198.476404,192.18692 154.352186,203.112914 99.9222051,203.112914 C45.4922239,203.112914 1.36800606,192.18692 1.36800606,178.709022 C1.36800553,169.990351 20.1523296,161.933967 50.6451052,157.574631 C81.1378807,153.215296 118.70653,153.215296 149.199305,157.574631 C179.692081,161.933967 198.476405,169.990351 198.476404,178.709022 L198.476404,178.709022 Z" fill="url(#radialGradient-1)" opacity="0.07000002"></path>
                    <polygon fill="url(#linearGradient-2)" opacity="0.4" points="146.512967 135.276419 33.8796097 168.863033 32.9409984 169.349909 32.2370399 169.934176 11.587591 191.358377 67.4349641 185.028503 69.5468395 184.833722 70.9547565 184.249455 146.512967 164.101653 146.512967 135.276366 146.512967 135.276419 146.512967 135.276419"></polygon>
                    <path d="M32.4716927,148.182324 L175.140612,5.51340493 C191.472817,8.21631266 198.303429,18.5204928 201.421729,31.7945217 L58.7528094,174.463441 L24.0908924,179.753492 L32.4716927,148.182324 L32.4716927,148.182324 L32.4716927,148.182324 L32.4716927,148.182324 Z" stroke="url(#linearGradient-4)" stroke-width="0.8514441" fill="url(#linearGradient-3)"></path>
                    <path d="M39.2296791,151.93677 L178.127258,13.7900945 C186.310034,15.1299434 189.520205,21.2084578 193.145039,28.8078755 L54.9983642,167.705455 L30.219003,174.463464 L39.2296791,151.93677 L39.2296791,151.93677 L39.2296791,151.93677 L39.2296791,151.93677 Z" stroke="#FFFFFF" stroke-width="0.8514441" opacity="0.28235294"></path>
                </g>
            </g>
            <g id="Arrow-33" transform="translate(198.000000, 172.000000) rotate(-90.000000) translate(-198.000000, -172.000000) translate(154.000000, 139.000000)" fill="#191A1B">
                <path d="M0,0 C7.86202241e-05,-0.000265677934 5.77946702,14.2767664 17.9731021,23.4462339 C30.1883264,32.6033084 49.9945376,28.8620004 49.9945376,28.8620004 L46.5414116,17.7794799 C46.4129776,17.3672259 46.6450802,16.9295449 47.0598648,16.8018788 C47.2777686,16.7348186 47.5142582,16.7651215 47.7079156,16.8849423 L71.6291723,31.6849535 C71.9977911,31.9130146 72.1106111,32.3948918 71.8811344,32.7612773 C71.8486013,32.8132252 71.8100303,32.8612035 71.7662231,32.9042121 L50.5108838,53.7744796 C50.2020007,54.0777744 49.7042089,54.0747738 49.3990523,53.7677595 C49.2189019,53.5865359 49.1389609,53.3293909 49.1848437,53.0787473 L51.0279376,43.0085065 C51.0272143,43.0088347 28.4405516,45.1580129 14.6031406,33.1221305 C0.747269506,21.0958906 7.86202241e-05,-0.000640752663 0,0 L0,0 Z" id="Arrow-33-shape"></path>
            </g>
        </g>
    </g>
</svg>