<?xml version="1.0" encoding="UTF-8"?>
<svg width="256px" height="256px" viewBox="0 0 256 256" version="1.1" xmlns="http://www.w3.org/2000/svg" xmlns:xlink="http://www.w3.org/1999/xlink">
    <!-- Generator: Sketch 41.2 (35397) - http://www.bohemiancoding.com/sketch -->
    <title>256x256/vcs-ignored</title>
    <desc>Created with Sketch.</desc>
    <defs></defs>
    <g id="VCS2-Clement-Colored" stroke="none" stroke-width="1" fill="none" fill-rule="evenodd">
        <g id="256x256/vcs-ignored" stroke="#003232" stroke-width="5" fill="#005A5A">
            <path d="M145.991211,101.37793 L145.991211,205.396484 C145.991211,212.603552 144.277361,218.052716 140.849609,221.744141 C137.421858,225.435565 133.071315,227.28125 127.797852,227.28125 C122.524388,227.28125 118.239763,225.39162 114.943848,221.612305 C111.647933,217.832989 110,212.42777 110,205.396484 L110,102.432617 C110,95.313441 111.647933,89.9521665 114.943848,86.3486328 C118.239763,82.7450992 122.524388,80.9433594 127.797852,80.9433594 C133.071315,80.9433594 137.421858,82.7450992 140.849609,86.3486328 C144.277361,89.9521665 145.991211,94.961882 145.991211,101.37793 Z M128.193359,64.2001953 C123.183569,64.2001953 118.898944,62.6621248 115.339355,59.5859375 C111.779767,56.5097502 110,52.1592078 110,46.5341797 C110,41.4364979 111.823712,37.2397626 115.471191,33.9438477 C119.118671,30.6479327 123.359351,29 128.193359,29 C132.851586,29 136.982404,30.4941257 140.585938,33.4824219 C144.189471,36.4707181 145.991211,40.8212605 145.991211,46.5341797 C145.991211,52.0713167 144.233416,56.3998867 140.717773,59.5200195 C137.202131,62.6401523 133.027368,64.2001953 128.193359,64.2001953 Z" id="i"></path>
        </g>
    </g>
</svg>
