<?xml version="1.0" encoding="UTF-8" standalone="no"?>
<!-- Created with Inkscape (http://www.inkscape.org/) -->

<svg
   xmlns:dc="http://purl.org/dc/elements/1.1/"
   xmlns:cc="http://creativecommons.org/ns#"
   xmlns:rdf="http://www.w3.org/1999/02/22-rdf-syntax-ns#"
   xmlns:svg="http://www.w3.org/2000/svg"
   xmlns="http://www.w3.org/2000/svg"
   xmlns:sodipodi="http://sodipodi.sourceforge.net/DTD/sodipodi-0.dtd"
   xmlns:inkscape="http://www.inkscape.org/namespaces/inkscape"
   width="16px"
   height="16px"
   id="svg3881"
   version="1.1"
   inkscape:version="0.48.4 r9939"
   sodipodi:docname="gps-unknown-item-symbolic.svg">
  <defs
     id="defs3883" />
  <sodipodi:namedview
     id="base"
     pagecolor="#ffffff"
     bordercolor="#666666"
     borderopacity="1.0"
     inkscape:pageopacity="0"
     inkscape:pageshadow="2"
     inkscape:zoom="22.197802"
     inkscape:cx="7.2116337"
     inkscape:cy="8"
     inkscape:current-layer="flowRoot4526"
     showgrid="true"
     inkscape:grid-bbox="true"
     inkscape:document-units="px"
     inkscape:window-width="882"
     inkscape:window-height="741"
     inkscape:window-x="16"
     inkscape:window-y="0"
     inkscape:window-maximized="0"
     showguides="true"
     inkscape:guide-bbox="true" />
  <metadata
     id="metadata3886">
    <rdf:RDF>
      <cc:Work
         rdf:about="">
        <dc:format>image/svg+xml</dc:format>
        <dc:type
           rdf:resource="http://purl.org/dc/dcmitype/StillImage" />
        <dc:title></dc:title>
      </cc:Work>
    </rdf:RDF>
  </metadata>
  <g
     id="layer1"
     inkscape:label="Layer 1"
     inkscape:groupmode="layer">
    <g
       transform="matrix(1.520271,0,0,1.520271,2.2865164,-5.2328875)"
       style="font-size:14px;font-style:normal;font-variant:normal;font-weight:normal;font-stretch:normal;text-align:start;line-height:125%;letter-spacing:0px;word-spacing:0px;writing-mode:lr-tb;text-anchor:start;fill:#000000;fill-opacity:1;stroke:none;font-family:Sans;-inkscape-font-specification:Sans"
       id="flowRoot4526">
      <path
         d="m 2.6416016,12.21816 1.3876953,0 0,1.736328 -1.3876953,0 0,-1.736328 m 1.3466797,-1.004883 -1.3056641,0 0,-1.052734 C 2.6826145,9.7002607 2.7464165,9.3220059 2.8740234,9.0257773 3.0016246,8.7295586 3.2705045,8.3854834 3.6806641,7.9935508 L 4.2958984,7.3851523 C 4.5556595,7.1436227 4.7425082,6.9157583 4.8564453,6.7015586 4.9749299,6.4873733 5.0341746,6.2686235 5.0341797,6.0453086 5.0341746,5.6397179 4.8837841,5.3115933 4.5830078,5.0609336 4.2867795,4.8102917 3.8925742,4.6849663 3.4003906,4.684957 3.0403615,4.6849663 2.6552708,4.7647188 2.2451172,4.9242148 1.8395164,5.0837289 1.4156887,5.3161505 0.97363281,5.6214804 l 0,-1.2851562 C 1.4020168,4.0765684 1.8349591,3.8828837 2.2724609,3.7552695 2.7145155,3.6276757 3.1702442,3.5638736 3.6396484,3.5638633 c 0.8385372,1.03e-5 1.510737,0.2210388 2.0166016,0.6630859 0.5104105,0.4420666 0.7656185,1.0253993 0.765625,1.75 C 6.4218685,6.323311 6.3398374,6.6537143 6.1757812,6.9681601 6.0117127,7.2780626 5.7246036,7.6289737 5.3144531,8.0208945 L 4.7128906,8.6087851 C 4.4986934,8.822983 4.3460243,8.9916026 4.2548828,9.1146445 4.1682901,9.2331388 4.1067667,9.3493496 4.0703125,9.4632773 4.0429647,9.5589848 4.0224569,9.6751957 4.0087891,9.8119101 3.9951132,9.9486329 3.9882772,10.135482 3.9882813,10.372457 l 0,0.84082"
         style=""
         id="path4554" />
    </g>
  </g>
</svg>
