<?xml version="1.0" encoding="UTF-8"?>
<svg xmlns="http://www.w3.org/2000/svg" xmlns:xlink="http://www.w3.org/1999/xlink" width="16pt" height="16pt" viewBox="0 0 16 16" version="1.1">
<g id="surface1">
<path style=" stroke:none;fill-rule:nonzero;fill:rgb(0%,0%,0%);fill-opacity:1;" d="M 13.394531 2.855469 L 2.855469 2.855469 C 1.804688 2.855469 0.953125 3.710938 0.953125 4.761719 L 0.953125 11.960938 L 15.296875 11.960938 L 15.296875 4.761719 C 15.296875 3.710938 14.445312 2.855469 13.394531 2.855469 Z M 13.394531 2.855469 "/>
<path style=" stroke:none;fill-rule:nonzero;fill:rgb(0%,0%,0%);fill-opacity:1;" d="M 6.414062 0 L 0.953125 0 L 0.953125 2.632812 C 1.460938 2.183594 2.125 1.90625 2.855469 1.90625 L 8.320312 1.90625 Z M 6.414062 0 "/>
<path style=" stroke:none;fill-rule:nonzero;fill:rgb(0%,0%,0%);fill-opacity:1;" d="M 8.601562 13.710938 L 8.601562 12.921875 L 7.648438 12.921875 L 7.648438 13.710938 L 0.953125 13.710938 L 0.953125 16.25 L 1.90625 16.25 L 1.90625 14.664062 L 4.300781 14.664062 L 4.300781 16.25 L 5.253906 16.25 L 5.253906 14.664062 L 7.648438 14.664062 L 7.648438 16.25 L 8.601562 16.25 L 8.601562 14.664062 L 10.996094 14.664062 L 10.996094 16.25 L 11.949219 16.25 L 11.949219 14.664062 L 14.34375 14.664062 L 14.34375 16.25 L 15.296875 16.25 L 15.296875 13.710938 Z M 8.601562 13.710938 "/>
</g>
</svg>
