<?xml version="1.0" encoding="UTF-8" standalone="no"?>
<!-- Created with Inkscape (http://www.inkscape.org/) -->

<svg
   xmlns:dc="http://purl.org/dc/elements/1.1/"
   xmlns:cc="http://creativecommons.org/ns#"
   xmlns:rdf="http://www.w3.org/1999/02/22-rdf-syntax-ns#"
   xmlns:svg="http://www.w3.org/2000/svg"
   xmlns="http://www.w3.org/2000/svg"
   version="1.1"
   width="16"
   height="16"
   id="svg2985">
  <defs
     id="defs2987" />
  <metadata
     id="metadata2990">
    <rdf:RDF>
      <cc:Work
         rdf:about="">
        <dc:format>image/svg+xml</dc:format>
        <dc:type
           rdf:resource="http://purl.org/dc/dcmitype/StillImage" />
        <dc:title></dc:title>
      </cc:Work>
    </rdf:RDF>
  </metadata>
  <g
     id="layer1">
    <rect
       width="15.458"
       height="15.118645"
       x="0.34553292"
       y="0.53489906"
       id="rect4683-6"
       style="fill:#e6e6e6;fill-opacity:1;stroke:#9a0000;stroke-width:0.40000001;stroke-miterlimit:4;stroke-opacity:0.78645833;stroke-dasharray:none" />
    <g
       transform="matrix(1.4780631,0,0,1.4780631,43.279418,-1.0550147)"
       id="flowRoot4372"
       style="font-size:6px;font-style:normal;font-weight:normal;line-height:125%;letter-spacing:0px;word-spacing:0px;fill:#000000;fill-opacity:1;stroke:none;font-family:Sans">
      <path
         d="m -19.164062,7.0937762 0,0.5771485 c -0.224613,-0.1074182 -0.436527,-0.1874962 -0.635743,-0.2402344 -0.199221,-0.05273 -0.391603,-0.079098 -0.577148,-0.079102 -0.322267,4e-6 -0.571291,0.062504 -0.74707,0.1875 -0.17383,0.1250037 -0.260744,0.3027379 -0.260743,0.5332031 -1e-6,0.1933625 0.05762,0.3398467 0.172852,0.4394532 0.117186,0.097659 0.337889,0.1767604 0.662109,0.2373047 l 0.357422,0.073242 c 0.441404,0.083987 0.766599,0.2324242 0.975586,0.4453125 0.210934,0.2109394 0.316403,0.4941422 0.316406,0.8496102 -3e-6,0.423829 -0.142581,0.745117 -0.427734,0.963867 -0.283206,0.21875 -0.699221,0.328125 -1.248047,0.328125 -0.207033,0 -0.427736,-0.02344 -0.662109,-0.07031 -0.232423,-0.04687 -0.473634,-0.11621 -0.723633,-0.208007 l 0,-0.609375 c 0.240234,0.134766 0.475585,0.236328 0.706055,0.304687 0.230467,0.06836 0.457029,0.10254 0.679687,0.102539 0.337889,1e-6 0.598631,-0.06641 0.782227,-0.199219 0.183591,-0.132811 0.275387,-0.322264 0.27539,-0.568359 -3e-6,-0.2148428 -0.06641,-0.3828114 -0.199218,-0.5039067 -0.130862,-0.121092 -0.346682,-0.2119122 -0.647461,-0.272461 l -0.360352,-0.070313 c -0.441407,-0.087889 -0.760743,-0.2255837 -0.958008,-0.4130859 -0.197266,-0.1874974 -0.295899,-0.4482393 -0.295898,-0.7822266 -1e-6,-0.3867151 0.135741,-0.6914023 0.407226,-0.9140625 0.273437,-0.2226519 0.649413,-0.3339799 1.12793,-0.3339843 0.205076,4.4e-6 0.41406,0.018559 0.626953,0.055664 0.212888,0.037114 0.430661,0.092778 0.653321,0.1669922"
         id="path4507-7" />
    </g>
    <path
       d="m 8.2891088,2.1247523 a 6.3069305,6.3069305 0 1 1 -12.6138611,0 6.3069305,6.3069305 0 1 1 12.6138611,0 z"
       transform="matrix(0.54738494,0,0,0.54738494,6.827771,6.9878667)"
       id="path2995"
       style="fill:#bebebe;fill-opacity:1;fill-rule:evenodd;stroke:none" />
  </g>
</svg>
