<?xml version="1.0" encoding="UTF-8" standalone="no"?>
<!-- Created with Inkscape (http://www.inkscape.org/) -->

<svg
   xmlns:dc="http://purl.org/dc/elements/1.1/"
   xmlns:cc="http://creativecommons.org/ns#"
   xmlns:rdf="http://www.w3.org/1999/02/22-rdf-syntax-ns#"
   xmlns:svg="http://www.w3.org/2000/svg"
   xmlns="http://www.w3.org/2000/svg"
   xmlns:xlink="http://www.w3.org/1999/xlink"
   version="1.0"
   width="16"
   height="16"
   id="svg1">
  <metadata
     id="metadata162">
    <rdf:RDF>
      <cc:Work
         rdf:about="">
        <dc:format>image/svg+xml</dc:format>
        <dc:type
           rdf:resource="http://purl.org/dc/dcmitype/StillImage" />
        <dc:title></dc:title>
        <dc:creator>
          <cc:Agent>
            <dc:title>Jakub Steiner</dc:title>
          </cc:Agent>
        </dc:creator>
        <dc:date>2005-02-01</dc:date>
        <cc:license
           rdf:resource="http://creativecommons.org/licenses/GPL/2.0/" />
        <dc:identifier>http://jimmac.musichall.cz/</dc:identifier>
        <dc:subject>
          <rdf:Bag>
            <rdf:li>folder</rdf:li>
            <rdf:li>directory</rdf:li>
            <rdf:li>storage</rdf:li>
          </rdf:Bag>
        </dc:subject>
      </cc:Work>
      <cc:License
         rdf:about="http://creativecommons.org/licenses/GPL/2.0/">
        <cc:permits
           rdf:resource="http://web.resource.org/cc/Reproduction" />
        <cc:permits
           rdf:resource="http://web.resource.org/cc/Distribution" />
        <cc:requires
           rdf:resource="http://web.resource.org/cc/Notice" />
        <cc:permits
           rdf:resource="http://web.resource.org/cc/DerivativeWorks" />
        <cc:requires
           rdf:resource="http://web.resource.org/cc/ShareAlike" />
        <cc:requires
           rdf:resource="http://web.resource.org/cc/SourceCode" />
      </cc:License>
    </rdf:RDF>
  </metadata>
  <defs
     id="defs3">
    <linearGradient
       id="linearGradient4734">
      <stop
         id="stop4736"
         style="stop-color:#a9cbe0;stop-opacity:1"
         offset="0" />
      <stop
         id="stop4738"
         style="stop-color:#79bbe5;stop-opacity:1"
         offset="1" />
    </linearGradient>
    <linearGradient
       id="linearGradient2339">
      <stop
         id="stop2341"
         style="stop-color:#ffffff;stop-opacity:1"
         offset="0" />
      <stop
         id="stop2343"
         style="stop-color:#ffffff;stop-opacity:0"
         offset="1" />
    </linearGradient>
    <linearGradient
       x1="25.850664"
       y1="37.625"
       x2="24.996323"
       y2="25.25"
       id="linearGradient2345"
       xlink:href="#linearGradient2339"
       gradientUnits="userSpaceOnUse" />
    <linearGradient
       id="linearGradient356">
      <stop
         id="stop357"
         style="stop-color:#fffff3;stop-opacity:1"
         offset="0" />
      <stop
         id="stop358"
         style="stop-color:#fffff3;stop-opacity:0"
         offset="1" />
    </linearGradient>
    <linearGradient
       id="linearGradient311">
      <stop
         id="stop312"
         style="stop-color:#b8cddb;stop-opacity:1"
         offset="0" />
      <stop
         id="stop335"
         style="stop-color:#bacdd9;stop-opacity:1"
         offset="0.32673267" />
      <stop
         id="stop313"
         style="stop-color:#c4cbcf;stop-opacity:0"
         offset="1" />
    </linearGradient>
    <linearGradient
       id="linearGradient235">
      <stop
         id="stop236"
         style="stop-color:#2a5979;stop-opacity:1"
         offset="0" />
      <stop
         id="stop237"
         style="stop-color:#6ba7ca;stop-opacity:1"
         offset="1" />
    </linearGradient>
    <linearGradient
       x1="24.983023"
       y1="22.828066"
       x2="24.983023"
       y2="8.3744106"
       id="linearGradient253"
       xlink:href="#linearGradient235"
       gradientUnits="userSpaceOnUse"
       gradientTransform="scale(1.068312,0.936056)" />
    <linearGradient
       x1="32.827568"
       y1="7.9206076"
       x2="60.071049"
       y2="7.8678756"
       id="linearGradient320"
       xlink:href="#linearGradient311"
       gradientUnits="userSpaceOnUse"
       gradientTransform="scale(0.750458,1.33252)" />
    <linearGradient
       x1="23.643002"
       y1="12.818464"
       x2="28.443289"
       y2="25.232374"
       id="linearGradient355"
       xlink:href="#linearGradient356"
       gradientUnits="userSpaceOnUse"
       gradientTransform="scale(0.806859,1.239374)" />
    <linearGradient
       x1="24.588383"
       y1="1.8991361"
       x2="24.588383"
       y2="40.858932"
       id="linearGradient4740"
       xlink:href="#linearGradient4734"
       gradientUnits="userSpaceOnUse" />
    <linearGradient
       x1="24.983023"
       y1="22.828066"
       x2="24.983023"
       y2="8.3744106"
       id="linearGradient10087"
       xlink:href="#linearGradient235"
       gradientUnits="userSpaceOnUse"
       gradientTransform="scale(1.068312,0.936056)" />
    <linearGradient
       x1="32.827568"
       y1="7.9206076"
       x2="60.071049"
       y2="7.8678756"
       id="linearGradient10089"
       xlink:href="#linearGradient311"
       gradientUnits="userSpaceOnUse"
       gradientTransform="scale(0.750458,1.33252)" />
    <linearGradient
       x1="24.588383"
       y1="1.8991361"
       x2="24.588383"
       y2="40.858932"
       id="linearGradient10091"
       xlink:href="#linearGradient4734"
       gradientUnits="userSpaceOnUse" />
    <linearGradient
       x1="23.643002"
       y1="12.818464"
       x2="28.443289"
       y2="25.232374"
       id="linearGradient10093"
       xlink:href="#linearGradient356"
       gradientUnits="userSpaceOnUse"
       gradientTransform="scale(0.806859,1.239374)" />
    <linearGradient
       x1="25.850664"
       y1="37.625"
       x2="24.996323"
       y2="25.25"
       id="linearGradient10095"
       xlink:href="#linearGradient2339"
       gradientUnits="userSpaceOnUse" />
    <linearGradient
       x1="25.850664"
       y1="37.625"
       x2="24.996323"
       y2="25.25"
       id="linearGradient15179"
       xlink:href="#linearGradient2339"
       gradientUnits="userSpaceOnUse"
       gradientTransform="matrix(0.34647181,0,0,0.34714239,-0.48541104,31.424372)" />
    <linearGradient
       x1="23.643002"
       y1="12.818464"
       x2="28.443289"
       y2="25.232374"
       id="linearGradient15183"
       xlink:href="#linearGradient356"
       gradientUnits="userSpaceOnUse"
       gradientTransform="matrix(0.2795539,0,0,0.43023925,-0.48541104,31.424372)" />
    <linearGradient
       x1="24.588383"
       y1="1.8991361"
       x2="24.588383"
       y2="40.858932"
       id="linearGradient15186"
       xlink:href="#linearGradient4734"
       gradientUnits="userSpaceOnUse"
       gradientTransform="matrix(0.34647181,0,0,0.34714239,-0.48541104,31.424372)" />
    <linearGradient
       x1="32.827568"
       y1="7.9206076"
       x2="60.071049"
       y2="7.8678756"
       id="linearGradient15189"
       xlink:href="#linearGradient311"
       gradientUnits="userSpaceOnUse"
       gradientTransform="matrix(0.26001254,0,0,0.46257418,-0.48541104,31.424372)" />
    <linearGradient
       x1="24.983023"
       y1="22.828066"
       x2="24.983023"
       y2="8.3744106"
       id="linearGradient15192"
       xlink:href="#linearGradient235"
       gradientUnits="userSpaceOnUse"
       gradientTransform="matrix(0.37013999,0,0,0.32494472,-0.48541104,31.424372)" />
    <radialGradient
       cx="37.375"
       cy="33.1875"
       r="14.625"
       fx="37.375"
       fy="33.1875"
       id="radialGradient7860"
       xlink:href="#linearGradient4333"
       gradientUnits="userSpaceOnUse"
       gradientTransform="matrix(1,0,0,0.226496,0,25.67067)" />
    <linearGradient
       id="linearGradient4333">
      <stop
         id="stop4335"
         style="stop-color:#000000;stop-opacity:1"
         offset="0" />
      <stop
         id="stop4337"
         style="stop-color:#000000;stop-opacity:0"
         offset="1" />
    </linearGradient>
    <linearGradient
       x1="18.1875"
       y1="18.53828"
       x2="32.9375"
       y2="18.392296"
       id="linearGradient7862"
       xlink:href="#linearGradient1813"
       gradientUnits="userSpaceOnUse"
       gradientTransform="matrix(1,0,0,0.415008,6.5485,26.7669)" />
    <linearGradient
       id="linearGradient1813">
      <stop
         id="stop1815"
         style="stop-color:#000000;stop-opacity:1"
         offset="0" />
      <stop
         id="stop1817"
         style="stop-color:#000000;stop-opacity:0"
         offset="1" />
    </linearGradient>
    <linearGradient
       x1="28.078697"
       y1="12.338078"
       x2="30.432114"
       y2="14.691495"
       id="linearGradient7864"
       xlink:href="#linearGradient6445"
       gradientUnits="userSpaceOnUse"
       gradientTransform="translate(6.39225,12.18459)" />
    <linearGradient
       id="linearGradient6445">
      <stop
         id="stop6447"
         style="stop-color:#fcaf3e;stop-opacity:1"
         offset="0" />
      <stop
         id="stop6449"
         style="stop-color:#ce5c00;stop-opacity:1"
         offset="1" />
    </linearGradient>
    <linearGradient
       x1="23.447809"
       y1="21.481258"
       x2="22.810215"
       y2="22.118853"
       id="linearGradient7866"
       xlink:href="#linearGradient2301"
       gradientUnits="userSpaceOnUse"
       gradientTransform="translate(6.39225,12.18459)" />
    <linearGradient
       id="linearGradient2301">
      <stop
         id="stop2303"
         style="stop-color:#ce5c00;stop-opacity:1"
         offset="0" />
      <stop
         id="stop2305"
         style="stop-color:#ce5c00;stop-opacity:1"
         offset="1" />
    </linearGradient>
    <linearGradient
       x1="26.379272"
       y1="34.389839"
       x2="25.485056"
       y2="32.714375"
       id="linearGradient7868"
       xlink:href="#linearGradient6437"
       gradientUnits="userSpaceOnUse" />
    <linearGradient
       id="linearGradient6437">
      <stop
         id="stop6439"
         style="stop-color:#e9b96e;stop-opacity:1"
         offset="0" />
      <stop
         id="stop6441"
         style="stop-color:#ffffff;stop-opacity:1"
         offset="1" />
    </linearGradient>
    <radialGradient
       cx="-138.83727"
       cy="128.00087"
       r="9.1267023"
       fx="-138.83727"
       fy="128.00087"
       id="radialGradient7870"
       xlink:href="#linearGradient4117-1-0"
       gradientUnits="userSpaceOnUse"
       gradientTransform="matrix(0.320394,-0.3203948,0.322414,0.3224148,50.518433,-74.157887)" />
    <linearGradient
       id="linearGradient4117-1-0">
      <stop
         id="stop4121-0-5"
         style="stop-color:#f9a9a9;stop-opacity:1"
         offset="0" />
      <stop
         id="stop4119-1-6"
         style="stop-color:#ab5f5f;stop-opacity:1"
         offset="1" />
    </linearGradient>
    <linearGradient
       x1="-158.75"
       y1="115.93846"
       x2="-158.75"
       y2="134.25"
       id="linearGradient10952"
       xlink:href="#linearGradient4099-6-7"
       gradientUnits="userSpaceOnUse"
       gradientTransform="matrix(0.1892115,-0.1892253,0.1892115,0.1892253,49.738733,-37.732231)" />
    <linearGradient
       id="linearGradient4099-6-7">
      <stop
         id="stop4101-1-8"
         style="stop-color:#dddddd;stop-opacity:1"
         offset="0" />
      <stop
         id="stop4107-2-2"
         style="stop-color:#ffffff;stop-opacity:1"
         offset="0.34467545" />
      <stop
         id="stop4109-5-7"
         style="stop-color:#737373;stop-opacity:1"
         offset="0.72694808" />
      <stop
         id="stop4103-9-2"
         style="stop-color:#bbbbbb;stop-opacity:1"
         offset="1" />
    </linearGradient>
    <linearGradient
       x1="-158.75"
       y1="115.93846"
       x2="-158.75"
       y2="134.25"
       id="linearGradient17282"
       xlink:href="#linearGradient4099-6-7"
       gradientUnits="userSpaceOnUse"
       gradientTransform="matrix(0.1892115,-0.1892253,0.1892115,0.1892253,49.738733,-37.732231)" />
  </defs>
  <g
     transform="translate(0,-32)"
     id="layer1"
     style="display:inline" />
  <g
     transform="translate(0,-32)"
     id="layer2"
     style="display:inline">
    <g
       transform="matrix(0.186703,0,0,0.186703,-21.1073,57.62299)"
       id="g891" />
    <g
       transform="matrix(0.07486667,0,0,0.09133143,-0.79489109,27.868815)"
       id="g1197">
      <path
         d="m 32.706693,164.36026 c -10.3875,0 -18.75,8.3625 -18.75,18.75 0,10.3875 8.3625,18.75 18.75,18.75 l 172.499997,0 c 10.3875,0 18.75,-8.3625 18.75,-18.75 0,-10.3875 -8.3625,-18.75 -18.75,-18.75 l -172.499997,0 z"
         id="path1196"
         style="opacity:0.04787233;fill-rule:evenodd;stroke-width:3pt" />
      <path
         d="m 32.706693,165.61026 c -9.695,0 -17.5,7.805 -17.5,17.5 0,9.695 7.805,17.5 17.5,17.5 l 172.499997,0 c 9.695,0 17.5,-7.805 17.5,-17.5 0,-9.695 -7.805,-17.5 -17.5,-17.5 l -172.499997,0 z"
         id="path1195"
         style="opacity:0.04787233;fill-rule:evenodd;stroke-width:3pt" />
      <path
         d="m 32.706694,166.86026 c -9.0025,0 -16.25,7.2475 -16.25,16.25 0,9.0025 7.2475,16.25 16.25,16.25 l 172.499996,0 c 9.0025,0 16.25,-7.2475 16.25,-16.25 0,-9.0025 -7.2475,-16.25 -16.25,-16.25 l -172.499996,0 z"
         id="path1194"
         style="opacity:0.04787233;fill-rule:evenodd;stroke-width:3pt" />
      <path
         d="m 32.706694,168.11026 c -8.31,0 -15,6.69 -15,15 0,8.31 6.69,15 15,15 l 172.499996,0 c 8.31,0 15,-6.69 15,-15 0,-8.31 -6.69,-15 -15,-15 l -172.499996,0 z"
         id="path1193"
         style="opacity:0.04787233;fill-rule:evenodd;stroke-width:3pt" />
      <path
         d="m 32.707764,169.36026 c -7.6175,0 -13.75,6.1325 -13.75,13.75 0,7.6175 6.1325,13.75 13.75,13.75 l 172.498416,0 c 7.6175,0 13.75,-6.1325 13.75,-13.75 0,-7.6175 -6.1325,-13.75 -13.75,-13.75 l -172.498416,0 z"
         id="path1192"
         style="opacity:0.04787233;fill-rule:evenodd;stroke-width:3pt" />
      <path
         d="m 32.706694,170.61026 c -6.925,0 -12.5,5.575 -12.5,12.5 0,6.925 5.575,12.5 12.5,12.5 l 172.499996,0 c 6.925,0 12.5,-5.575 12.5,-12.5 0,-6.925 -5.575,-12.5 -12.5,-12.5 l -172.499996,0 z"
         id="path1191"
         style="opacity:0.04787233;fill-rule:evenodd;stroke-width:3pt" />
      <path
         d="m 32.706694,171.86026 c -6.2325,0 -11.25,5.0175 -11.25,11.25 0,6.2325 5.0175,11.25 11.25,11.25 l 172.499996,0 c 6.2325,0 11.25,-5.0175 11.25,-11.25 0,-6.2325 -5.0175,-11.25 -11.25,-11.25 l -172.499996,0 z"
         id="path1190"
         style="opacity:0.04787233;fill-rule:evenodd;stroke-width:3pt" />
      <path
         d="m 32.706694,173.11026 c -5.54,0 -10,4.46 -10,10 0,5.54 4.46,10 10,10 l 172.499996,0 c 5.54,0 10,-4.46 10,-10 0,-5.54 -4.46,-10 -10,-10 l -172.499996,0 z"
         id="path1189"
         style="opacity:0.04787233;fill-rule:evenodd;stroke-width:3pt" />
    </g>
    <path
       d="m 1.3920032,33.318419 c -0.1611013,0 -0.2824128,0.08166 -0.2824128,0.252276 l 0,11.462976 c 0,0.252423 0.1687682,0.420584 0.3981159,0.420584 l 13.0747907,0 c 0.230682,0 0.322325,-0.157175 0.322325,-0.377191 l 0,-10.033416 c 0,-0.188486 -0.138688,-0.290405 -0.311498,-0.290405 l -6.6208419,0 c -0.1167655,0 -0.24138,-0.06888 -0.3099125,-0.163603 L 6.7609699,33.478781 C 6.6854859,33.374451 6.5385091,33.318424 6.4098977,33.318424 l -5.0178945,-5e-6 z"
       id="path895"
       style="fill:url(#linearGradient15192);fill-opacity:1;fill-rule:evenodd;stroke:#535557;stroke-width:0.34680694;stroke-miterlimit:4;stroke-opacity:1" />
    <path
       d="m 1.2686025,34.168967 0,9.806772 0.3356446,-1.518748 0.075791,-7.854096 c 0,-0.260504 0.1772084,-0.390536 0.4285713,-0.390536 l 4.021426,0 c 0.541049,0 1.0445598,1.106517 1.8424217,1.106517 2.0689969,0 6.7002089,0.03041 6.7002739,0 l 0,-0.357991 -6.7670276,-0.04339 C 7.2626047,34.913368 6.8210987,33.821824 6.3249255,33.821824 l -4.6331653,0 c -0.2824885,0 -0.4231577,0.122946 -0.4231577,0.347143 z"
       id="path315"
       style="color:#000000;fill:url(#linearGradient15189);fill-opacity:1;fill-rule:evenodd;stroke:none;stroke-width:0.25pt;marker:none;visibility:visible;display:inline;overflow:visible" />
    <path
       d="m 2.1777285,37.081502 2.7486805,0 c 0.2569899,0 0.473963,-0.132195 0.5845558,-0.306181 0.047378,-0.07453 0.43932,-0.73793 0.4703958,-0.783231 0.1035212,-0.150912 0.2677939,-0.263452 0.4649589,-0.263452 l 7.9834845,0 c 0.27816,0 0.502094,0.223486 0.502094,0.501091 l 0,8.703848 c 0,0.277605 -0.223934,0.501091 -0.502094,0.501091 l -12.7920675,0 c -0.27816,0 -0.5020939,-0.223486 -0.5020939,-0.501091 l 0,-6.74621 c 0,-0.685386 0.3950874,-1.105865 1.0420859,-1.105865 z"
       id="rect337"
       style="color:#000000;fill:url(#linearGradient15186);fill-opacity:1;fill-rule:evenodd;stroke:#535557;stroke-width:0.34680688;stroke-linecap:butt;stroke-linejoin:round;stroke-miterlimit:4;stroke-opacity:1;stroke-dashoffset:0;marker:none;visibility:visible;display:inline;overflow:visible" />
    <path
       d="m 6.6172611,36.19758 c -0.223966,0 -0.349604,0.09779 -0.4763988,0.260357 -0.1267948,0.162567 -0.270767,0.406786 -0.3681263,0.596651 -0.097359,0.189864 -0.197174,0.365946 -0.2923356,0.488169 -0.095162,0.122222 -0.1696267,0.173571 -0.2490266,0.173571 -0.4330897,0 -3.1727012,0 -3.3459371,0 -0.1587996,0 -0.2894669,0.08002 -0.400608,0.184419 -0.1111412,0.104397 -0.2057177,0.24517 -0.2057177,0.42308 10e-8,0.216963 0,6.725884 0,6.725884 l 0.3464718,0 c 0,0 10e-8,-6.508919 0,-6.725884 0,-0.03905 0.03535,-0.115245 0.097445,-0.173571 0.062095,-0.05833 0.1479724,-0.08679 0.1624087,-0.08679 0.1732359,0 2.9128474,0 3.3459371,0 0.223763,0 0.3931523,-0.141206 0.5197077,-0.303749 0.1265555,-0.162544 0.2274792,-0.363436 0.3248174,-0.553259 0.097338,-0.189822 0.2186815,-0.409363 0.31399,-0.531561 0.095308,-0.122198 0.1474027,-0.130179 0.2273722,-0.130179 0.4215408,0 8.0554701,0.04339 8.0554701,0.04339 l 0,-0.347142 c 0,0 -7.6108314,-0.04339 -8.0554701,-0.04339 z"
       id="path349"
       style="color:#000000;fill:url(#linearGradient15183);fill-opacity:1;fill-rule:evenodd;stroke:none;stroke-width:0.25pt;marker:none;visibility:visible;display:inline;overflow:visible" />
    <rect
       width="0.43308976"
       height="0.43392798"
       rx="0.50012285"
       ry="0.43392798"
       x="1.4302418"
       y="33.979282"
       id="rect459"
       style="color:#000000;fill:#fffffd;fill-opacity:1;fill-rule:evenodd;stroke:none;stroke-width:0.25pt;marker:none;visibility:visible;display:inline;overflow:visible" />
    <rect
       width="13.151433"
       height="8.2012386"
       rx="0.1515815"
       ry="0.1518748"
       x="1.4334066"
       y="36.891865"
       id="rect2337"
       style="opacity:0.2857143;color:#000000;fill:none;stroke:url(#linearGradient15179);stroke-width:0.34680703;stroke-linecap:square;stroke-linejoin:round;stroke-miterlimit:4;stroke-opacity:1;stroke-dasharray:none;stroke-dashoffset:0;marker:none;visibility:visible;display:inline;overflow:visible" />
  </g>
  <g
     transform="matrix(0.36450925,0,0,0.36450925,-1.8202736,-3.7401473)"
     id="g10273"
     style="display:inline;enable-background:new">
    <g
       transform="matrix(1.0416677,0,0,0.4579337,-0.9375015,24.411627)"
       id="g10275"
       style="opacity:0.4" />
    <path
       d="m 52,33.1875 a 14.625,3.3125 0 1 1 -29.25,0 14.625,3.3125 0 1 1 29.25,0 z"
       transform="matrix(0.897436,0,0,0.981132,1.333333,1.688679)"
       id="path4331"
       style="opacity:0.07000002;fill:url(#radialGradient7860);fill-opacity:1;stroke:none" />
    <g
       transform="translate(-1.75,-1)"
       id="g10278" />
    <g
       transform="translate(-2,-1)"
       id="g10280" />
    <g
       transform="translate(60.78337,49.43458)"
       id="g10282"
       style="display:inline" />
    <g
       transform="translate(0,-1)"
       id="g10284"
       style="opacity:0.6" />
    <g
       id="g10286">
      <path
         d="m 41.07975,28.46584 -15,4.472913 -0.125,0.06484 -0.09375,0.07781 -2.75,2.853178 7.4375,-0.842984 0.28125,-0.02594 0.1875,-0.07781 10.0625,-2.683193 0,-3.838821 0,7e-6 0,0 z"
         id="path2334"
         style="opacity:0.4;fill:url(#linearGradient7862);fill-opacity:1;fill-rule:evenodd;stroke:none;display:inline" />
      <g
         id="g10289">
        <g
           id="g10291">
          <path
             d="m 25.89225,30.18459 19,-19 c 2.175049,0.359961 3.084719,1.732225 3.5,3.5 l -19,19 -4.616117,0.704505 1.116117,-4.204505 0,0 0,0 z"
             id="path2273"
             style="fill:url(#linearGradient7864);fill-opacity:1;fill-rule:evenodd;stroke:url(#linearGradient7866);stroke-width:1;stroke-linecap:butt;stroke-linejoin:round;stroke-miterlimit:4;stroke-opacity:1;stroke-dasharray:none" />
          <path
             d="m 26.792248,30.68459 18.49775,-18.397748 c 1.089745,0.178435 1.517261,0.987944 2,2 l -18.397748,18.49775 -3.300003,0.900001 1.200001,-3.000003 0,0 0,0 z"
             id="path2313"
             style="opacity:0.28235294;fill:none;stroke:#ffffff;stroke-width:1.0000006;stroke-linecap:butt;stroke-linejoin:miter;stroke-miterlimit:4;stroke-opacity:1;stroke-dasharray:none;display:inline" />
        </g>
        <g
           id="g10295">
          <path
             d="m 24.549577,34.633026 1.666322,-4.180309 c 0,0 1.199535,0.24536 1.932177,0.975089 0.732642,0.729729 0.998391,1.943828 0.998391,1.943828 l -4.59689,1.261392 z"
             id="path2298"
             style="fill:url(#linearGradient7868);fill-opacity:1;fill-rule:evenodd;stroke:none" />
          <path
             d="m 23,21.5 -5.5,1.5 2,-5"
             transform="translate(6.39225,12.18459)"
             id="path5446"
             style="fill:none;stroke:#e9b96e;stroke-width:1;stroke-linecap:round;stroke-linejoin:round;stroke-miterlimit:4;stroke-opacity:1;stroke-dasharray:none" />
          <path
             d="m 23.95475,33.68459 -0.90625,2.25 2.34375,-0.65625 c 0.002,-0.03184 0,-0.06141 0,-0.09375 0,-0.802125 -0.645308,-1.459801 -1.4375,-1.5 z"
             id="path2283"
             style="fill:#000000;fill-opacity:1;fill-rule:evenodd;stroke:none;display:inline" />
        </g>
      </g>
    </g>
    <path
       d="m 42.821682,13.147263 c 1.834152,-0.500531 3.885052,1.651475 3.449911,3.449919 L 48.46699,14.40178 c 1.066511,-2.466563 -1.132252,-4.4097129 -3.494714,-3.494723 l -2.150594,2.240206 0,0 z"
       id="path4113-1"
       style="fill:url(#radialGradient7870);fill-opacity:1;fill-rule:nonzero;stroke:#ef2929;stroke-width:0.99999994;marker:none;visibility:visible;display:inline;overflow:visible;enable-background:new" />
    <path
       d="m 40.561976,15.25084 c 1.936448,-0.528484 4.101732,1.743706 3.642321,3.642586 l 2.317841,-2.31801 c 0.754457,-1.595776 -2.044633,-4.337495 -3.689625,-3.689891 l -2.270537,2.365315 0,0 z"
       id="path4095-8"
       style="fill:url(#linearGradient17282);fill-opacity:1;fill-rule:nonzero;stroke:#888a85;stroke-width:1;marker:none;visibility:visible;display:inline;overflow:visible;enable-background:new" />
  </g>
</svg>
