<?xml version="1.0" encoding="UTF-8" standalone="no"?>
<!DOCTYPE svg PUBLIC "-//W3C//DTD SVG 1.1//EN" "http://www.w3.org/Graphics/SVG/1.1/DTD/svg11.dtd">
<svg version="1.1" xmlns="http://www.w3.org/2000/svg" xmlns:xlink="http://www.w3.org/1999/xlink" preserveAspectRatio="xMidYMid meet" viewBox="0 0 640 640" width="640" height="640"><defs><path d="M480.03 7.84L481.73 8.48L483.47 9.06L485.26 9.61L487.1 10.13L488.99 10.62L490.93 11.09L492.93 11.54L494.97 12L497.07 12.45L499.22 12.92L501.42 13.4L503.67 13.91L505.98 14.44L508.33 15.02L510.74 15.64L513.21 16.31L515.72 17.04L518.29 17.84L520.92 18.71L523.6 19.67L526.33 20.7L529.12 21.84L531.96 23.08L534.86 24.42L537.81 25.88L540.81 27.47L543.88 29.18L547 31.04L550.17 33.03L553.4 35.18L556.69 37.49L560.04 39.96L563.44 42.61L566.9 45.44L570.41 48.45L573.99 51.66L577.62 55.07L581.31 58.69L584.95 62.42L588.41 66.17L591.71 69.92L594.84 73.68L597.82 77.44L600.64 81.18L603.3 84.92L605.82 88.63L608.2 92.31L610.43 95.97L612.54 99.59L614.51 103.16L616.35 106.69L618.08 110.17L619.68 113.58L621.17 116.93L622.55 120.21L623.83 123.41L625 126.53L626.08 129.57L627.06 132.51L627.96 135.35L628.77 138.09L629.5 140.72L630.15 143.23L630.73 145.62L631.24 147.88L631.69 150.01L632.08 152L632.41 153.85L632.7 155.55L632.93 157.1L633.12 158.48L633.27 159.7L633.39 160.75L633.48 161.61L633.54 162.3L633.57 162.8L633.59 163.1L633.6 163.2L236.35 560.45L6.4 633.6L79.55 403.65L476.8 6.4L478.39 7.15L480.03 7.84ZM118.78 560.45L210.24 531.71L210.24 529.09L210.23 529.03L210.2 528.88L210.14 528.61L210.06 528.25L209.95 527.79L209.81 527.24L209.63 526.59L209.42 525.85L209.18 525.02L208.89 524.11L208.56 523.11L208.19 522.03L207.77 520.88L207.3 519.65L206.79 518.34L206.22 516.97L205.59 515.52L204.91 514.01L204.17 512.44L203.37 510.8L202.5 509.11L201.57 507.35L200.57 505.55L199.5 503.69L198.36 501.79L197.14 499.84L195.84 497.84L194.47 495.8L193.01 493.73L191.48 491.61L189.85 489.46L188.14 487.28L186.34 485.07L184.44 482.84L182.45 480.58L180.36 478.3L178.18 475.99L175.89 473.67L173.5 471.34L171.01 468.99L168.66 466.68L166.31 464.46L163.97 462.33L161.63 460.27L159.31 458.3L157 456.41L154.71 454.6L152.44 452.87L150.2 451.21L147.98 449.63L145.79 448.12L143.63 446.69L141.51 445.32L139.42 444.03L137.38 442.8L135.38 441.63L133.43 440.54L131.53 439.5L129.68 438.53L127.89 437.62L126.15 436.76L124.48 435.97L122.87 435.22L121.33 434.54L119.86 433.9L118.47 433.32L117.15 432.79L115.91 432.31L114.75 431.87L113.68 431.48L112.69 431.13L111.8 430.83L111 430.57L110.3 430.34L109.7 430.16L109.2 430.01L108.8 429.9L108.52 429.82L108.35 429.78L108.29 429.76L79.55 521.22L118.78 560.45Z" id="d2x7Ftpa6"></path></defs><g><g><g><use xlink:href="#d2x7Ftpa6" opacity="1" fill="#ffb7b7" fill-opacity="1"></use><g><use xlink:href="#d2x7Ftpa6" opacity="1" fill-opacity="0" stroke="#000000" stroke-width="1" stroke-opacity="0"></use></g></g></g></g></svg>