<?xml version="1.0" encoding="UTF-8" standalone="no"?>
<!-- Created with Inkscape (http://www.inkscape.org/) -->

<svg
   xmlns:dc="http://purl.org/dc/elements/1.1/"
   xmlns:cc="http://creativecommons.org/ns#"
   xmlns:rdf="http://www.w3.org/1999/02/22-rdf-syntax-ns#"
   xmlns:svg="http://www.w3.org/2000/svg"
   xmlns="http://www.w3.org/2000/svg"
   xmlns:xlink="http://www.w3.org/1999/xlink"
   version="1.1"
   width="16"
   height="16"
   id="svg249">
  <defs
     id="defs3">
    <linearGradient
       x1="-26.753757"
       y1="11.566258"
       x2="-24.75"
       y2="9.687501"
       id="linearGradient5816"
       xlink:href="#linearGradient3656"
       gradientUnits="userSpaceOnUse" />
    <linearGradient
       x1="-18.588562"
       y1="11.052948"
       x2="-28.789402"
       y2="14.069944"
       id="linearGradient5836"
       xlink:href="#linearGradient3520"
       gradientUnits="userSpaceOnUse"
       gradientTransform="matrix(0.9223058,0,0,0.9185751,-92.447368,61.3257)" />
    <radialGradient
       cx="-26.305403"
       cy="10.108011"
       r="7.0421038"
       fx="-26.305403"
       fy="10.108011"
       id="radialGradient5839"
       xlink:href="#linearGradient3671"
       gradientUnits="userSpaceOnUse"
       gradientTransform="matrix(0.4073362,-0.2798276,0.7510293,1.0932492,-115.18484,51.56213)" />
    <linearGradient
       id="linearGradient6469">
      <stop
         id="stop6471"
         style="stop-color:#000000;stop-opacity:1"
         offset="0" />
      <stop
         id="stop6473"
         style="stop-color:#000000;stop-opacity:0"
         offset="1" />
    </linearGradient>
    <linearGradient
       x1="58.282169"
       y1="70.751839"
       x2="61.181217"
       y2="67.799171"
       id="linearGradient6475"
       xlink:href="#linearGradient6469"
       gradientUnits="userSpaceOnUse"
       gradientTransform="translate(-180,0)" />
    <radialGradient
       cx="4"
       cy="5.2999997"
       r="17"
       fx="4"
       fy="5.2999997"
       id="radialGradient5810"
       xlink:href="#linearGradient3741"
       gradientUnits="userSpaceOnUse"
       gradientTransform="matrix(1.8860258,0,0,1.1764706,-3.5441033,-4.2352941)" />
    <linearGradient
       x1="-47.5"
       y1="49.020683"
       x2="-62.75"
       y2="-22.502075"
       id="linearGradient5845"
       xlink:href="#linearGradient3613"
       gradientUnits="userSpaceOnUse"
       gradientTransform="translate(-90,60)" />
    <radialGradient
       cx="-30.249996"
       cy="35.357208"
       r="18.000002"
       fx="-30.249996"
       fy="35.357208"
       id="radialGradient5843"
       xlink:href="#linearGradient3683"
       gradientUnits="userSpaceOnUse"
       gradientTransform="matrix(3.9957492,0,0,1.9350367,0.62141,28.832578)" />
    <linearGradient
       x1="25.058096"
       y1="47.027729"
       x2="25.058096"
       y2="39.999443"
       id="linearGradient5804"
       xlink:href="#linearGradient3702"
       gradientUnits="userSpaceOnUse" />
    <radialGradient
       cx="4.9929786"
       cy="43.5"
       r="2.5"
       fx="4.9929786"
       fy="43.5"
       id="radialGradient5802"
       xlink:href="#linearGradient3688"
       gradientUnits="userSpaceOnUse"
       gradientTransform="matrix(2.003784,0,0,1.4,-20.01187,-104.4)" />
    <radialGradient
       cx="4.9929786"
       cy="43.5"
       r="2.5"
       fx="4.9929786"
       fy="43.5"
       id="radialGradient5800"
       xlink:href="#linearGradient3688"
       gradientUnits="userSpaceOnUse"
       gradientTransform="matrix(2.003784,0,0,1.4,27.98813,-17.4)" />
    <linearGradient
       x1="25.058096"
       y1="47.027729"
       x2="25.058096"
       y2="39.999443"
       id="linearGradient5798"
       xlink:href="#linearGradient3702"
       gradientUnits="userSpaceOnUse" />
    <radialGradient
       cx="4.9929786"
       cy="43.5"
       r="2.5"
       fx="4.9929786"
       fy="43.5"
       id="radialGradient5796"
       xlink:href="#linearGradient3688"
       gradientUnits="userSpaceOnUse"
       gradientTransform="matrix(2.003784,0,0,1.4,-20.01187,-104.4)" />
    <radialGradient
       cx="4.9929786"
       cy="43.5"
       r="2.5"
       fx="4.9929786"
       fy="43.5"
       id="radialGradient5794"
       xlink:href="#linearGradient3688"
       gradientUnits="userSpaceOnUse"
       gradientTransform="matrix(2.003784,0,0,1.4,27.98813,-17.4)" />
    <linearGradient
       id="linearGradient3656">
      <stop
         id="stop3658"
         style="stop-color:#ffffff;stop-opacity:1"
         offset="0" />
      <stop
         id="stop3660"
         style="stop-color:#ffffff;stop-opacity:0"
         offset="1" />
    </linearGradient>
    <linearGradient
       id="linearGradient3520">
      <stop
         id="stop3522"
         style="stop-color:#000000;stop-opacity:0.41295546"
         offset="0" />
      <stop
         id="stop3524"
         style="stop-color:#000000;stop-opacity:0"
         offset="1" />
    </linearGradient>
    <linearGradient
       id="linearGradient3671">
      <stop
         id="stop3673"
         style="stop-color:#ffffff;stop-opacity:1"
         offset="0" />
      <stop
         id="stop3691"
         style="stop-color:#ffffff;stop-opacity:1"
         offset="0.47533694" />
      <stop
         id="stop3675"
         style="stop-color:#ffffff;stop-opacity:0"
         offset="1" />
    </linearGradient>
    <linearGradient
       id="linearGradient3741">
      <stop
         id="stop3743"
         style="stop-color:#ffffff;stop-opacity:1"
         offset="0" />
      <stop
         id="stop3745"
         style="stop-color:#ffffff;stop-opacity:0"
         offset="1" />
    </linearGradient>
    <linearGradient
       id="linearGradient3613">
      <stop
         id="stop3615"
         style="stop-color:#888a85;stop-opacity:1"
         offset="0" />
      <stop
         id="stop3617"
         style="stop-color:#babdb6;stop-opacity:1"
         offset="1" />
    </linearGradient>
    <linearGradient
       id="linearGradient3683">
      <stop
         id="stop3685"
         style="stop-color:#f6f6f5;stop-opacity:1"
         offset="0" />
      <stop
         id="stop3689"
         style="stop-color:#d3d7cf;stop-opacity:1"
         offset="1" />
    </linearGradient>
    <linearGradient
       id="linearGradient3688">
      <stop
         id="stop3690"
         style="stop-color:#000000;stop-opacity:1"
         offset="0" />
      <stop
         id="stop3692"
         style="stop-color:#000000;stop-opacity:0"
         offset="1" />
    </linearGradient>
    <linearGradient
       id="linearGradient3702">
      <stop
         id="stop3704"
         style="stop-color:#000000;stop-opacity:0"
         offset="0" />
      <stop
         id="stop3710"
         style="stop-color:#000000;stop-opacity:1"
         offset="0.5" />
      <stop
         id="stop3706"
         style="stop-color:#000000;stop-opacity:0"
         offset="1" />
    </linearGradient>
  </defs>
  <metadata
     id="metadata4">
    <rdf:RDF>
      <cc:Work
         rdf:about="">
        <dc:format>image/svg+xml</dc:format>
        <dc:type
           rdf:resource="http://purl.org/dc/dcmitype/StillImage" />
        <dc:title></dc:title>
        <dc:subject>
          <rdf:Bag>
            <rdf:li>text</rdf:li>
            <rdf:li>plaintext</rdf:li>
            <rdf:li>regular</rdf:li>
            <rdf:li>document</rdf:li>
          </rdf:Bag>
        </dc:subject>
        <cc:license
           rdf:resource="http://creativecommons.org/licenses/GPL/2.0/" />
        <dc:creator>
          <cc:Agent>
            <dc:title>Lapo Calamandrei</dc:title>
          </cc:Agent>
        </dc:creator>
        <dc:source />
        <dc:date />
        <dc:rights>
          <cc:Agent>
            <dc:title />
          </cc:Agent>
        </dc:rights>
        <dc:publisher>
          <cc:Agent>
            <dc:title />
          </cc:Agent>
        </dc:publisher>
        <dc:identifier />
        <dc:relation />
        <dc:language />
        <dc:coverage />
        <dc:description />
        <dc:contributor>
          <cc:Agent>
            <dc:title />
          </cc:Agent>
        </dc:contributor>
      </cc:Work>
      <cc:License
         rdf:about="http://creativecommons.org/licenses/GPL/2.0/">
        <cc:permits
           rdf:resource="http://web.resource.org/cc/Reproduction" />
        <cc:permits
           rdf:resource="http://web.resource.org/cc/Distribution" />
        <cc:requires
           rdf:resource="http://web.resource.org/cc/Notice" />
        <cc:permits
           rdf:resource="http://web.resource.org/cc/DerivativeWorks" />
        <cc:requires
           rdf:resource="http://web.resource.org/cc/ShareAlike" />
        <cc:requires
           rdf:resource="http://web.resource.org/cc/SourceCode" />
      </cc:License>
    </rdf:RDF>
  </metadata>
  <g
     transform="translate(0,-32)"
     id="layer6">
    <g
       transform="matrix(0.33072917,0,0,0.33072917,49.609375,12.28125)"
       id="g6015"
       style="display:inline">
      <rect
         width="48"
         height="48"
         x="-150"
         y="60"
         id="rect5504"
         style="opacity:0;fill:#000000;fill-opacity:1;stroke:none;display:inline" />
      <g
         transform="matrix(1.0464281,0,0,0.8888889,-151.18572,65.72224)"
         id="g5508"
         style="opacity:0.65587045;display:inline">
        <g
           transform="matrix(1.052632,0,0,1.285713,-1.263158,-13.42854)"
           id="g5511"
           style="opacity:0.4">
          <rect
             width="5"
             height="7"
             x="38"
             y="40"
             id="rect5513"
             style="fill:url(#radialGradient5794);fill-opacity:1;stroke:none" />
          <rect
             width="5"
             height="7"
             x="-10"
             y="-47"
             transform="scale(-1,-1)"
             id="rect5515"
             style="fill:url(#radialGradient5796);fill-opacity:1;stroke:none" />
          <rect
             width="28"
             height="7.0000005"
             x="10"
             y="40"
             id="rect5517"
             style="fill:url(#linearGradient5798);fill-opacity:1;stroke:none" />
        </g>
      </g>
      <g
         transform="matrix(0.9548466,0,0,0.5555562,-148.98776,79.888875)"
         id="g5519"
         style="display:inline">
        <g
           transform="matrix(1.052632,0,0,1.285713,-1.263158,-13.42854)"
           id="g5521"
           style="opacity:0.4">
          <rect
             width="5"
             height="7"
             x="38"
             y="40"
             id="rect5523"
             style="fill:url(#radialGradient5800);fill-opacity:1;stroke:none" />
          <rect
             width="5"
             height="7"
             x="-10"
             y="-47"
             transform="scale(-1,-1)"
             id="rect5525"
             style="fill:url(#radialGradient5802);fill-opacity:1;stroke:none" />
          <rect
             width="28"
             height="7.0000005"
             x="10"
             y="40"
             id="rect5527"
             style="fill:url(#linearGradient5804);fill-opacity:1;stroke:none" />
        </g>
      </g>
      <path
         d="m -141.47614,63.5 c 0,0 17.47614,0 18.97614,0 3.87705,0.07294 6.5,2.5 9,5 2.5,2.5 4.60768,5.252625 5,9 0,1.5 0,24.97614 0,24.97614 0,1.12122 -0.90264,2.02386 -2.02385,2.02386 l -30.95229,0 c -1.12122,0 -2.02386,-0.90264 -2.02386,-2.02386 l 0,-36.952282 c 0,-1.121217 0.90264,-2.023858 2.02386,-2.023858 z"
         id="path5529"
         style="fill:url(#radialGradient5843);fill-opacity:1;stroke:url(#linearGradient5845);stroke-width:1;stroke-miterlimit:4;display:inline" />
      <path
         d="M 8.53125,4 C 7.6730803,4 7,4.6730802 7,5.53125 l 0,36.9375 C 7,43.32692 7.6730802,44 8.53125,44 l 30.9375,0 C 40.326919,44 41,43.326918 41,42.46875 L 41,17.5 c 0,-1.39197 -0.486979,-4.299479 -2.34375,-6.15625 l -5,-5 C 31.799479,4.4869792 28.89197,4 27.5,4 L 8.53125,4 z"
         transform="translate(-150,60)"
         id="path5531"
         style="opacity:0.68016196;fill:url(#radialGradient5810);fill-opacity:1;stroke:none;display:inline" />
      <path
         d="m -138.59375,69.125 c -0.21868,0 -0.40625,0.187565 -0.40625,0.40625 0,0.218684 0.18757,0.406249 0.40625,0.40625 l 21.1875,0 c 0.21868,0 0.40625,-0.187566 0.40625,-0.40625 0,-0.218684 -0.18757,-0.40625 -0.40625,-0.40625 l -21.1875,0 z m 0.0625,1.9375 c -0.25969,0 -0.46875,0.209063 -0.46875,0.46875 0,0.259687 0.20906,0.46875 0.46875,0.46875 l 22.0625,0 c 0.25969,0 0.46875,-0.209063 0.46875,-0.46875 0,-0.259687 -0.20906,-0.46875 -0.46875,-0.46875 l -22.0625,0 z m 0,2 c -0.25969,0 -0.46875,0.209063 -0.46875,0.46875 0,0.259687 0.20906,0.46875 0.46875,0.46875 l 25.1875,0 c 0.25969,0 0.46875,-0.209063 0.46875,-0.46875 0,-0.259687 -0.20906,-0.46875 -0.46875,-0.46875 l -25.1875,0 z m 0,2 c -0.25969,0 -0.46875,0.209063 -0.46875,0.46875 0,0.259687 0.20906,0.46875 0.46875,0.46875 l 25.1875,0 c 0.25969,0 0.46875,-0.209063 0.46875,-0.46875 0,-0.259687 -0.20906,-0.46875 -0.46875,-0.46875 l -25.1875,0 z m 0,2 c -0.25969,0 -0.46875,0.209063 -0.46875,0.46875 0,0.259687 0.20906,0.46875 0.46875,0.46875 l 25.1875,0 c 0.25969,0 0.46875,-0.209063 0.46875,-0.46875 0,-0.259687 -0.20906,-0.46875 -0.46875,-0.46875 l -25.1875,0 z"
         id="rect5857"
         style="opacity:0.15;fill:url(#linearGradient6475);fill-opacity:1;fill-rule:evenodd;stroke:none;stroke-width:0.99999982px;marker:none;visibility:visible;display:inline;overflow:visible" />
      <path
         d="m -122.5,64 c -1.38889,0 -0.0421,0.497088 1.34375,1.125 1.38582,0.627912 4.97288,3.215052 4.15625,6.875 4.32331,-0.430583 6.67913,3.122378 7,4.28125 0.32087,1.158872 1,2.607639 1,1.21875 0.0283,-3.805581 -2.84543,-6.431701 -4.84375,-8.65625 C -115.84207,66.619201 -118.84621,64.476761 -122.5,64 z"
         id="path5533"
         style="fill:url(#radialGradient5839);fill-opacity:1;stroke:none;display:inline" />
      <path
         d="m -121.39912,65.014353 c 0.9223,0 3.00844,6.195662 2.08614,10.32925 4.29496,-0.427759 8.85338,0.08818 9.31298,0.937647 -0.32087,-1.158872 -2.67669,-4.711833 -7,-4.28125 0.86466,-3.875239 -3.18657,-6.617298 -4.39912,-6.985647 z"
         id="path5535"
         style="opacity:0.87854249;fill:url(#linearGradient5836);fill-opacity:1;stroke:none;display:inline" />
      <path
         d="M -51.46875,4.5 C -52.051916,4.5 -52.5,4.9480842 -52.5,5.53125 l 0,36.9375 c 0,0.583165 0.448086,1.03125 1.03125,1.03125 l 30.9375,0 c 0.583165,0 1.03125,-0.448086 1.03125,-1.03125 L -19.5,17.5 c 0,-1.279029 -0.480469,-4.105469 -2.1875,-5.8125 l -5,-5 C -28.394531,4.9804687 -31.220971,4.5 -32.5,4.5 l -18.96875,0 z"
         transform="translate(-90,60)"
         id="path5537"
         style="fill:none;stroke:url(#linearGradient5816);stroke-width:1;stroke-miterlimit:4;display:inline" />
      <g
         transform="matrix(0.928889,0,0,1,-148.28889,60)"
         id="g5539"
         style="opacity:0.15;fill:#000000;display:inline">
        <rect
           width="28.125"
           height="0.9375"
           rx="0.50463516"
           ry="0.46875"
           x="10"
           y="19.0625"
           id="rect5549"
           style="fill:#000000;fill-opacity:1;fill-rule:evenodd;stroke:none;stroke-width:0.99999982px;marker:none;visibility:visible;display:inline;overflow:visible" />
        <rect
           width="28.125"
           height="0.9375"
           rx="0.50463516"
           ry="0.46875"
           x="10"
           y="21.0625"
           id="rect5553"
           style="fill:#000000;fill-opacity:1;fill-rule:evenodd;stroke:none;stroke-width:0.99999982px;marker:none;visibility:visible;display:inline;overflow:visible" />
        <rect
           width="28.125"
           height="0.9375"
           rx="0.50463516"
           ry="0.46875"
           x="10"
           y="23.0625"
           id="rect5555"
           style="fill:#000000;fill-opacity:1;fill-rule:evenodd;stroke:none;stroke-width:0.99999982px;marker:none;visibility:visible;display:inline;overflow:visible" />
        <rect
           width="28.125"
           height="0.9375"
           rx="0.50463516"
           ry="0.46875"
           x="10"
           y="25.0625"
           id="rect5557"
           style="fill:#000000;fill-opacity:1;fill-rule:evenodd;stroke:none;stroke-width:0.99999982px;marker:none;visibility:visible;display:inline;overflow:visible" />
        <rect
           width="28.125"
           height="0.9375"
           rx="0.50463516"
           ry="0.46875"
           x="10"
           y="27.0625"
           id="rect5559"
           style="fill:#000000;fill-opacity:1;fill-rule:evenodd;stroke:none;stroke-width:0.99999982px;marker:none;visibility:visible;display:inline;overflow:visible" />
        <rect
           width="28.125"
           height="0.9375"
           rx="0.50463516"
           ry="0.46875"
           x="10"
           y="29.0625"
           id="rect5561"
           style="fill:#000000;fill-opacity:1;fill-rule:evenodd;stroke:none;stroke-width:0.99999982px;marker:none;visibility:visible;display:inline;overflow:visible" />
        <rect
           width="28.125"
           height="0.9375"
           rx="0.50463516"
           ry="0.46875"
           x="10"
           y="31.0625"
           id="rect5563"
           style="fill:#000000;fill-opacity:1;fill-rule:evenodd;stroke:none;stroke-width:0.99999982px;marker:none;visibility:visible;display:inline;overflow:visible" />
        <rect
           width="28.125"
           height="0.9375"
           rx="0.50463516"
           ry="0.46875"
           x="10"
           y="33.0625"
           id="rect5565"
           style="fill:#000000;fill-opacity:1;fill-rule:evenodd;stroke:none;stroke-width:0.99999982px;marker:none;visibility:visible;display:inline;overflow:visible" />
        <rect
           width="28.125"
           height="0.9375"
           rx="0.50463516"
           ry="0.46875"
           x="10"
           y="35.0625"
           id="rect5567"
           style="fill:#000000;fill-opacity:1;fill-rule:evenodd;stroke:none;stroke-width:0.99999982px;marker:none;visibility:visible;display:inline;overflow:visible" />
        <rect
           width="13.8125"
           height="0.9375"
           rx="0.50463516"
           ry="0.46875"
           x="10"
           y="37.0625"
           id="rect5569"
           style="fill:#000000;fill-opacity:1;fill-rule:evenodd;stroke:none;stroke-width:0.99999982px;marker:none;visibility:visible;display:inline;overflow:visible" />
      </g>
    </g>
  </g>
  <g
     transform="translate(0,-32)"
     id="layer1"
     style="display:inline" />
  <g
     transform="translate(0,-32)"
     id="layer5"
     style="display:inline" />
</svg>
