<?xml version="1.0" encoding="iso-8859-1"?>
<!-- Generator: Adobe Illustrator 19.0.0, SVG Export Plug-In . SVG Version: 6.00 Build 0)  -->
<svg xmlns="http://www.w3.org/2000/svg" xmlns:xlink="http://www.w3.org/1999/xlink" version="1.1" id="Layer_1" x="0px" y="0px" viewBox="0 0 512 512" style="enable-background:new 0 0 512 512;" xml:space="preserve">
<path style="fill:#C5D8DF;" d="M256,512c-42.881,0-77.767-34.886-77.767-77.767c0-9.22,7.475-16.696,16.696-16.696h122.143  c9.22,0,16.696,7.475,16.696,16.696C333.767,477.114,298.881,512,256,512z"/>
<path style="fill:#9CC2D0;" d="M317.072,417.537H256V512c42.881,0,77.767-34.886,77.767-77.767  C333.767,425.012,326.292,417.537,317.072,417.537z"/>
<path style="fill:#FFE365;" d="M342.111,378.496H169.889c-9.22,0-16.696-7.475-16.696-16.696v-52.61  c-43.294-32.375-68.882-83.122-68.882-137.502C84.312,77.018,161.33,0,256,0s171.688,77.018,171.688,171.688  c0,54.38-25.587,105.127-68.882,137.502v52.61C358.806,371.021,351.331,378.496,342.111,378.496z"/>
<g>
	<path style="fill:#FFC733;" d="M256,0v378.496h86.111c9.22,0,16.696-7.475,16.696-16.696v-52.61   c43.294-32.375,68.882-83.122,68.882-137.502C427.688,77.018,350.67,0,256,0z"/>
	<path style="fill:#FFC733;" d="M305.486,218.75c-7.987-4.614-18.197-1.874-22.806,6.111L256,271.071l-26.68-46.21   c-4.61-7.986-14.82-10.724-22.806-6.111c-7.985,4.61-10.721,14.82-6.111,22.806l38.901,67.379V361.8   c0,9.22,7.475,16.696,16.696,16.696s16.696-7.475,16.696-16.696v-52.865l38.901-67.379   C316.207,233.571,313.471,223.36,305.486,218.75z"/>
</g>
<path style="fill:#FFAF00;" d="M305.486,218.75c-7.987-4.614-18.197-1.874-22.806,6.111L256,271.071v107.425  c9.22,0,16.696-7.475,16.696-16.696v-52.865l38.901-67.379C316.207,233.571,313.471,223.36,305.486,218.75z"/>
<path style="fill:#EFEFEF;" d="M342.111,450.928H169.889c-9.22,0-16.696-7.475-16.696-16.696v-89.128h205.613v89.128  C358.806,443.453,351.332,450.928,342.111,450.928z"/>
<path style="fill:#C5D8DF;" d="M256,345.105v105.824h86.111c9.22,0,16.696-7.475,16.696-16.696v-89.128H256z"/>
<g>
</g>
<g>
</g>
<g>
</g>
<g>
</g>
<g>
</g>
<g>
</g>
<g>
</g>
<g>
</g>
<g>
</g>
<g>
</g>
<g>
</g>
<g>
</g>
<g>
</g>
<g>
</g>
<g>
</g>
</svg>
