<?xml version="1.0" encoding="UTF-8" standalone="no"?>
<!-- Created with Inkscape (http://www.inkscape.org/) -->

<svg
   xmlns:dc="http://purl.org/dc/elements/1.1/"
   xmlns:cc="http://creativecommons.org/ns#"
   xmlns:rdf="http://www.w3.org/1999/02/22-rdf-syntax-ns#"
   xmlns:svg="http://www.w3.org/2000/svg"
   xmlns="http://www.w3.org/2000/svg"
   xmlns:xlink="http://www.w3.org/1999/xlink"
   version="1.1"
   width="16"
   height="16"
   id="svg249">
  <defs
     id="defs3">
    <linearGradient
       x1="-26.753757"
       y1="11.566258"
       x2="-24.75"
       y2="9.687501"
       id="linearGradient5816"
       xlink:href="#linearGradient3656"
       gradientUnits="userSpaceOnUse" />
    <linearGradient
       x1="-18.588562"
       y1="11.052948"
       x2="-28.789402"
       y2="14.069944"
       id="linearGradient5836"
       xlink:href="#linearGradient3520"
       gradientUnits="userSpaceOnUse"
       gradientTransform="matrix(0.9223058,0,0,0.9185751,-92.447368,61.3257)" />
    <radialGradient
       cx="-26.305403"
       cy="10.108011"
       r="7.0421038"
       fx="-26.305403"
       fy="10.108011"
       id="radialGradient5839"
       xlink:href="#linearGradient3671"
       gradientUnits="userSpaceOnUse"
       gradientTransform="matrix(0.4073362,-0.2798276,0.7510293,1.0932492,-115.18484,51.56213)" />
    <linearGradient
       id="linearGradient6469">
      <stop
         id="stop6471"
         style="stop-color:#000000;stop-opacity:1"
         offset="0" />
      <stop
         id="stop6473"
         style="stop-color:#000000;stop-opacity:0"
         offset="1" />
    </linearGradient>
    <linearGradient
       x1="58.282169"
       y1="70.751839"
       x2="61.181217"
       y2="67.799171"
       id="linearGradient6475"
       xlink:href="#linearGradient6469"
       gradientUnits="userSpaceOnUse"
       gradientTransform="translate(-180,0)" />
    <radialGradient
       cx="4"
       cy="5.2999997"
       r="17"
       fx="4"
       fy="5.2999997"
       id="radialGradient5810"
       xlink:href="#linearGradient3741"
       gradientUnits="userSpaceOnUse"
       gradientTransform="matrix(1.8860258,0,0,1.1764706,-3.5441033,-4.2352941)" />
    <linearGradient
       x1="-47.5"
       y1="49.020683"
       x2="-62.75"
       y2="-22.502075"
       id="linearGradient5845"
       xlink:href="#linearGradient3613"
       gradientUnits="userSpaceOnUse"
       gradientTransform="translate(-90,60)" />
    <radialGradient
       cx="-30.249996"
       cy="35.357208"
       r="18.000002"
       fx="-30.249996"
       fy="35.357208"
       id="radialGradient5843"
       xlink:href="#linearGradient3683"
       gradientUnits="userSpaceOnUse"
       gradientTransform="matrix(3.9957492,0,0,1.9350367,0.62141,28.832578)" />
    <linearGradient
       x1="25.058096"
       y1="47.027729"
       x2="25.058096"
       y2="39.999443"
       id="linearGradient5804"
       xlink:href="#linearGradient3702"
       gradientUnits="userSpaceOnUse" />
    <radialGradient
       cx="4.9929786"
       cy="43.5"
       r="2.5"
       fx="4.9929786"
       fy="43.5"
       id="radialGradient5802"
       xlink:href="#linearGradient3688"
       gradientUnits="userSpaceOnUse"
       gradientTransform="matrix(2.003784,0,0,1.4,-20.01187,-104.4)" />
    <radialGradient
       cx="4.9929786"
       cy="43.5"
       r="2.5"
       fx="4.9929786"
       fy="43.5"
       id="radialGradient5800"
       xlink:href="#linearGradient3688"
       gradientUnits="userSpaceOnUse"
       gradientTransform="matrix(2.003784,0,0,1.4,27.98813,-17.4)" />
    <linearGradient
       x1="25.058096"
       y1="47.027729"
       x2="25.058096"
       y2="39.999443"
       id="linearGradient5798"
       xlink:href="#linearGradient3702"
       gradientUnits="userSpaceOnUse" />
    <radialGradient
       cx="4.9929786"
       cy="43.5"
       r="2.5"
       fx="4.9929786"
       fy="43.5"
       id="radialGradient5796"
       xlink:href="#linearGradient3688"
       gradientUnits="userSpaceOnUse"
       gradientTransform="matrix(2.003784,0,0,1.4,-20.01187,-104.4)" />
    <radialGradient
       cx="4.9929786"
       cy="43.5"
       r="2.5"
       fx="4.9929786"
       fy="43.5"
       id="radialGradient5794"
       xlink:href="#linearGradient3688"
       gradientUnits="userSpaceOnUse"
       gradientTransform="matrix(2.003784,0,0,1.4,27.98813,-17.4)" />
    <linearGradient
       id="linearGradient3656">
      <stop
         id="stop3658"
         style="stop-color:#ffffff;stop-opacity:1"
         offset="0" />
      <stop
         id="stop3660"
         style="stop-color:#ffffff;stop-opacity:0"
         offset="1" />
    </linearGradient>
    <linearGradient
       id="linearGradient3520">
      <stop
         id="stop3522"
         style="stop-color:#000000;stop-opacity:0.41295546"
         offset="0" />
      <stop
         id="stop3524"
         style="stop-color:#000000;stop-opacity:0"
         offset="1" />
    </linearGradient>
    <linearGradient
       id="linearGradient3671">
      <stop
         id="stop3673"
         style="stop-color:#ffffff;stop-opacity:1"
         offset="0" />
      <stop
         id="stop3691"
         style="stop-color:#ffffff;stop-opacity:1"
         offset="0.47533694" />
      <stop
         id="stop3675"
         style="stop-color:#ffffff;stop-opacity:0"
         offset="1" />
    </linearGradient>
    <linearGradient
       id="linearGradient3741">
      <stop
         id="stop3743"
         style="stop-color:#ffffff;stop-opacity:1"
         offset="0" />
      <stop
         id="stop3745"
         style="stop-color:#ffffff;stop-opacity:0"
         offset="1" />
    </linearGradient>
    <linearGradient
       id="linearGradient3613">
      <stop
         id="stop3615"
         style="stop-color:#888a85;stop-opacity:1"
         offset="0" />
      <stop
         id="stop3617"
         style="stop-color:#babdb6;stop-opacity:1"
         offset="1" />
    </linearGradient>
    <linearGradient
       id="linearGradient3683">
      <stop
         id="stop3685"
         style="stop-color:#f6f6f5;stop-opacity:1"
         offset="0" />
      <stop
         id="stop3689"
         style="stop-color:#d3d7cf;stop-opacity:1"
         offset="1" />
    </linearGradient>
    <linearGradient
       id="linearGradient3688">
      <stop
         id="stop3690"
         style="stop-color:#000000;stop-opacity:1"
         offset="0" />
      <stop
         id="stop3692"
         style="stop-color:#000000;stop-opacity:0"
         offset="1" />
    </linearGradient>
    <linearGradient
       id="linearGradient3702">
      <stop
         id="stop3704"
         style="stop-color:#000000;stop-opacity:0"
         offset="0" />
      <stop
         id="stop3710"
         style="stop-color:#000000;stop-opacity:1"
         offset="0.5" />
      <stop
         id="stop3706"
         style="stop-color:#000000;stop-opacity:0"
         offset="1" />
    </linearGradient>
    <radialGradient
       cx="37.375"
       cy="33.1875"
       r="14.625"
       fx="37.375"
       fy="33.1875"
       id="radialGradient7860"
       xlink:href="#linearGradient4333"
       gradientUnits="userSpaceOnUse"
       gradientTransform="matrix(1,0,0,0.226496,0,25.67067)" />
    <linearGradient
       id="linearGradient4333">
      <stop
         id="stop4335"
         style="stop-color:#000000;stop-opacity:1"
         offset="0" />
      <stop
         id="stop4337"
         style="stop-color:#000000;stop-opacity:0"
         offset="1" />
    </linearGradient>
    <linearGradient
       x1="18.1875"
       y1="18.53828"
       x2="32.9375"
       y2="18.392296"
       id="linearGradient7862"
       xlink:href="#linearGradient1813"
       gradientUnits="userSpaceOnUse"
       gradientTransform="matrix(1,0,0,0.415008,6.5485,26.7669)" />
    <linearGradient
       id="linearGradient1813">
      <stop
         id="stop1815"
         style="stop-color:#000000;stop-opacity:1"
         offset="0" />
      <stop
         id="stop1817"
         style="stop-color:#000000;stop-opacity:0"
         offset="1" />
    </linearGradient>
    <linearGradient
       x1="28.078697"
       y1="12.338078"
       x2="30.432114"
       y2="14.691495"
       id="linearGradient7864"
       xlink:href="#linearGradient6445"
       gradientUnits="userSpaceOnUse"
       gradientTransform="translate(6.39225,12.18459)" />
    <linearGradient
       id="linearGradient6445">
      <stop
         id="stop6447"
         style="stop-color:#fcaf3e;stop-opacity:1"
         offset="0" />
      <stop
         id="stop6449"
         style="stop-color:#ce5c00;stop-opacity:1"
         offset="1" />
    </linearGradient>
    <linearGradient
       x1="23.447809"
       y1="21.481258"
       x2="22.810215"
       y2="22.118853"
       id="linearGradient7866"
       xlink:href="#linearGradient2301"
       gradientUnits="userSpaceOnUse"
       gradientTransform="translate(6.39225,12.18459)" />
    <linearGradient
       id="linearGradient2301">
      <stop
         id="stop2303"
         style="stop-color:#ce5c00;stop-opacity:1"
         offset="0" />
      <stop
         id="stop2305"
         style="stop-color:#ce5c00;stop-opacity:1"
         offset="1" />
    </linearGradient>
    <linearGradient
       x1="26.379272"
       y1="34.389839"
       x2="25.485056"
       y2="32.714375"
       id="linearGradient7868"
       xlink:href="#linearGradient6437"
       gradientUnits="userSpaceOnUse" />
    <linearGradient
       id="linearGradient6437">
      <stop
         id="stop6439"
         style="stop-color:#e9b96e;stop-opacity:1"
         offset="0" />
      <stop
         id="stop6441"
         style="stop-color:#ffffff;stop-opacity:1"
         offset="1" />
    </linearGradient>
    <radialGradient
       cx="-138.83727"
       cy="128.00087"
       r="9.1267023"
       fx="-138.83727"
       fy="128.00087"
       id="radialGradient7870"
       xlink:href="#linearGradient4117-1-0"
       gradientUnits="userSpaceOnUse"
       gradientTransform="matrix(0.320394,-0.3203948,0.322414,0.3224148,50.518433,-74.157887)" />
    <linearGradient
       id="linearGradient4117-1-0">
      <stop
         id="stop4121-0-5"
         style="stop-color:#f9a9a9;stop-opacity:1"
         offset="0" />
      <stop
         id="stop4119-1-6"
         style="stop-color:#ab5f5f;stop-opacity:1"
         offset="1" />
    </linearGradient>
    <linearGradient
       x1="-158.75"
       y1="115.93846"
       x2="-158.75"
       y2="134.25"
       id="linearGradient7872"
       xlink:href="#linearGradient4099-6-7"
       gradientUnits="userSpaceOnUse"
       gradientTransform="matrix(0.1892115,-0.1892253,0.1892115,0.1892253,49.738733,-37.732231)" />
    <linearGradient
       id="linearGradient4099-6-7">
      <stop
         id="stop4101-1-8"
         style="stop-color:#dddddd;stop-opacity:1"
         offset="0" />
      <stop
         id="stop4107-2-2"
         style="stop-color:#ffffff;stop-opacity:1"
         offset="0.34467545" />
      <stop
         id="stop4109-5-7"
         style="stop-color:#737373;stop-opacity:1"
         offset="0.72694808" />
      <stop
         id="stop4103-9-2"
         style="stop-color:#bbbbbb;stop-opacity:1"
         offset="1" />
    </linearGradient>
    <linearGradient
       x1="-158.75"
       y1="115.93846"
       x2="-158.75"
       y2="134.25"
       id="linearGradient10952"
       xlink:href="#linearGradient4099-6-7"
       gradientUnits="userSpaceOnUse"
       gradientTransform="matrix(0.1892115,-0.1892253,0.1892115,0.1892253,49.738733,-37.732231)" />
  </defs>
  <metadata
     id="metadata4">
    <rdf:RDF>
      <cc:Work
         rdf:about="">
        <dc:format>image/svg+xml</dc:format>
        <dc:type
           rdf:resource="http://purl.org/dc/dcmitype/StillImage" />
        <dc:title></dc:title>
        <dc:subject>
          <rdf:Bag>
            <rdf:li>text</rdf:li>
            <rdf:li>plaintext</rdf:li>
            <rdf:li>regular</rdf:li>
            <rdf:li>document</rdf:li>
          </rdf:Bag>
        </dc:subject>
        <cc:license
           rdf:resource="http://creativecommons.org/licenses/GPL/2.0/" />
        <dc:creator>
          <cc:Agent>
            <dc:title>Lapo Calamandrei</dc:title>
          </cc:Agent>
        </dc:creator>
        <dc:source />
        <dc:date />
        <dc:rights>
          <cc:Agent>
            <dc:title />
          </cc:Agent>
        </dc:rights>
        <dc:publisher>
          <cc:Agent>
            <dc:title />
          </cc:Agent>
        </dc:publisher>
        <dc:identifier />
        <dc:relation />
        <dc:language />
        <dc:coverage />
        <dc:description />
        <dc:contributor>
          <cc:Agent>
            <dc:title />
          </cc:Agent>
        </dc:contributor>
      </cc:Work>
      <cc:License
         rdf:about="http://creativecommons.org/licenses/GPL/2.0/">
        <cc:permits
           rdf:resource="http://web.resource.org/cc/Reproduction" />
        <cc:permits
           rdf:resource="http://web.resource.org/cc/Distribution" />
        <cc:requires
           rdf:resource="http://web.resource.org/cc/Notice" />
        <cc:permits
           rdf:resource="http://web.resource.org/cc/DerivativeWorks" />
        <cc:requires
           rdf:resource="http://web.resource.org/cc/ShareAlike" />
        <cc:requires
           rdf:resource="http://web.resource.org/cc/SourceCode" />
      </cc:License>
    </rdf:RDF>
  </metadata>
  <g
     transform="translate(0,-32)"
     id="layer6">
    <g
       transform="matrix(0.33072917,0,0,0.33072917,49.609375,12.28125)"
       id="g6015"
       style="display:inline">
      <rect
         width="48"
         height="48"
         x="-150"
         y="60"
         id="rect5504"
         style="opacity:0;fill:#000000;fill-opacity:1;stroke:none;display:inline" />
      <g
         transform="matrix(1.0464281,0,0,0.8888889,-151.18572,65.72224)"
         id="g5508"
         style="opacity:0.65587045;display:inline">
        <g
           transform="matrix(1.052632,0,0,1.285713,-1.263158,-13.42854)"
           id="g5511"
           style="opacity:0.4">
          <rect
             width="5"
             height="7"
             x="38"
             y="40"
             id="rect5513"
             style="fill:url(#radialGradient5794);fill-opacity:1;stroke:none" />
          <rect
             width="5"
             height="7"
             x="-10"
             y="-47"
             transform="scale(-1,-1)"
             id="rect5515"
             style="fill:url(#radialGradient5796);fill-opacity:1;stroke:none" />
          <rect
             width="28"
             height="7.0000005"
             x="10"
             y="40"
             id="rect5517"
             style="fill:url(#linearGradient5798);fill-opacity:1;stroke:none" />
        </g>
      </g>
      <g
         transform="matrix(0.9548466,0,0,0.5555562,-148.98776,79.888875)"
         id="g5519"
         style="display:inline">
        <g
           transform="matrix(1.052632,0,0,1.285713,-1.263158,-13.42854)"
           id="g5521"
           style="opacity:0.4">
          <rect
             width="5"
             height="7"
             x="38"
             y="40"
             id="rect5523"
             style="fill:url(#radialGradient5800);fill-opacity:1;stroke:none" />
          <rect
             width="5"
             height="7"
             x="-10"
             y="-47"
             transform="scale(-1,-1)"
             id="rect5525"
             style="fill:url(#radialGradient5802);fill-opacity:1;stroke:none" />
          <rect
             width="28"
             height="7.0000005"
             x="10"
             y="40"
             id="rect5527"
             style="fill:url(#linearGradient5804);fill-opacity:1;stroke:none" />
        </g>
      </g>
      <path
         d="m -141.47614,63.5 c 0,0 17.47614,0 18.97614,0 3.87705,0.07294 6.5,2.5 9,5 2.5,2.5 4.60768,5.252625 5,9 0,1.5 0,24.97614 0,24.97614 0,1.12122 -0.90264,2.02386 -2.02385,2.02386 l -30.95229,0 c -1.12122,0 -2.02386,-0.90264 -2.02386,-2.02386 l 0,-36.952282 c 0,-1.121217 0.90264,-2.023858 2.02386,-2.023858 z"
         id="path5529"
         style="fill:url(#radialGradient5843);fill-opacity:1;stroke:url(#linearGradient5845);stroke-width:1;stroke-miterlimit:4;display:inline" />
      <path
         d="M 8.53125,4 C 7.6730803,4 7,4.6730802 7,5.53125 l 0,36.9375 C 7,43.32692 7.6730802,44 8.53125,44 l 30.9375,0 C 40.326919,44 41,43.326918 41,42.46875 L 41,17.5 c 0,-1.39197 -0.486979,-4.299479 -2.34375,-6.15625 l -5,-5 C 31.799479,4.4869792 28.89197,4 27.5,4 L 8.53125,4 z"
         transform="translate(-150,60)"
         id="path5531"
         style="opacity:0.68016196;fill:url(#radialGradient5810);fill-opacity:1;stroke:none;display:inline" />
      <path
         d="m -138.59375,69.125 c -0.21868,0 -0.40625,0.187565 -0.40625,0.40625 0,0.218684 0.18757,0.406249 0.40625,0.40625 l 21.1875,0 c 0.21868,0 0.40625,-0.187566 0.40625,-0.40625 0,-0.218684 -0.18757,-0.40625 -0.40625,-0.40625 l -21.1875,0 z m 0.0625,1.9375 c -0.25969,0 -0.46875,0.209063 -0.46875,0.46875 0,0.259687 0.20906,0.46875 0.46875,0.46875 l 22.0625,0 c 0.25969,0 0.46875,-0.209063 0.46875,-0.46875 0,-0.259687 -0.20906,-0.46875 -0.46875,-0.46875 l -22.0625,0 z m 0,2 c -0.25969,0 -0.46875,0.209063 -0.46875,0.46875 0,0.259687 0.20906,0.46875 0.46875,0.46875 l 25.1875,0 c 0.25969,0 0.46875,-0.209063 0.46875,-0.46875 0,-0.259687 -0.20906,-0.46875 -0.46875,-0.46875 l -25.1875,0 z m 0,2 c -0.25969,0 -0.46875,0.209063 -0.46875,0.46875 0,0.259687 0.20906,0.46875 0.46875,0.46875 l 25.1875,0 c 0.25969,0 0.46875,-0.209063 0.46875,-0.46875 0,-0.259687 -0.20906,-0.46875 -0.46875,-0.46875 l -25.1875,0 z m 0,2 c -0.25969,0 -0.46875,0.209063 -0.46875,0.46875 0,0.259687 0.20906,0.46875 0.46875,0.46875 l 25.1875,0 c 0.25969,0 0.46875,-0.209063 0.46875,-0.46875 0,-0.259687 -0.20906,-0.46875 -0.46875,-0.46875 l -25.1875,0 z"
         id="rect5857"
         style="opacity:0.15;fill:url(#linearGradient6475);fill-opacity:1;fill-rule:evenodd;stroke:none;stroke-width:0.99999982px;marker:none;visibility:visible;display:inline;overflow:visible" />
      <path
         d="m -122.5,64 c -1.38889,0 -0.0421,0.497088 1.34375,1.125 1.38582,0.627912 4.97288,3.215052 4.15625,6.875 4.32331,-0.430583 6.67913,3.122378 7,4.28125 0.32087,1.158872 1,2.607639 1,1.21875 0.0283,-3.805581 -2.84543,-6.431701 -4.84375,-8.65625 C -115.84207,66.619201 -118.84621,64.476761 -122.5,64 z"
         id="path5533"
         style="fill:url(#radialGradient5839);fill-opacity:1;stroke:none;display:inline" />
      <path
         d="m -121.39912,65.014353 c 0.9223,0 3.00844,6.195662 2.08614,10.32925 4.29496,-0.427759 8.85338,0.08818 9.31298,0.937647 -0.32087,-1.158872 -2.67669,-4.711833 -7,-4.28125 0.86466,-3.875239 -3.18657,-6.617298 -4.39912,-6.985647 z"
         id="path5535"
         style="opacity:0.87854249;fill:url(#linearGradient5836);fill-opacity:1;stroke:none;display:inline" />
      <path
         d="M -51.46875,4.5 C -52.051916,4.5 -52.5,4.9480842 -52.5,5.53125 l 0,36.9375 c 0,0.583165 0.448086,1.03125 1.03125,1.03125 l 30.9375,0 c 0.583165,0 1.03125,-0.448086 1.03125,-1.03125 L -19.5,17.5 c 0,-1.279029 -0.480469,-4.105469 -2.1875,-5.8125 l -5,-5 C -28.394531,4.9804687 -31.220971,4.5 -32.5,4.5 l -18.96875,0 z"
         transform="translate(-90,60)"
         id="path5537"
         style="fill:none;stroke:url(#linearGradient5816);stroke-width:1;stroke-miterlimit:4;display:inline" />
      <g
         transform="matrix(0.928889,0,0,1,-148.28889,60)"
         id="g5539"
         style="opacity:0.15;fill:#000000;display:inline">
        <rect
           width="28.125"
           height="0.9375"
           rx="0.50463516"
           ry="0.46875"
           x="10"
           y="19.0625"
           id="rect5549"
           style="fill:#000000;fill-opacity:1;fill-rule:evenodd;stroke:none;stroke-width:0.99999982px;marker:none;visibility:visible;display:inline;overflow:visible" />
        <rect
           width="28.125"
           height="0.9375"
           rx="0.50463516"
           ry="0.46875"
           x="10"
           y="21.0625"
           id="rect5553"
           style="fill:#000000;fill-opacity:1;fill-rule:evenodd;stroke:none;stroke-width:0.99999982px;marker:none;visibility:visible;display:inline;overflow:visible" />
        <rect
           width="28.125"
           height="0.9375"
           rx="0.50463516"
           ry="0.46875"
           x="10"
           y="23.0625"
           id="rect5555"
           style="fill:#000000;fill-opacity:1;fill-rule:evenodd;stroke:none;stroke-width:0.99999982px;marker:none;visibility:visible;display:inline;overflow:visible" />
        <rect
           width="28.125"
           height="0.9375"
           rx="0.50463516"
           ry="0.46875"
           x="10"
           y="25.0625"
           id="rect5557"
           style="fill:#000000;fill-opacity:1;fill-rule:evenodd;stroke:none;stroke-width:0.99999982px;marker:none;visibility:visible;display:inline;overflow:visible" />
        <rect
           width="28.125"
           height="0.9375"
           rx="0.50463516"
           ry="0.46875"
           x="10"
           y="27.0625"
           id="rect5559"
           style="fill:#000000;fill-opacity:1;fill-rule:evenodd;stroke:none;stroke-width:0.99999982px;marker:none;visibility:visible;display:inline;overflow:visible" />
        <rect
           width="28.125"
           height="0.9375"
           rx="0.50463516"
           ry="0.46875"
           x="10"
           y="29.0625"
           id="rect5561"
           style="fill:#000000;fill-opacity:1;fill-rule:evenodd;stroke:none;stroke-width:0.99999982px;marker:none;visibility:visible;display:inline;overflow:visible" />
        <rect
           width="28.125"
           height="0.9375"
           rx="0.50463516"
           ry="0.46875"
           x="10"
           y="31.0625"
           id="rect5563"
           style="fill:#000000;fill-opacity:1;fill-rule:evenodd;stroke:none;stroke-width:0.99999982px;marker:none;visibility:visible;display:inline;overflow:visible" />
        <rect
           width="28.125"
           height="0.9375"
           rx="0.50463516"
           ry="0.46875"
           x="10"
           y="33.0625"
           id="rect5565"
           style="fill:#000000;fill-opacity:1;fill-rule:evenodd;stroke:none;stroke-width:0.99999982px;marker:none;visibility:visible;display:inline;overflow:visible" />
        <rect
           width="28.125"
           height="0.9375"
           rx="0.50463516"
           ry="0.46875"
           x="10"
           y="35.0625"
           id="rect5567"
           style="fill:#000000;fill-opacity:1;fill-rule:evenodd;stroke:none;stroke-width:0.99999982px;marker:none;visibility:visible;display:inline;overflow:visible" />
        <rect
           width="13.8125"
           height="0.9375"
           rx="0.50463516"
           ry="0.46875"
           x="10"
           y="37.0625"
           id="rect5569"
           style="fill:#000000;fill-opacity:1;fill-rule:evenodd;stroke:none;stroke-width:0.99999982px;marker:none;visibility:visible;display:inline;overflow:visible" />
      </g>
    </g>
    <g
       transform="matrix(0.36450925,0,0,0.36450925,-2.0576835,28.30505)"
       id="g10273"
       style="display:inline;enable-background:new">
      <g
         transform="matrix(1.0416677,0,0,0.4579337,-0.9375015,24.411627)"
         id="g10275"
         style="opacity:0.4" />
      <path
         d="m 52,33.1875 a 14.625,3.3125 0 1 1 -29.25,0 14.625,3.3125 0 1 1 29.25,0 z"
         transform="matrix(0.897436,0,0,0.981132,1.333333,1.688679)"
         id="path4331"
         style="opacity:0.07000002;fill:url(#radialGradient7860);fill-opacity:1;stroke:none" />
      <g
         transform="translate(-1.75,-1)"
         id="g10278" />
      <g
         transform="translate(-2,-1)"
         id="g10280" />
      <g
         transform="translate(60.78337,49.43458)"
         id="g10282"
         style="display:inline" />
      <g
         transform="translate(0,-1)"
         id="g10284"
         style="opacity:0.6" />
      <g
         id="g10286">
        <path
           d="m 41.07975,28.46584 -15,4.472913 -0.125,0.06484 -0.09375,0.07781 -2.75,2.853178 7.4375,-0.842984 0.28125,-0.02594 0.1875,-0.07781 10.0625,-2.683193 0,-3.838821 0,7e-6 0,0 z"
           id="path2334"
           style="opacity:0.4;fill:url(#linearGradient7862);fill-opacity:1;fill-rule:evenodd;stroke:none;display:inline" />
        <g
           id="g10289">
          <g
             id="g10291">
            <path
               d="m 25.89225,30.18459 19,-19 c 2.175049,0.359961 3.084719,1.732225 3.5,3.5 l -19,19 -4.616117,0.704505 1.116117,-4.204505 0,0 0,0 z"
               id="path2273"
               style="fill:url(#linearGradient7864);fill-opacity:1;fill-rule:evenodd;stroke:url(#linearGradient7866);stroke-width:1;stroke-linecap:butt;stroke-linejoin:round;stroke-miterlimit:4;stroke-opacity:1;stroke-dasharray:none" />
            <path
               d="m 26.792248,30.68459 18.49775,-18.397748 c 1.089745,0.178435 1.517261,0.987944 2,2 l -18.397748,18.49775 -3.300003,0.900001 1.200001,-3.000003 0,0 0,0 z"
               id="path2313"
               style="opacity:0.28235294;fill:none;stroke:#ffffff;stroke-width:1.0000006;stroke-linecap:butt;stroke-linejoin:miter;stroke-miterlimit:4;stroke-opacity:1;stroke-dasharray:none;display:inline" />
          </g>
          <g
             id="g10295">
            <path
               d="m 24.549577,34.633026 1.666322,-4.180309 c 0,0 1.199535,0.24536 1.932177,0.975089 0.732642,0.729729 0.998391,1.943828 0.998391,1.943828 l -4.59689,1.261392 z"
               id="path2298"
               style="fill:url(#linearGradient7868);fill-opacity:1;fill-rule:evenodd;stroke:none" />
            <path
               d="m 23,21.5 -5.5,1.5 2,-5"
               transform="translate(6.39225,12.18459)"
               id="path5446"
               style="fill:none;stroke:#e9b96e;stroke-width:1;stroke-linecap:round;stroke-linejoin:round;stroke-miterlimit:4;stroke-opacity:1;stroke-dasharray:none" />
            <path
               d="m 23.95475,33.68459 -0.90625,2.25 2.34375,-0.65625 c 0.002,-0.03184 0,-0.06141 0,-0.09375 0,-0.802125 -0.645308,-1.459801 -1.4375,-1.5 z"
               id="path2283"
               style="fill:#000000;fill-opacity:1;fill-rule:evenodd;stroke:none;display:inline" />
          </g>
        </g>
      </g>
      <path
         d="m 42.821682,13.147263 c 1.834152,-0.500531 3.885052,1.651475 3.449911,3.449919 L 48.46699,14.40178 c 1.066511,-2.466563 -1.132252,-4.4097129 -3.494714,-3.494723 l -2.150594,2.240206 0,0 z"
         id="path4113-1"
         style="fill:url(#radialGradient7870);fill-opacity:1;fill-rule:nonzero;stroke:#ef2929;stroke-width:0.99999994;marker:none;visibility:visible;display:inline;overflow:visible;enable-background:new" />
      <path
         d="m 40.561976,15.25084 c 1.936448,-0.528484 4.101732,1.743706 3.642321,3.642586 l 2.317841,-2.31801 c 0.754457,-1.595776 -2.044633,-4.337495 -3.689625,-3.689891 l -2.270537,2.365315 0,0 z"
         id="path4095-8"
         style="fill:url(#linearGradient10952);fill-opacity:1;fill-rule:nonzero;stroke:#888a85;stroke-width:1;marker:none;visibility:visible;display:inline;overflow:visible;enable-background:new" />
    </g>
  </g>
  <g
     transform="translate(0,-32)"
     id="layer1"
     style="display:inline" />
  <g
     transform="translate(0,-32)"
     id="layer5"
     style="display:inline" />
</svg>
