<?xml version="1.0" encoding="UTF-8" standalone="no"?>
<!-- Created with Inkscape (http://www.inkscape.org/) -->

<svg
   xmlns:dc="http://purl.org/dc/elements/1.1/"
   xmlns:cc="http://creativecommons.org/ns#"
   xmlns:rdf="http://www.w3.org/1999/02/22-rdf-syntax-ns#"
   xmlns:svg="http://www.w3.org/2000/svg"
   xmlns="http://www.w3.org/2000/svg"
   xmlns:xlink="http://www.w3.org/1999/xlink"
   version="1.2"
   width="16"
   height="16"
   id="svg1">
  <metadata
     id="metadata162">
    <rdf:RDF>
      <cc:Work
         rdf:about="">
        <dc:format>image/svg+xml</dc:format>
        <dc:type
           rdf:resource="http://purl.org/dc/dcmitype/StillImage" />
        <dc:title></dc:title>
        <dc:creator>
          <cc:Agent>
            <dc:title>Jakub Steiner</dc:title>
          </cc:Agent>
        </dc:creator>
        <dc:date>2005-02-01</dc:date>
        <cc:license
           rdf:resource="http://creativecommons.org/licenses/GPL/2.0/" />
        <dc:identifier>http://jimmac.musichall.cz/</dc:identifier>
        <dc:subject>
          <rdf:Bag>
            <rdf:li>folder</rdf:li>
            <rdf:li>directory</rdf:li>
            <rdf:li>storage</rdf:li>
          </rdf:Bag>
        </dc:subject>
      </cc:Work>
      <cc:License
         rdf:about="http://creativecommons.org/licenses/GPL/2.0/">
        <cc:permits
           rdf:resource="http://web.resource.org/cc/Reproduction" />
        <cc:permits
           rdf:resource="http://web.resource.org/cc/Distribution" />
        <cc:requires
           rdf:resource="http://web.resource.org/cc/Notice" />
        <cc:permits
           rdf:resource="http://web.resource.org/cc/DerivativeWorks" />
        <cc:requires
           rdf:resource="http://web.resource.org/cc/ShareAlike" />
        <cc:requires
           rdf:resource="http://web.resource.org/cc/SourceCode" />
      </cc:License>
    </rdf:RDF>
  </metadata>
  <defs
     id="defs3">
    <linearGradient
       id="linearGradient4734">
      <stop
         id="stop4736"
         style="stop-color:#cccdbc;stop-opacity:1"
         offset="0" />
      <stop
         id="stop4738"
         style="stop-color:#b9baa4;stop-opacity:1"
         offset="1" />
    </linearGradient>
    <linearGradient
       id="linearGradient2339">
      <stop
         id="stop2341"
         style="stop-color:#ffffff;stop-opacity:1"
         offset="0" />
      <stop
         id="stop2343"
         style="stop-color:#ffffff;stop-opacity:0"
         offset="1" />
    </linearGradient>
    <linearGradient
       id="linearGradient356">
      <stop
         id="stop357"
         style="stop-color:#fffff3;stop-opacity:1"
         offset="0" />
      <stop
         id="stop358"
         style="stop-color:#fffff3;stop-opacity:0"
         offset="1" />
    </linearGradient>
    <linearGradient
       id="linearGradient311">
      <stop
         id="stop312"
         style="stop-color:#cfcfc4;stop-opacity:1"
         offset="0" />
      <stop
         id="stop335"
         style="stop-color:#cfcfc4;stop-opacity:1"
         offset="0.32673267" />
      <stop
         id="stop313"
         style="stop-color:#cfcfc4;stop-opacity:0"
         offset="1" />
    </linearGradient>
    <linearGradient
       id="linearGradient235">
      <stop
         id="stop236"
         style="stop-color:#59594a;stop-opacity:1"
         offset="0" />
      <stop
         id="stop237"
         style="stop-color:#a2a491;stop-opacity:1"
         offset="1" />
    </linearGradient>
    <linearGradient
       x1="24.983023"
       y1="22.828066"
       x2="24.983023"
       y2="8.3744106"
       id="linearGradient10087"
       xlink:href="#linearGradient235"
       gradientUnits="userSpaceOnUse"
       gradientTransform="scale(1.068312,0.936056)" />
    <linearGradient
       x1="32.827568"
       y1="7.9206076"
       x2="60.071049"
       y2="7.8678756"
       id="linearGradient10089"
       xlink:href="#linearGradient311"
       gradientUnits="userSpaceOnUse"
       gradientTransform="scale(0.750458,1.33252)" />
    <linearGradient
       x1="24.588383"
       y1="1.8991361"
       x2="24.588383"
       y2="40.858932"
       id="linearGradient10091"
       xlink:href="#linearGradient4734"
       gradientUnits="userSpaceOnUse" />
    <linearGradient
       x1="23.643002"
       y1="12.818464"
       x2="28.443289"
       y2="25.232374"
       id="linearGradient10093"
       xlink:href="#linearGradient356"
       gradientUnits="userSpaceOnUse"
       gradientTransform="scale(0.806859,1.239374)" />
    <linearGradient
       x1="25.850664"
       y1="37.625"
       x2="24.996323"
       y2="25.25"
       id="linearGradient10095"
       xlink:href="#linearGradient2339"
       gradientUnits="userSpaceOnUse" />
  </defs>
  <g
     transform="translate(0,-32)"
     id="layer1"
     style="display:inline" />
  <g
     transform="translate(0,-32)"
     id="layer2"
     style="display:inline">
    <g
       transform="matrix(0.186703,0,0,0.186703,-21.1073,57.62299)"
       id="g891" />
    <g
       transform="matrix(0.34647181,0,0,0.34714239,-0.48541104,31.424372)"
       id="g10070">
      <g
         transform="matrix(0.216083,0,0,0.263095,-0.893233,-10.24236)"
         id="g1197">
        <path
           d="m 32.706693,164.36026 c -10.3875,0 -18.75,8.3625 -18.75,18.75 0,10.3875 8.3625,18.75 18.75,18.75 l 172.499997,0 c 10.3875,0 18.75,-8.3625 18.75,-18.75 0,-10.3875 -8.3625,-18.75 -18.75,-18.75 l -172.499997,0 z"
           id="path1196"
           style="opacity:0.04787233;fill-rule:evenodd;stroke-width:3pt" />
        <path
           d="m 32.706693,165.61026 c -9.695,0 -17.5,7.805 -17.5,17.5 0,9.695 7.805,17.5 17.5,17.5 l 172.499997,0 c 9.695,0 17.5,-7.805 17.5,-17.5 0,-9.695 -7.805,-17.5 -17.5,-17.5 l -172.499997,0 z"
           id="path1195"
           style="opacity:0.04787233;fill-rule:evenodd;stroke-width:3pt" />
        <path
           d="m 32.706694,166.86026 c -9.0025,0 -16.25,7.2475 -16.25,16.25 0,9.0025 7.2475,16.25 16.25,16.25 l 172.499996,0 c 9.0025,0 16.25,-7.2475 16.25,-16.25 0,-9.0025 -7.2475,-16.25 -16.25,-16.25 l -172.499996,0 z"
           id="path1194"
           style="opacity:0.04787233;fill-rule:evenodd;stroke-width:3pt" />
        <path
           d="m 32.706694,168.11026 c -8.31,0 -15,6.69 -15,15 0,8.31 6.69,15 15,15 l 172.499996,0 c 8.31,0 15,-6.69 15,-15 0,-8.31 -6.69,-15 -15,-15 l -172.499996,0 z"
           id="path1193"
           style="opacity:0.04787233;fill-rule:evenodd;stroke-width:3pt" />
        <path
           d="m 32.707764,169.36026 c -7.6175,0 -13.75,6.1325 -13.75,13.75 0,7.6175 6.1325,13.75 13.75,13.75 l 172.498416,0 c 7.6175,0 13.75,-6.1325 13.75,-13.75 0,-7.6175 -6.1325,-13.75 -13.75,-13.75 l -172.498416,0 z"
           id="path1192"
           style="opacity:0.04787233;fill-rule:evenodd;stroke-width:3pt" />
        <path
           d="m 32.706694,170.61026 c -6.925,0 -12.5,5.575 -12.5,12.5 0,6.925 5.575,12.5 12.5,12.5 l 172.499996,0 c 6.925,0 12.5,-5.575 12.5,-12.5 0,-6.925 -5.575,-12.5 -12.5,-12.5 l -172.499996,0 z"
           id="path1191"
           style="opacity:0.04787233;fill-rule:evenodd;stroke-width:3pt" />
        <path
           d="m 32.706694,171.86026 c -6.2325,0 -11.25,5.0175 -11.25,11.25 0,6.2325 5.0175,11.25 11.25,11.25 l 172.499996,0 c 6.2325,0 11.25,-5.0175 11.25,-11.25 0,-6.2325 -5.0175,-11.25 -11.25,-11.25 l -172.499996,0 z"
           id="path1190"
           style="opacity:0.04787233;fill-rule:evenodd;stroke-width:3pt" />
        <path
           d="m 32.706694,173.11026 c -5.54,0 -10,4.46 -10,10 0,5.54 4.46,10 10,10 l 172.499996,0 c 5.54,0 10,-4.46 10,-10 0,-5.54 -4.46,-10 -10,-10 l -172.499996,0 z"
           id="path1189"
           style="opacity:0.04787233;fill-rule:evenodd;stroke-width:3pt" />
      </g>
      <path
         d="m 5.4186638,5.45611 c -0.4649766,0 -0.8151104,0.2352268 -0.8151104,0.726723 l 0,33.020961 c 0,0.727146 0.487105,1.21156 1.149057,1.21156 l 37.7369536,0 c 0.665802,0 0.930308,-0.452766 0.930308,-1.08656 l 0,-28.902882 c 0,-0.5429651 -0.400287,-0.836558 -0.899058,-0.836558 l -19.109324,0 c -0.337013,0 -0.69668,-0.198426 -0.894481,-0.471287 L 20.914778,5.918058 C 20.696913,5.617519 20.272703,5.456125 19.9015,5.456125 L 5.4186638,5.45611 z"
         id="path895"
         style="fill:url(#linearGradient10087);fill-opacity:1;fill-rule:evenodd;stroke:#555753;stroke-width:1;stroke-miterlimit:4;stroke-opacity:1" />
      <path
         d="m 5.0625,7.90625 0,28.25 0.96875,-4.375 L 6.25,9.15625 c 0,-0.7504226 0.5114657,-1.125 1.2369586,-1.125 l 11.6067914,0 c 1.561596,0 3.014848,3.1875 5.317667,3.1875 5.971619,0 19.338396,0.08759 19.338583,0 l 0,-1.03125 -19.53125,-0.125 C 22.362615,10.05062 21.088324,6.90625 19.65625,6.90625 l -13.3724164,0 c -0.8153288,0 -1.2213336,0.3541661 -1.2213336,1 z"
         id="path315"
         style="color:#000000;fill:url(#linearGradient10089);fill-opacity:1;fill-rule:evenodd;stroke:none;stroke-width:0.25pt;marker:none;visibility:visible;display:inline;overflow:visible" />
      <path
         d="m 7.6864537,16.296282 7.9333453,0 c 0.741734,0 1.36797,-0.380811 1.687167,-0.882004 0.136743,-0.214709 1.267982,-2.125728 1.357674,-2.256226 0.298787,-0.434724 0.772917,-0.758916 1.341982,-0.758916 l 23.042233,0 c 0.802837,0 1.449163,0.643789 1.449163,1.443474 l 0,25.072849 c 0,0.799684 -0.646326,1.443473 -1.449163,1.443473 l -36.9209466,0 c -0.8028359,0 -1.4491623,-0.643789 -1.4491623,-1.443473 l 0,-19.433555 c 0,-1.974365 1.1403162,-3.185622 3.0077076,-3.185622 z"
         id="rect337"
         style="color:#000000;fill:url(#linearGradient10091);fill-opacity:1;fill-rule:evenodd;stroke:#555753;stroke-width:0.99999988;stroke-linecap:butt;stroke-linejoin:round;stroke-miterlimit:4;stroke-opacity:1;stroke-dashoffset:0;marker:none;visibility:visible;display:inline;overflow:visible" />
      <path
         d="m 20.5,13.75 c -0.646419,0 -1.00904,0.281698 -1.375,0.75 -0.36596,0.468302 -0.781498,1.171815 -1.0625,1.71875 -0.281002,0.546935 -0.569091,1.054169 -0.84375,1.40625 -0.274659,0.352081 -0.489583,0.5 -0.71875,0.5 -1.25,0 -9.1571699,0 -9.6571699,0 -0.4583333,0 -0.8354702,0.230519 -1.15625,0.53125 -0.3207798,0.300731 -0.59375,0.70625 -0.59375,1.21875 1e-7,0.624998 0,19.375 0,19.375 l 1,0 c 0,0 1e-7,-18.749998 0,-19.375 0,-0.1125 0.1020298,-0.331981 0.28125,-0.5 0.1792202,-0.168019 0.4270834,-0.25 0.46875,-0.25 0.5,0 8.4071699,0 9.6571699,0 0.645833,0 1.134731,-0.406768 1.5,-0.875 0.365269,-0.468232 0.656559,-1.046935 0.9375,-1.59375 0.280941,-0.546815 0.631167,-1.179239 0.90625,-1.53125 0.275083,-0.352011 0.425439,-0.375 0.65625,-0.375 1.216667,0 23.25,0.125 23.25,0.125 l 0,-1 c 0,0 -21.966667,-0.125 -23.25,-0.125 z"
         id="path349"
         style="color:#000000;fill:url(#linearGradient10093);fill-opacity:1;fill-rule:evenodd;stroke:none;stroke-width:0.25pt;marker:none;visibility:visible;display:inline;overflow:visible" />
      <rect
         width="1.25"
         height="1.25"
         rx="1.4434735"
         ry="1.25"
         x="5.5290294"
         y="7.3598347"
         id="rect459"
         style="color:#000000;fill:#fffffd;fill-opacity:1;fill-rule:evenodd;stroke:none;stroke-width:0.25pt;marker:none;visibility:visible;display:inline;overflow:visible" />
      <rect
         width="37.95816"
         height="23.625"
         rx="0.43750021"
         ry="0.4375"
         x="5.5381637"
         y="15.75"
         id="rect2337"
         style="opacity:0.2857143;color:#000000;fill:none;stroke:url(#linearGradient10095);stroke-width:1.00000024;stroke-linecap:square;stroke-linejoin:round;stroke-miterlimit:4;stroke-opacity:1;stroke-dasharray:none;stroke-dashoffset:0;marker:none;visibility:visible;display:inline;overflow:visible" />
    </g>
    <g
       transform="translate(1.375,45)"
       id="flowRoot10182"
       style="font-size:6px;font-style:normal;font-weight:normal;line-height:125%;letter-spacing:0px;word-spacing:0px;fill:#000000;fill-opacity:1;stroke:none;font-family:Sans">
      <g
         transform="matrix(1.5079365,0,0,1.5079365,-33.676091,3.4270701)"
         id="g10193">
        <g
           transform="matrix(0.6631579,0,0,0.6631579,22.083882,-11.142425)"
           id="flowRoot10302"
           style="font-size:6px;font-style:normal;font-weight:normal;line-height:125%;letter-spacing:0px;word-spacing:0px;fill:#000000;fill-opacity:1;stroke:none;font-family:Sans">
          <path
             d="M 6.8906976,7.6090632 C 6.4233448,7.609068 6.0538863,7.7922185 5.782319,8.1585145 5.5107485,8.5216627 5.3749648,9.0205913 5.3749664,9.6553003 c -1.6e-6,0.6347137 0.1342089,1.1352207 0.4026154,1.5015217 0.2715673,0.363143 0.6426054,0.544715 1.1131158,0.544715 0.4641889,0 0.8320694,-0.18315 1.1036415,-0.549453 0.2715641,-0.3663 0.4073494,-0.865227 0.4073526,-1.4967837 C 8.4016885,9.0269064 8.2658983,8.5295574 7.9943391,8.1632517 7.722767,7.7937965 7.3548865,7.609068 6.8906976,7.6090632 m 0,-0.7389202 c 0.7578624,6.5e-6 1.353101,0.2463116 1.7857206,0.7389202 0.4326099,0.4926167 0.6489172,1.1746941 0.6489221,2.0462371 -4.9e-6,0.8683887 -0.2163122,1.5504677 -0.6489221,2.0462367 -0.4326196,0.492612 -1.0278582,0.738919 -1.7857206,0.738919 -0.7610247,0 -1.3578445,-0.246307 -1.7904576,-0.738919 C 4.6707828,11.205768 4.4560534,10.523689 4.456055,9.6553003 4.4560534,8.7837573 4.6707828,8.1016799 5.10024,7.6090632 5.5328531,7.1164546 6.1296729,6.8701495 6.8906976,6.870143"
             id="path10311" />
        </g>
      </g>
    </g>
  </g>
</svg>
