<?xml version="1.0" encoding="UTF-8"?>
<svg xmlns="http://www.w3.org/2000/svg" xmlns:xlink="http://www.w3.org/1999/xlink" width="16px" height="16px" viewBox="0 0 16 16" version="1.1">
<g id="surface1">
<path style="fill-rule:nonzero;fill:rgb(0%,0%,0.392157%);fill-opacity:1;stroke-width:0.25;stroke-linecap:butt;stroke-linejoin:miter;stroke:rgb(0%,0%,0.392157%);stroke-opacity:1;stroke-miterlimit:4;" d="M 323.125 169.625 C 326.625 168.25 330.375 168.625 334 168.625 C 368.625 168.625 403.375 168.625 438 168.5 C 455.75 167.75 472.5 178.625 481.75 193.25 C 490.375 206.625 491.375 224.375 484.875 238.875 C 481.5 246.25 476.5 253 470.25 258.25 C 464.625 263 458.125 266.75 451 268.5 C 446.125 270.25 440.875 269.625 435.75 269.75 C 451.125 285 466.125 300.5 481.75 315.375 C 485.375 318.625 489.25 322.625 488.875 328 C 489.5 336 481.875 343.125 474 342.5 C 469.25 342.625 465.75 339.25 462.625 336.25 C 439.25 313.625 416.625 290.375 393.375 267.5 C 390.875 265.25 388.875 262.375 387.625 259.125 C 387.375 255.75 387.25 252.125 389.125 249.125 C 391.625 244.5 396.75 241.375 402 241.5 C 414.75 241.5 427.5 241.625 440.25 241.375 C 447.5 240.625 454.375 236.375 458 230 C 461.75 224.375 461.625 217 459.375 210.75 C 458.625 209.5 458 208.125 457.375 206.75 C 454.375 203 450.5 200 446 198.125 C 441.5 196.375 436.625 196.875 432 196.875 C 402.375 196.875 372.875 197 343.25 196.75 C 342.75 224.5 343.125 252.25 342.875 280 C 342.875 283.375 342.75 287 340.75 289.875 C 337.125 295.5 329.25 297.875 323 295.125 C 319.75 293.75 317.25 290.875 315.625 287.75 C 314.625 284.625 314.75 281.25 314.75 278 C 314.75 246 314.5 214 314.625 182.125 C 314.5 176.625 318 171.375 323.125 169.625 Z M 323.125 169.625 " transform="matrix(0.03125,0,0,0.03125,0,0)"/>
<path style="fill-rule:nonzero;fill:rgb(0%,0%,0.392157%);fill-opacity:1;stroke-width:0.25;stroke-linecap:butt;stroke-linejoin:miter;stroke:rgb(0%,0%,0.392157%);stroke-opacity:1;stroke-miterlimit:4;" d="M 173 172 C 178.5 167.125 188.125 167.25 193 173 C 196.125 175.75 196.875 180 196.75 184 C 196.75 227.375 196.75 270.875 196.75 314.375 C 239.875 314.25 282.875 314.5 326 314.375 C 328.375 314.25 330.75 314.375 333.25 314.625 C 339.25 316.5 343.875 322.5 343.25 329 C 343 334.625 339.125 339.875 333.875 341.875 C 331.75 342.875 329.25 342.875 327 342.875 C 279 342.875 231 342.75 183 342.875 C 180.625 342.875 178.25 342.25 176 341.5 C 172 338.75 168.5 334.75 168.5 329.625 C 168.25 292.375 168.75 255.125 168.375 218 C 161 224.75 154 232 146.875 239 C 115.25 270.75 83.5 302.25 51.875 334 C 47.875 337.625 44 342.75 37.875 342.375 C 30.375 343 23 336.625 22.75 329 C 22.5 324.75 24.5 320.625 27.5 317.625 C 76 269.125 124.375 220.5 173 172 Z M 173 172 " transform="matrix(0.03125,0,0,0.03125,0,0)"/>
</g>
</svg>
