<?xml version="1.0" encoding="UTF-8" standalone="no"?>
<svg width="15px" height="11px" viewBox="0 0 15 11" version="1.1" xmlns="http://www.w3.org/2000/svg" xmlns:xlink="http://www.w3.org/1999/xlink">
    <!-- Generator: Sketch 41.1 (35376) - http://www.bohemiancoding.com/sketch -->
    <desc>Created with Sketch.</desc>
    <defs></defs>
    <g id="Page-1" stroke="none" stroke-width="1" fill="none" fill-rule="evenodd">
        <g id="Octicons" fill="#000000">
            <g id="git-commit">
                <path d="M10.86,3 C10.41,1.28 8.86,0 7,0 C5.14,0 3.59,1.28 3.14,3 L0,3 L0,5 L3.14,5 C3.59,6.72 5.14,8 7,8 C8.86,8 10.41,6.72 10.86,5 L14,5 L14,3 L10.86,3 L10.86,3 Z M7,6.2 C5.78,6.2 4.8,5.22 4.8,4 C4.8,2.78 5.78,1.8 7,1.8 C8.22,1.8 9.2,2.78 9.2,4 C9.2,5.22 8.22,6.2 7,6.2 L7,6.2 Z" id="Shape"></path>
            </g>
            <g id="Group" transform="translate(10.000000, 6.000000)">
                <rect id="Rectangle-path" x="0" y="1.875" width="5" height="1.25"></rect>
                <rect id="Rectangle-path" x="1.875" y="0" width="1.25" height="5"></rect>
            </g>
        </g>
    </g>
</svg>
