<?xml version="1.0" encoding="utf-8"?>
<!-- Variant 2: scale=0.57, slight centre overlap – badge feel -->
<!DOCTYPE svg PUBLIC "-//W3C//DTD SVG 1.1//EN" "http://www.w3.org/Graphics/SVG/1.1/DTD/svg11.dtd">
<svg version="1.1" xmlns="http://www.w3.org/2000/svg" width="16" height="16" viewBox="0 0 16 16">
  <!-- X (errors) – bottom-left, drawn first so magnifier sits on top -->
  <g transform="translate(0,6.9) scale(0.57)">
    <path fill="#000000" d="M15.854 12.854c-0-0-0-0-0-0l-4.854-4.854 4.854-4.854c0-0 0-0 0-0 0.052-0.052 0.090-0.113 0.114-0.178 0.066-0.178 0.028-0.386-0.114-0.529l-2.293-2.293c-0.143-0.143-0.351-0.181-0.529-0.114-0.065 0.024-0.126 0.062-0.178 0.114 0 0-0 0-0 0l-4.854 4.854-4.854-4.854c-0-0-0-0-0-0-0.052-0.052-0.113-0.090-0.178-0.114-0.178-0.066-0.386-0.029-0.529 0.114l-2.293 2.293c-0.143 0.143-0.181 0.351-0.114 0.529 0.024 0.065 0.062 0.126 0.114 0.178 0 0 0 0 0 0l4.854 4.854-4.854 4.854c-0 0-0 0-0 0-0.052 0.052-0.090 0.113-0.114 0.178-0.066 0.178-0.029 0.386 0.114 0.529l2.293 2.293c0.143 0.143 0.351 0.181 0.529 0.114 0.065-0.024 0.126-0.062 0.178-0.114 0-0 0-0 0-0l4.854-4.854 4.854 4.854c0 0 0 0 0 0 0.052 0.052 0.113 0.090 0.178 0.114 0.178 0.066 0.386 0.029 0.529-0.114l2.293-2.293c0.143-0.143 0.181-0.351 0.114-0.529-0.024-0.065-0.062-0.126-0.114-0.178z"/>
  </g>
  <!-- Magnifier (search) – upper-right -->
  <g transform="translate(6.9,0) scale(0.57)">
    <path fill="#000000" d="M15.479,13.397l-3.787-3.788c0.57-0.938,0.9-2.039,0.9-3.218C12.592,2.967,9.624,0,6.201,0 C2.776,0,0,2.777,0,6.202c0,3.423,2.966,6.39,6.39,6.39c1.138,0,2.205-0.309,3.123-0.844l3.808,3.807 c0.372,0.374,0.976,0.374,1.35,0l0.944-0.942C15.987,14.239,15.852,13.77,15.479,13.397z M1.908,6.202 C1.908,3.83,3.83,1.91,6.2,1.91c2.372,0,4.483,2.112,4.483,4.483S8.76,10.685,6.39,10.685C4.021,10.685,1.908,8.57,1.908,6.202z"/>
  </g>
</svg>
