<?xml version="1.0" encoding="UTF-8" standalone="no"?>
<!-- Created with Inkscape (http://www.inkscape.org/) -->

<svg
   xmlns:dc="http://purl.org/dc/elements/1.1/"
   xmlns:cc="http://creativecommons.org/ns#"
   xmlns:rdf="http://www.w3.org/1999/02/22-rdf-syntax-ns#"
   xmlns:svg="http://www.w3.org/2000/svg"
   xmlns="http://www.w3.org/2000/svg"
   xmlns:xlink="http://www.w3.org/1999/xlink"
   version="1.1"
   width="16"
   height="16"
   id="svg7715">
  <metadata
     id="metadata7722">
    <rdf:RDF>
      <cc:Work
         rdf:about="">
        <dc:format>image/svg+xml</dc:format>
        <dc:type
           rdf:resource="http://purl.org/dc/dcmitype/StillImage" />
        <dc:title></dc:title>
      </cc:Work>
    </rdf:RDF>
  </metadata>
  <defs
     id="defs7720">
    <marker
       refX="0"
       refY="0"
       orient="auto"
       id="TriangleOutS"
       style="overflow:visible">
      <path
         d="m 5.77,0 -8.65,5 0,-10 8.65,5 z"
         transform="scale(0.2,0.2)"
         id="path7086"
         style="fill-rule:evenodd;stroke:#000000;stroke-width:1pt" />
    </marker>
    <marker
       refX="0"
       refY="0"
       orient="auto"
       id="TriangleInS"
       style="overflow:visible">
      <path
         d="m 5.77,0 -8.65,5 0,-10 8.65,5 z"
         transform="scale(-0.2,-0.2)"
         id="path7077"
         style="fill-rule:evenodd;stroke:#000000;stroke-width:1pt" />
    </marker>
    <linearGradient
       id="linearGradient6728">
      <stop
         id="stop6730"
         style="stop-color:#b3b3b3;stop-opacity:1"
         offset="0" />
      <stop
         id="stop6732"
         style="stop-color:#787878;stop-opacity:1"
         offset="1" />
    </linearGradient>
    <linearGradient
       x1="14.245763"
       y1="-8.5084743"
       x2="22.567797"
       y2="-8.5084743"
       id="linearGradient7770"
       xlink:href="#linearGradient6728"
       gradientUnits="userSpaceOnUse"
       gradientTransform="matrix(1.6153744,0,0,1.4870973,-21.75079,20.82242)" />
  </defs>
  <rect
     width="11.827826"
     height="15.123024"
     x="2.0691385"
     y="0.60797977"
     id="rect6218"
     style="fill:#ffffff;fill-opacity:1;stroke:url(#linearGradient7770);stroke-width:0.94310188;stroke-miterlimit:4;stroke-opacity:0.88627451;stroke-dasharray:none" />
  <path
     d="m 4.03125,2.75 0,0.28125 7.90625,0 0,-0.28125 -7.90625,0 z m 4.53125,2.59375 0,0.4375 3.40625,0 0,-0.4375 -3.40625,0 z m 0,2.65625 0,0.4375 3.40625,0 0,-0.4375 -3.40625,0 z m 0,2.65625 0,0.46875 3.40625,0 0,-0.46875 -3.40625,0 z m -4.46875,2.75 0,0.28125 7.875,0 0,-0.28125 -7.875,0 z"
     id="rect6736-1"
     style="fill:none;stroke:#858585;stroke-width:1;stroke-miterlimit:4;stroke-opacity:1;stroke-dasharray:none" />
  <path
     d="m 5.8983051,7.1525424 -4.8813559,0.1016949 0,-6.2033898 3.2542372,0"
     id="path8338"
     style="fill:none;stroke:#000000;stroke-width:1.39999998;stroke-linecap:butt;stroke-linejoin:miter;stroke-miterlimit:4;stroke-opacity:1;stroke-dasharray:none;marker-end:url(#TriangleOutS)" />
</svg>
