<?xml version="1.0" encoding="utf-8"?>
<!-- Generator: Adobe Illustrator 16.0.0, SVG Export Plug-In . SVG Version: 6.00 Build 0)  -->
<!DOCTYPE svg PUBLIC "-//W3C//DTD SVG 1.1//EN" "http://www.w3.org/Graphics/SVG/1.1/DTD/svg11.dtd">
<svg version="1.1" id="Layer_1" xmlns="http://www.w3.org/2000/svg" xmlns:xlink="http://www.w3.org/1999/xlink" x="0px" y="0px" width="16px" height="16px" viewBox="0 0 16 16" enable-background="new 0 0 16 16" xml:space="preserve">
  <g>
    <path style="fill:#000000" d="M13.884,5.151L8.843,0.109C8.771,0.055,8.697,0.018,8.605,0.018H3.031 c-0.547,0-0.984,0.436-0.984,0.983V9H0v4h2.047v2c0,0.547,0.437,0.983,0.984,0.983h9.94c0.549,0,0.986-0.436,0.986-0.983 l0.021-9.612C13.978,5.296,13.94,5.225,13.884,5.151z M7,12H5v2H3v-2H1v-2h2V8h2v2h2V12z"/>
  </g>
</svg>
