<?xml version="1.0" encoding="UTF-8" standalone="no"?>
<!-- Generated by IcoMoon.io -->

<svg
   xmlns:dc="http://purl.org/dc/elements/1.1/"
   xmlns:cc="http://creativecommons.org/ns#"
   xmlns:rdf="http://www.w3.org/1999/02/22-rdf-syntax-ns#"
   xmlns:svg="http://www.w3.org/2000/svg"
   xmlns="http://www.w3.org/2000/svg"
   xmlns:sodipodi="http://sodipodi.sourceforge.net/DTD/sodipodi-0.dtd"
   xmlns:inkscape="http://www.inkscape.org/namespaces/inkscape"
   version="1.1"
   width="64"
   height="64"
   viewBox="0 0 64 64"
   id="svg2"
   inkscape:version="0.91 r13725"
   sodipodi:docname="gps-emulatorloading-run-symbolic.svg">
  <metadata
     id="metadata10">
    <rdf:RDF>
      <cc:Work
         rdf:about="">
        <dc:format>image/svg+xml</dc:format>
        <dc:type
           rdf:resource="http://purl.org/dc/dcmitype/StillImage" />
        <dc:title></dc:title>
      </cc:Work>
    </rdf:RDF>
  </metadata>
  <defs
     id="defs8" />
  <sodipodi:namedview
     pagecolor="#ffffff"
     bordercolor="#666666"
     borderopacity="1"
     objecttolerance="10"
     gridtolerance="10"
     guidetolerance="10"
     inkscape:pageopacity="0"
     inkscape:pageshadow="2"
     inkscape:window-width="1440"
     inkscape:window-height="851"
     id="namedview6"
     showgrid="false"
     inkscape:zoom="3.6875"
     inkscape:cx="32"
     inkscape:cy="32"
     inkscape:window-x="0"
     inkscape:window-y="1"
     inkscape:window-maximized="1"
     inkscape:current-layer="svg2" />
  <path
     id="path5511"
     d="m 23.554479,0.94915309 0,35.25423791 39.94189,0 0,-35.25423791 -39.94189,0 z M 61,33.685231 l -34.949152,0 0,-30.2179185 34.949152,0 0,30.2179185 z m -2.496368,-27.6997579 -29.956416,0 0,25.1815979 29.956416,0 0,-25.1815979 z m -17.474575,12.5907989 -2.49637,0 0,2.518159 -2.496367,0 0,2.518161 -2.496367,0 0,-2.518161 2.496367,0 0,-2.518159 2.496367,0 0,-2.518159 -2.496367,0 0,-2.518161 -2.496367,0 0,-2.518159 2.496367,0 0,2.518159 2.496367,0 0,2.518161 2.49637,0 0,2.518159 z m 9.985471,5.03632 -7.489104,0 0,-2.518161 7.489104,0 0,2.518161 z"
     inkscape:connector-curvature="0"
     style="opacity:0.37;fill:#000000" />
  <g
     id="g6304"
     transform="matrix(5.6154293,0,0,5.6154293,-26.50241,-3.7056109)">
    <linearGradient
       gradientTransform="matrix(0.62953686,0,0,-0.62953686,-183.71941,-230.59258)"
       y2="-384.99319"
       x2="306.0029"
       y1="-371.0083"
       x1="306.0029"
       gradientUnits="userSpaceOnUse"
       id="SVGID_1_">
      <stop
         id="stop6307"
         style="stop-color:#000000;stop-opacity:0.7"
         offset="0" />
      <stop
         id="stop6309"
         style="stop-color:#000000;stop-opacity:0.6"
         offset="1" />
    </linearGradient>
    <path
       id="path6311"
       d="M 12.466935,6.9958927 6.002221,3.1053549 C 5.5325865,2.8050658 5.1460509,3.0247742 5.1460509,3.5951346 l 0,7.5550724 c 0,0.57036 0.3859061,0.789439 0.8555406,0.490409 L 12.466935,7.7500779 c 0,0 0.229152,-0.1573842 0.229152,-0.3770926 0,-0.2197084 -0.229152,-0.3770926 -0.229152,-0.3770926 z"
       inkscape:connector-curvature="0"
       style="fill:url(#SVGID_1_)" />
  </g>
</svg>
