<?xml version="1.0" encoding="UTF-8" standalone="no"?>
<!-- Generator: Adobe Illustrator 16.0.0, SVG Export Plug-In . SVG Version: 6.00 Build 0)  -->

<svg
   xmlns:dc="http://purl.org/dc/elements/1.1/"
   xmlns:cc="http://creativecommons.org/ns#"
   xmlns:rdf="http://www.w3.org/1999/02/22-rdf-syntax-ns#"
   xmlns:svg="http://www.w3.org/2000/svg"
   xmlns="http://www.w3.org/2000/svg"
   xmlns:sodipodi="http://sodipodi.sourceforge.net/DTD/sodipodi-0.dtd"
   xmlns:inkscape="http://www.inkscape.org/namespaces/inkscape"
   version="1.1"
   id="Layer_1"
   x="0px"
   y="0px"
   width="16px"
   height="16px"
   viewBox="0 0 16 16"
   enable-background="new 0 0 16 16"
   xml:space="preserve"
   inkscape:version="0.48.4 r9939"
   sodipodi:docname="gps-zoom-in-symbolic.svg"><metadata
     id="metadata7399"><rdf:RDF><cc:Work
         rdf:about=""><dc:format>image/svg+xml</dc:format><dc:type
           rdf:resource="http://purl.org/dc/dcmitype/StillImage" /><dc:title></dc:title></cc:Work></rdf:RDF></metadata><defs
     id="defs7397" /><sodipodi:namedview
     pagecolor="#ffffff"
     bordercolor="#666666"
     borderopacity="1"
     objecttolerance="10"
     gridtolerance="10"
     guidetolerance="10"
     inkscape:pageopacity="0"
     inkscape:pageshadow="2"
     inkscape:window-width="640"
     inkscape:window-height="480"
     id="namedview7395"
     showgrid="false"
     inkscape:zoom="14.75"
     inkscape:cx="8"
     inkscape:cy="8"
     inkscape:window-x="0"
     inkscape:window-y="0"
     inkscape:window-maximized="0"
     inkscape:current-layer="Layer_1" /><linearGradient
     id="SVGID_1_"
     gradientUnits="userSpaceOnUse"
     x1="8.0005"
     y1="0.582"
     x2="8.0005"
     y2="15.4185"><stop
       offset="0"
       style="stop-color:#020202;stop-opacity:0.7"
       id="stop7389" /><stop
       offset="1"
       style="stop-color:#000000;stop-opacity:0.6"
       id="stop7391" /></linearGradient><path
     style="fill:url(#SVGID_1_)"
     d="m 6.40625,0.59375 c -3.208,0 -5.8125,2.6045 -5.8125,5.8125 0,3.208 2.76075,5.96875 5.96875,5.96875 1.066,0 2.0775,-0.27925 2.9375,-0.78125 l 3.5625,3.5625 c 0.349,0.351 0.9,0.351 1.25,0 l 0.90625,-0.875 c 0.35,-0.349 0.225,-0.80825 -0.125,-1.15625 L 11.53125,9.59375 C 12.06525,8.71475 12.375,7.6675 12.375,6.5625 12.375,3.3545 9.61425,0.59375 6.40625,0.59375 z m 0,1.78125 c 2.222,0 4.1875,1.9665 4.1875,4.1875 0,2.221 -1.81125,4.03125 -4.03125,4.03125 -2.22,0 -4.1875,-1.9685 -4.1875,-4.1875 0,-2.222 1.81125,-4.03125 4.03125,-4.03125 z"
     id="path7393"
     inkscape:connector-curvature="0"
     sodipodi:nodetypes="sssccccccsssssss" /></svg>