<?xml version="1.0" encoding="UTF-8" standalone="no"?>
<!-- Generated by IcoMoon.io -->

<svg
   xmlns:dc="http://purl.org/dc/elements/1.1/"
   xmlns:cc="http://creativecommons.org/ns#"
   xmlns:rdf="http://www.w3.org/1999/02/22-rdf-syntax-ns#"
   xmlns:svg="http://www.w3.org/2000/svg"
   xmlns="http://www.w3.org/2000/svg"
   xmlns:sodipodi="http://sodipodi.sourceforge.net/DTD/sodipodi-0.dtd"
   xmlns:inkscape="http://www.inkscape.org/namespaces/inkscape"
   version="1.1"
   width="64"
   height="64"
   viewBox="0 0 64 64"
   id="svg2"
   inkscape:version="0.91 r13725"
   sodipodi:docname="gps-qgen-debug-symbolic.svg">
  <metadata
     id="metadata10">
    <rdf:RDF>
      <cc:Work
         rdf:about="">
        <dc:format>image/svg+xml</dc:format>
        <dc:type
           rdf:resource="http://purl.org/dc/dcmitype/StillImage" />
        <dc:title />
      </cc:Work>
    </rdf:RDF>
  </metadata>
  <defs
     id="defs8" />
  <sodipodi:namedview
     pagecolor="#ffffff"
     bordercolor="#666666"
     borderopacity="1"
     objecttolerance="10"
     gridtolerance="10"
     guidetolerance="10"
     inkscape:pageopacity="0"
     inkscape:pageshadow="2"
     inkscape:window-width="1280"
     inkscape:window-height="710"
     id="namedview6"
     showgrid="false"
     inkscape:zoom="3.6875"
     inkscape:cx="33.528819"
     inkscape:cy="-0.53753039"
     inkscape:window-x="-1"
     inkscape:window-y="281"
     inkscape:window-maximized="0"
     inkscape:current-layer="svg2" />
  <text
     xml:space="preserve"
     style="font-style:normal;font-weight:normal;font-size:58.64268494px;line-height:125%;font-family:sans-serif;letter-spacing:0px;word-spacing:0px;fill:#000000;fill-opacity:1;stroke:none;stroke-width:1px;stroke-linecap:butt;stroke-linejoin:miter;stroke-opacity:1"
     x="16.026186"
     y="47.191425"
     id="text10710"
     sodipodi:linespacing="125%"
     transform="scale(1.0795664,0.92629785)"><tspan
       sodipodi:role="line"
       id="tspan10712"
       x="16.026186"
       y="47.191425"
       style="fill:#800000">Q</tspan></text>
  <path
     d="m 48.791927,43.560597 0,-3.062316 -9.257434,0 c -0.28046,-3.478025 -1.522599,-6.652112 -3.432171,-9.199192 l 7.755524,0 3.355542,-13.40911 -2.973933,-0.742612 -2.774704,11.089406 -8.366248,0 c -0.04291,-0.03292 -0.08582,-0.06585 -0.129494,-0.09876 0.321071,-0.933242 0.496548,-1.933852 0.496548,-2.975804 0,-5.060475 -4.116459,-9.163212 -9.195366,-9.163212 -5.078909,0 -9.195368,4.102737 -9.195368,9.163212 0,1.041952 0.174712,2.042562 0.496549,2.975804 -0.04291,0.03292 -0.08657,0.06507 -0.129494,0.09876 l -8.3662478,0 -2.7747018,-11.089406 -2.9739338,0.742612 3.3555411,13.40911 7.7555243,0 c -1.910336,2.546312 -3.1517119,5.721167 -3.4321704,9.198427 l -9.2574335,0 0,3.062315 9.2612652,0 c 0.1823738,2.184961 0.7425273,4.249728 1.6107207,6.112378 l -5.9386726,0 -3.3555426,13.40911 2.9739353,0.742612 2.7747018,-11.089406 5.3808211,0 c 2.810715,3.733726 7.058977,6.112378 11.812981,6.112378 4.754005,0 9.002264,-2.378652 11.812981,-6.112378 l 5.380821,0 2.774702,11.089406 2.973937,-0.742612 -3.355543,-13.40911 -5.937909,0 c 0.868196,-1.863419 1.429113,-3.927417 1.610719,-6.112378 l 9.261268,0 z"
     id="path4"
     inkscape:connector-curvature="0"
     style="opacity:1;fill:#666666;fill-opacity:0.78846157;image-rendering:auto" />
</svg>
