<?xml version="1.0" encoding="UTF-8" standalone="no"?>
<!-- Generator: Adobe Illustrator 16.0.0, SVG Export Plug-In . SVG Version: 6.00 Build 0)  -->

<svg
   xmlns:dc="http://purl.org/dc/elements/1.1/"
   xmlns:cc="http://creativecommons.org/ns#"
   xmlns:rdf="http://www.w3.org/1999/02/22-rdf-syntax-ns#"
   xmlns:svg="http://www.w3.org/2000/svg"
   xmlns="http://www.w3.org/2000/svg"
   xmlns:sodipodi="http://sodipodi.sourceforge.net/DTD/sodipodi-0.dtd"
   xmlns:inkscape="http://www.inkscape.org/namespaces/inkscape"
   version="1.1"
   id="Capa_1"
   x="0px"
   y="0px"
   width="16"
   height="16"
   viewBox="0 0 16 16"
   xml:space="preserve"
   inkscape:version="0.91 r13725"
   sodipodi:docname="gps-ram-memory-symbolic.svg"><metadata
     id="metadata41"><rdf:RDF><cc:Work
         rdf:about=""><dc:format>image/svg+xml</dc:format><dc:type
           rdf:resource="http://purl.org/dc/dcmitype/StillImage" /><dc:title></dc:title></cc:Work></rdf:RDF></metadata><defs
     id="defs39" /><sodipodi:namedview
     pagecolor="#ffffff"
     bordercolor="#666666"
     borderopacity="1"
     objecttolerance="10"
     gridtolerance="10"
     guidetolerance="10"
     inkscape:pageopacity="0"
     inkscape:pageshadow="2"
     inkscape:window-width="1440"
     inkscape:window-height="793"
     id="namedview37"
     showgrid="false"
     inkscape:zoom="36.9375"
     inkscape:cx="8"
     inkscape:cy="8"
     inkscape:window-x="0"
     inkscape:window-y="1"
     inkscape:window-maximized="1"
     inkscape:current-layer="Capa_1" /><g
     id="g7"
     transform="translate(0,-451.879)" /><g
     id="g9"
     transform="translate(0,-451.879)" /><g
     id="g11"
     transform="translate(0,-451.879)" /><g
     id="g13"
     transform="translate(0,-451.879)" /><g
     id="g15"
     transform="translate(0,-451.879)" /><g
     id="g17"
     transform="translate(0,-451.879)" /><g
     id="g19"
     transform="translate(0,-451.879)" /><g
     id="g21"
     transform="translate(0,-451.879)" /><g
     id="g23"
     transform="translate(0,-451.879)" /><g
     id="g25"
     transform="translate(0,-451.879)" /><g
     id="g27"
     transform="translate(0,-451.879)" /><g
     id="g29"
     transform="translate(0,-451.879)" /><g
     id="g31"
     transform="translate(0,-451.879)" /><g
     id="g33"
     transform="translate(0,-451.879)" /><g
     id="g35"
     transform="translate(0,-451.879)" /><g
     id="g4304"
     style="opacity:0.7"
     transform="matrix(0.03419688,0,0,0.03419688,-1.00876e-6,1.608968e-5)"><g
       style="opacity:1"
       id="g4293"><g
         id="g4254"
         style="opacity:1"><g
           id="g4247"
           style=""><g
             id="g3"
             style=""><path
               d="m 372.467,178.758 c 0,2.132 -1.729,3.854 -3.857,3.854 -2.128,0 -3.857,-1.723 -3.857,-3.854 0,-2.129 1.729,-3.856 3.857,-3.856 2.124,0 3.857,1.727 3.857,3.856 z m -118.381,-3.856 c -2.134,0 -3.857,1.727 -3.857,3.856 0,2.132 1.729,3.854 3.857,3.854 2.123,0 3.852,-1.723 3.852,-3.854 0,-2.129 -1.729,-3.856 -3.852,-3.856 z m -116.271,0 c -2.132,0 -3.855,1.727 -3.855,3.856 0,2.132 1.73,3.854 3.855,3.854 2.124,0 3.856,-1.723 3.856,-3.854 0,-2.129 -1.728,-3.856 -3.856,-3.856 z m 283.835,42.227 c 0,25.532 20.695,46.228 46.229,46.228 l 0,57.436 -14.011,0 0,33.618 -18.21,0 0,-33.618 -20.441,0 0,33.618 -18.214,0 0,-33.618 -22.029,0 0,33.618 -18.209,0 0,-33.618 -20.446,0 0,33.618 -18.21,0 0,-33.618 -20.891,0 0,33.618 -18.213,0 0,-33.618 -20.442,0 0,33.618 -18.211,0 0,-33.618 -19.609,0 0,33.618 -18.209,0 0,-33.618 -18.212,0 0,33.618 -18.21,0 0,-33.618 -22.393,0 0,33.618 -18.21,0 0,-33.618 -20.446,0 0,33.618 -18.212,0 0,-33.618 -19.611,0 0,33.618 -18.211,0 0,-33.618 -18.21,0 0,33.618 -18.212,0 0,-33.618 -12.607,0 0,-57.436 c 25.535,0 46.227,-20.696 46.227,-46.228 C 46.227,191.6 25.535,170.902 0,170.902 l 0,-57.435 467.879,0 0,57.435 c -25.534,0 -46.229,20.698 -46.229,46.227 z m -257.95,-34.593 -7.529,0 0,-1.849 -7.347,0 0,-10.559 -49.936,0 0,10.372 -7.529,0 0,1.844 -7.533,0 0,4.684 7.533,0 0,2.836 7.529,0 0,6.327 -7.529,0 0,1.847 -7.533,0 0,4.679 7.533,0 0,2.837 7.529,0 0,7.256 -7.529,0 0,1.845 -7.533,0 0,4.684 7.533,0 0,2.834 7.529,0 0,6.791 -7.529,0 0,1.85 -7.533,0 0,4.681 7.533,0 0,2.835 7.529,0 0,6.058 -7.529,0 0,1.846 -7.533,0 0,4.683 7.533,0 0,2.835 7.529,0 0,10.374 49.937,0 0,-10.178 7.347,0 0,-2.834 7.529,0 0,-4.685 -7.529,0 0,-1.849 -7.347,0 0,-6.054 7.347,0 0,-2.834 7.529,0 0,-4.682 -7.529,0 0,-1.843 -7.347,0 0,-6.792 7.347,0 0,-2.834 7.529,0 0,-4.68 -7.529,0 0,-1.848 -7.347,0 0,-7.258 7.347,0 0,-2.834 7.529,0 0,-4.679 -7.529,0 0,-1.844 -7.347,0 0,-6.325 7.347,0 0,-2.834 7.529,0 0,-4.703 z m 117.672,0 -7.531,0 0,-1.849 -7.344,0 0,-10.559 -49.939,0 0,10.372 -7.529,0 0,1.844 -7.532,0 0,4.684 7.532,0 0,2.836 7.529,0 0,6.327 -7.529,0 0,1.847 -7.532,0 0,4.679 7.532,0 0,2.837 7.529,0 0,7.256 -7.529,0 0,1.845 -7.532,0 0,4.684 7.532,0 0,2.834 7.529,0 0,6.791 -7.529,0 0,1.85 -7.532,0 0,4.681 7.532,0 0,2.835 7.529,0 0,6.058 -7.529,0 0,1.846 -7.532,0 0,4.683 7.532,0 0,2.835 7.529,0 0,10.374 49.939,0 0,-10.178 7.344,0 0,-2.834 7.531,0 0,-4.685 -7.531,0 0,-1.849 -7.344,0 0,-6.054 7.344,0 0,-2.834 7.531,0 0,-4.682 -7.531,0 0,-1.843 -7.344,0 0,-6.792 7.344,0 0,-2.834 7.531,0 0,-4.68 -7.531,0 0,-1.848 -7.344,0 0,-7.258 7.344,0 0,-2.834 7.531,0 0,-4.679 -7.531,0 0,-1.844 -7.344,0 0,-6.325 7.344,0 0,-2.834 7.531,0 0,-4.703 z m 113.128,0 -7.531,0 0,-1.849 -7.344,0 0,-10.559 -49.937,0 0,10.372 -7.53,0 0,1.844 -7.528,0 0,4.684 7.528,0 0,2.836 7.53,0 0,6.327 -7.53,0 0,1.847 -7.528,0 0,4.679 7.528,0 0,2.837 7.53,0 0,7.256 -7.53,0 0,1.845 -7.528,0 0,4.684 7.528,0 0,2.834 7.53,0 0,6.791 -7.53,0 0,1.85 -7.528,0 0,4.681 7.528,0 0,2.835 7.53,0 0,6.058 -7.53,0 0,1.846 -7.528,0 0,4.683 7.528,0 0,2.835 7.53,0 0,10.374 49.937,0 0,-10.178 7.344,0 0,-2.834 7.531,0 0,-4.685 -7.531,0 0,-1.849 -7.344,0 0,-6.054 7.344,0 0,-2.834 7.531,0 0,-4.682 -7.531,0 0,-1.843 -7.344,0 0,-6.792 7.344,0 0,-2.834 7.531,0 0,-4.68 -7.531,0 0,-1.848 -7.344,0 0,-7.258 7.344,0 0,-2.834 7.531,0 0,-4.679 -7.531,0 0,-1.844 -7.344,0 0,-6.325 7.344,0 0,-2.834 7.531,0 0,-4.703 0,0 z"
               id="path5"
               inkscape:connector-curvature="0"
               style="" /></g><rect
             style="opacity:1;fill:#000000;fill-opacity:1;fill-rule:evenodd;stroke:none;stroke-width:0;stroke-miterlimit:4;stroke-dasharray:none;stroke-opacity:1"
             id="rect4245"
             width="68.295311"
             height="130.99265"
             x="148.34637"
             y="161.10988" /></g><rect
           y="155.5119"
           x="265.90387"
           height="127.63387"
           width="63.816936"
           id="rect4252"
           style="opacity:1;fill:#000000;fill-opacity:1;fill-rule:evenodd;stroke:none;stroke-width:0;stroke-miterlimit:4;stroke-dasharray:none;stroke-opacity:1" /></g><rect
         style="opacity:1;fill:#000000;fill-opacity:1;fill-rule:evenodd;stroke:none;stroke-width:0;stroke-miterlimit:4;stroke-dasharray:none;stroke-opacity:1"
         id="rect4282"
         width="44.224018"
         height="132.67204"
         x="55.979763"
         y="157.7511" /></g><rect
       y="164.46867"
       x="379.54282"
       height="112.51933"
       width="25.750692"
       id="rect4302"
       style="opacity:1;fill:#000000;fill-opacity:1;fill-rule:evenodd;stroke:none;stroke-width:0;stroke-miterlimit:4;stroke-dasharray:none;stroke-opacity:1" /></g></svg>