<?xml version="1.0" encoding="UTF-8" standalone="no"?>
<!-- Generator: Adobe Illustrator 17.1.0, SVG Export Plug-In . SVG Version: 6.00 Build 0)  -->

<svg
   xmlns:dc="http://purl.org/dc/elements/1.1/"
   xmlns:cc="http://creativecommons.org/ns#"
   xmlns:rdf="http://www.w3.org/1999/02/22-rdf-syntax-ns#"
   xmlns:svg="http://www.w3.org/2000/svg"
   xmlns="http://www.w3.org/2000/svg"
   xmlns:sodipodi="http://sodipodi.sourceforge.net/DTD/sodipodi-0.dtd"
   xmlns:inkscape="http://www.inkscape.org/namespaces/inkscape"
   version="1.1"
   id="Capa_1"
   x="0px"
   y="0px"
   viewBox="0 0 15.999999 15.999999"
   xml:space="preserve"
   inkscape:version="0.91 r13725"
   sodipodi:docname="gps-flash-memory-symbolic.svg"
   width="16"
   height="16"><metadata
     id="metadata863"><rdf:RDF><cc:Work
         rdf:about=""><dc:format>image/svg+xml</dc:format><dc:type
           rdf:resource="http://purl.org/dc/dcmitype/StillImage" /><dc:title /></cc:Work></rdf:RDF></metadata><defs
     id="defs861" /><sodipodi:namedview
     pagecolor="#ffffff"
     bordercolor="#666666"
     borderopacity="1"
     objecttolerance="10"
     gridtolerance="10"
     guidetolerance="10"
     inkscape:pageopacity="0"
     inkscape:pageshadow="2"
     inkscape:window-width="1440"
     inkscape:window-height="793"
     id="namedview859"
     showgrid="false"
     inkscape:zoom="28.44198"
     inkscape:cx="-1.6085244"
     inkscape:cy="7.2122805"
     inkscape:window-x="0"
     inkscape:window-y="1"
     inkscape:window-maximized="1"
     inkscape:current-layer="Capa_1"
     borderlayer="true" /><g
     id="g829"
     transform="translate(0,-249.52301)" /><g
     id="g831"
     transform="translate(0,-249.52301)" /><g
     id="g833"
     transform="translate(0,-249.52301)" /><g
     id="g835"
     transform="translate(0,-249.52301)" /><g
     id="g837"
     transform="translate(0,-249.52301)" /><g
     id="g839"
     transform="translate(0,-249.52301)" /><g
     id="g841"
     transform="translate(0,-249.52301)" /><g
     id="g843"
     transform="translate(0,-249.52301)" /><g
     id="g845"
     transform="translate(0,-249.52301)" /><g
     id="g847"
     transform="translate(0,-249.52301)" /><g
     id="g849"
     transform="translate(0,-249.52301)" /><g
     id="g851"
     transform="translate(0,-249.52301)" /><g
     id="g853"
     transform="translate(0,-249.52301)" /><g
     id="g855"
     transform="translate(0,-249.52301)" /><g
     id="g857"
     transform="translate(0,-249.52301)" /><flowRoot
     xml:space="preserve"
     id="flowRoot4991"
     style="font-style:normal;font-weight:normal;font-size:50px;line-height:125%;font-family:sans-serif;letter-spacing:0px;word-spacing:0px;fill:#000000;fill-opacity:1;stroke:none;stroke-width:1px;stroke-linecap:butt;stroke-linejoin:miter;stroke-opacity:1"
     transform="translate(0,-249.52301)"><flowRegion
       id="flowRegion4993"><rect
         id="rect4995"
         width="132.76151"
         height="77.631729"
         x="63.005459"
         y="95.633286"
         style="font-size:50px;fill:#000000" /></flowRegion><flowPara
       id="flowPara4997" /></flowRoot><path
     style="opacity:1;fill:#000000;fill-opacity:1;stroke:#000000;stroke-width:0.79556406;stroke-opacity:1"
     d=""
     id="path5009"
     inkscape:connector-curvature="0" /><g
     id="g3771"
     transform="matrix(0.06026204,0,0,0.06492015,-0.01566786,-0.60563284)"
     style="opacity:0.7"><path
       inkscape:connector-curvature="0"
       id="path5005"
       d="m 71.951882,253.48473 -1.952748,-1.95274 0,-19.52749 0,-19.52747 -3.833424,0 c -9.135914,0 -18.256376,-5.6086 -21.348822,-13.1284 l -1.46915,-3.57248 -18.536373,-0.003 c -22.4469326,-0.004 -24.0263051,-0.47447 -24.0263051,-7.16306 0,-6.67895 1.6010934,-7.16007 23.8274141,-7.16007 l 18.337482,0 0,-11.49615 0,-11.49616 -19.562811,-0.23841 C 3.919861,157.98204 3.8169131,157.9717 2.3046968,156.10272 c -1.72046735,-2.12636 -1.99251533,-6.9868 -0.4998802,-8.9309 2.178447,-2.83735 4.198999,-3.11332 22.7948644,-3.11332 l 18.350275,0 0,-11.53567 0,-11.53568 -19.1297,0 -19.1296998,0 -1.9527481,-1.95275 c -2.94909946,-2.9491 -2.72587641,-7.5976 0.4949839,-10.30778 l 2.4477321,-2.05963 18.6347159,0 18.634716,0 0,-11.535676 0,-11.535679 -19.1297,0 -19.1296998,0 -1.9527481,-1.952747 c -2.94909946,-2.9491 -2.72587641,-7.5976 0.4949839,-10.307775 l 2.4477321,-2.059631 18.9707999,0 18.970801,0 0.880758,-2.668724 c 2.397246,-7.263728 10.75559,-13.03309 20.005065,-13.808533 l 5.491186,-0.460361 0,-18.933788 c 0,-18.501959 0.04082,-18.980181 1.790019,-20.967913 0.984511,-1.118768 2.907993,-2.248386 4.274405,-2.5102613 2.021378,-0.3874007 2.98511,-0.028986 5.171169,1.9231653 l 2.686778,2.399301 0.239083,19.160134 0.239075,19.160135 11.495495,0 11.495492,0 0,-19.420599 0,-19.4206 2.44773,-2.059631 c 3.18056,-2.6762606 5.66964,-2.6032203 8.8765,0.260475 l 2.59814,2.320105 0.25093,19.160125 0.25094,19.160125 11.48363,0 11.48364,0 0,-19.420599 0,-19.4206 2.44773,-2.059631 c 3.09846,-2.6071865 5.53066,-2.6071865 8.62912,0 l 2.44774,2.059631 0,19.4206 0,19.420599 11.48363,0 11.48363,0 0.25094,-19.160125 0.25094,-19.160125 2.59813,-2.320105 c 3.20687,-2.8636953 5.69595,-2.9367356 8.8765,-0.260475 l 2.44774,2.059631 0,19.305213 0,19.305213 5.49119,0.460361 c 9.18517,0.770052 17.45331,6.442115 20.11322,13.79796 l 0.94092,2.602091 19.41561,0.237494 19.4156,0.237494 1.91877,2.232165 c 2.62062,3.048653 2.54956,6.86462 -0.17863,9.59281 l -2.0974,2.097396 -18.98505,0 -18.98505,0 0,11.535679 0,11.535676 18.75695,0 18.75696,0 2.32548,2.3255 c 2.51652,2.51651 3.1073,6.53488 1.30575,8.88134 -2.17846,2.83735 -4.19901,3.11332 -22.79487,3.11332 l -18.35027,0 0,11.53568 0,11.53567 18.63471,0 18.63472,0 2.44773,2.05963 c 3.46492,2.91554 3.46492,7.28536 0,10.2009 l -2.44773,2.05963 -18.63472,0 -18.63471,0 0,11.53568 0,11.53568 18.63471,0 18.63472,0 2.44773,2.05962 c 1.9471,1.63838 2.44773,2.68158 2.44773,5.10045 0,2.41888 -0.50063,3.46208 -2.44773,5.10045 l -2.44773,2.05963 -18.83361,0.003 -18.83361,0.003 -1.46915,3.57248 c -3.09244,7.51941 -12.2129,13.12801 -21.34882,13.12801 l -3.83342,0 0,19.52747 0,19.52749 -1.95275,1.95274 c -2.10897,2.10898 -5.73964,2.5754 -8.50924,1.09316 -3.32341,-1.77864 -3.85817,-5.12939 -3.85817,-24.17512 l 0,-17.92574 -11.53567,0 -11.53568,0 0,19.52747 0,19.52749 -1.95276,1.95274 c -1.34821,1.34822 -2.83714,1.95276 -4.80954,1.95276 -1.97239,0 -3.46133,-0.60454 -4.80954,-1.95276 l -1.95275,-1.95274 0,-19.52749 0,-19.52747 -11.53568,0 -11.53568,0 0,17.92574 c 0,19.04573 -0.53476,22.39648 -3.85817,24.17512 -2.7696,1.48224 -6.40026,1.01582 -8.50923,-1.09316 l -1.95275,-1.95274 0,-19.52749 0,-19.52747 -11.484465,0 -11.484453,0 -0.250117,19.56146 -0.25011,19.56147 -2.232161,1.91876 c -3.009747,2.58717 -7.130691,2.57279 -9.737462,-0.034 l 0,-2e-5 z m 96.100528,-55.92432 c -19.36204,-0.11861 -51.04538,-0.11861 -70.407424,0 -19.362041,0.11861 -3.520371,0.21566 35.203714,0.21566 38.72408,0 54.56575,-0.097 35.20371,-0.21566 z M 60.850147,195.77018 c -0.791973,-0.87512 -1.797955,-1.59113 -2.235515,-1.59113 -0.43756,0 -0.147586,0.71601 0.644387,1.59113 0.791973,0.87512 1.797955,1.59113 2.235515,1.59113 0.437561,0 0.147586,-0.71601 -0.644387,-1.59113 z m 145.588223,0 c 0.79198,-0.87512 1.08195,-1.59113 0.64439,-1.59113 -0.43756,0 -1.44354,0.71601 -2.23552,1.59113 -0.79197,0.87512 -1.08195,1.59113 -0.64439,1.59113 0.43756,0 1.44355,-0.71601 2.23552,-1.59113 z M 60.964992,69.789116 63.466529,67.684364 133.36133,67.489899 203.25612,67.295435 133.64426,67.08323 c -51.039723,-0.155588 -70.204005,0.03167 -71.831342,0.70189 -4.784017,1.970292 -4.560441,-1.375305 -4.351332,65.11363 l 0.191477,60.88252 0.405196,-60.9437 0.405196,-60.943702 2.501537,-2.104752 z m 147.462288,62.697564 0,-60.89682 -2.03713,-2.037126 c -1.12041,-1.120419 -2.28393,-1.788064 -2.58558,-1.483655 -0.30165,0.30441 0.43606,1.340338 1.63935,2.302065 l 2.1878,1.748592 0,60.631874 c 0,33.34753 0.179,60.63188 0.39778,60.63188 0.21878,0 0.39778,-27.40357 0.39778,-60.89681 z"
       style="opacity:1;fill:#000000;fill-opacity:1;stroke:#000000;stroke-width:0.79556406;stroke-opacity:1" /><rect
       y="32.761505"
       x="32.518005"
       height="200"
       width="200.487"
       id="rect5043"
       style="opacity:1;fill:#000000;fill-opacity:1;stroke:#000000;stroke-opacity:1" /></g></svg>