<?xml version="1.0" encoding="utf-8"?>
<!-- Generator: Adobe Illustrator 16.0.0, SVG Export Plug-In . SVG Version: 6.00 Build 0)  -->
<!DOCTYPE svg PUBLIC "-//W3C//DTD SVG 1.1//EN" "http://www.w3.org/Graphics/SVG/1.1/DTD/svg11.dtd">
<svg version="1.1" id="Layer_1" xmlns="http://www.w3.org/2000/svg" xmlns:xlink="http://www.w3.org/1999/xlink" x="0px" y="0px"
	 width="16px" height="16px" viewBox="0 0 16 16" enable-background="new 0 0 16 16" xml:space="preserve">
<linearGradient id="SVGID_1_" gradientUnits="userSpaceOnUse" x1="8.1001" y1="2.001" x2="8.1001" y2="14.1274">
	<stop  offset="0" style="stop-color:#000000;stop-opacity:0.7"/>
	<stop  offset="1" style="stop-color:#000000;stop-opacity:0.6"/>
</linearGradient>
<path fill="url(#SVGID_1_)" d="M3.555,12.127c-0.284,0.29-0.277,0.771,0.013,1.034l0.756,0.757c0.291,0.284,0.77,0.277,1.035-0.014
	l6.083-6.897l-1.396-1.399L3.555,12.127z M3.663,10.059C3.083,9.73,2.687,9.115,2.687,8.4c0-1.057,0.856-1.913,1.912-1.913
	c0.712,0,1.325,0.393,1.655,0.968l1.361-1.367c-0.14-0.084-0.274-0.182-0.398-0.305C6.83,5.396,6.712,4.934,6.86,4.363
	C6.584,4.213,6.291,4.092,5.984,4C5.688,4.51,5.148,4.848,4.601,4.848C4.052,4.848,3.514,4.51,3.216,4
	c-0.306,0.092-0.6,0.213-0.875,0.363c0.149,0.57,0.03,1.032-0.358,1.42c-0.388,0.388-0.85,0.611-1.42,0.463
	C0.412,6.521,0.291,6.814,0.2,7.121C0.709,7.419,1.047,7.853,1.047,8.4c0,0.547-0.338,1.086-0.847,1.385
	c0.091,0.306,0.212,0.6,0.362,0.875c0.57-0.149,1.032-0.03,1.42,0.357c0.134,0.133,0.224,0.28,0.294,0.435L3.663,10.059z
	 M15.837,6.226l-0.215-0.229c-0.153-0.17-0.461-0.224-0.649-0.05c-0.175,0.003-0.404-0.071-0.578-0.241
	c-0.369-0.397-0.131-1.109-0.381-1.355c-0.117-0.114-0.582-0.567-1.029-1.002c-0.482-0.473-1.825-1.989-5.319-1.044L7.69,2.743
	c0,0,1.742-0.04,3.003,1.171c0,0,0.466,0.492,0.029,0.938c-0.111,0.136-0.17,0.192-0.17,0.192l-0.226,0.234l1.435,1.379
	c0,0,0.303-0.328,0.397-0.406C12.385,6,12.98,6.013,13.443,6.485c0.332,0.302,0.394,0.646,0.223,0.763
	C13.572,7.384,13.65,7.67,13.827,7.82l0.231,0.246c0.231,0.208,0.56,0.203,0.767-0.009l1.022-1.067
	C16.055,6.758,16.052,6.433,15.837,6.226z"/>
</svg>
