<?xml version="1.0" encoding="UTF-8" standalone="no"?>
<!-- Created with Inkscape (http://www.inkscape.org/) -->

<svg
   xmlns:dc="http://purl.org/dc/elements/1.1/"
   xmlns:cc="http://creativecommons.org/ns#"
   xmlns:rdf="http://www.w3.org/1999/02/22-rdf-syntax-ns#"
   xmlns:svg="http://www.w3.org/2000/svg"
   xmlns="http://www.w3.org/2000/svg"
   version="1.1"
   width="16"
   height="16"
   viewBox="0 0 16 16"
   id="Layer_1"
   xml:space="preserve"><metadata
     id="metadata3499"><rdf:RDF><cc:Work
         rdf:about=""><dc:format>image/svg+xml</dc:format><dc:type
           rdf:resource="http://purl.org/dc/dcmitype/StillImage" /><dc:title></dc:title></cc:Work></rdf:RDF></metadata><defs
     id="defs3497" /><linearGradient
     x1="5.9994998"
     y1="1"
     x2="5.9994998"
     y2="11.0005"
     id="SVGID_1_"
     gradientUnits="userSpaceOnUse"
     gradientTransform="matrix(1.3864407,0,0,1.3864407,-0.09152539,-0.2)"><stop
       id="stop3489"
       style="stop-color:#000000;stop-opacity:0.69999999"
       offset="0" /><stop
       id="stop3491"
       style="stop-color:#000000;stop-opacity:0.60000002"
       offset="1" /></linearGradient><path
     d="M 11.022183,6.7322034 H 11 V 3.8192916 C 11,1.5164136 10.331736,1.1864407 8.2146407,1.1864407 6.0975458,1.1864407 5.4542373,1.5178 5.4542373,3.8192916 V 3.9593221 H 6.840678 V 2.5728814 h 1.3753491 1.3975322 v 4.159322 H 8.2271186 6.840678 5.4542373 l 0,0 c -1.3864407,0 -1.3864407,0 -1.3864407,1.3864407 v 5.5457619 c 0,1.386441 0,1.386441 1.3864407,1.386441 H 11 c 1.386441,0 1.386441,0 1.386441,-1.386441 V 8.1186441 c 0,-1.3864407 0,-1.3864407 -1.364258,-1.3864407 z"
     id="path3493"
     style="fill:url(#SVGID_1_)" /></svg>