<?xml version="1.0" encoding="utf-8"?>
<!-- Generator: Adobe Illustrator 16.0.0, SVG Export Plug-In . SVG Version: 6.00 Build 0)  -->
<!DOCTYPE svg PUBLIC "-//W3C//DTD SVG 1.1//EN" "http://www.w3.org/Graphics/SVG/1.1/DTD/svg11.dtd">
<svg version="1.1" id="Layer_1" xmlns="http://www.w3.org/2000/svg" xmlns:xlink="http://www.w3.org/1999/xlink" x="0px" y="0px"
	 width="16px" height="16px" viewBox="0 0 16 16" enable-background="new 0 0 16 16" xml:space="preserve">
<g>
	
		<linearGradient id="SVGID_1_" gradientUnits="userSpaceOnUse" x1="305.9971" y1="-372.0454" x2="305.9971" y2="-384.0005" gradientTransform="matrix(1 0 0 -1 -298 -370)">
		<stop  offset="0" style="stop-color:#000000;stop-opacity:0.7"/>
		<stop  offset="1" style="stop-color:#000000;stop-opacity:0.6"/>
	</linearGradient>
	<path fill="url(#SVGID_1_)" d="M1.941,5.608h12.113c0.405,0,0.341-0.433,0.137-0.503c-0.204-0.071-2.455-0.922-2.845-0.922h-0.644
		V2.045H5.291v2.137H4.649c-0.393,0-2.642,0.851-2.844,0.922C1.602,5.175,1.535,5.608,1.941,5.608z M14.197,6.391H1.8
		c-0.393,0-0.784,0.463-0.784,0.856v2.491c0,0.393,0.391,0.857,0.784,0.857H3.21L2.583,14h10.828l-0.625-3.406h1.411
		c0.391,0,0.782-0.461,0.782-0.857V7.247C14.979,6.854,14.588,6.391,14.197,6.391z M4.008,12.732l0.998-4.631h5.984l0.997,4.629
		H4.008V12.732z"/>
</g>
</svg>
