<?xml version="1.0" encoding="UTF-8" standalone="no"?>
<!-- Generated by IcoMoon.io -->

<svg
   xmlns:dc="http://purl.org/dc/elements/1.1/"
   xmlns:cc="http://creativecommons.org/ns#"
   xmlns:rdf="http://www.w3.org/1999/02/22-rdf-syntax-ns#"
   xmlns:svg="http://www.w3.org/2000/svg"
   xmlns="http://www.w3.org/2000/svg"
   xmlns:sodipodi="http://sodipodi.sourceforge.net/DTD/sodipodi-0.dtd"
   xmlns:inkscape="http://www.inkscape.org/namespaces/inkscape"
   version="1.1"
   width="64"
   height="64"
   viewBox="0 0 64 64"
   id="svg2"
   inkscape:version="0.91 r13725"
   sodipodi:docname="gps-boardloading-flash-symbolic.svg">
  <metadata
     id="metadata10">
    <rdf:RDF>
      <cc:Work
         rdf:about="">
        <dc:format>image/svg+xml</dc:format>
        <dc:type
           rdf:resource="http://purl.org/dc/dcmitype/StillImage" />
        <dc:title />
      </cc:Work>
    </rdf:RDF>
  </metadata>
  <defs
     id="defs8" />
  <sodipodi:namedview
     pagecolor="#ffffff"
     bordercolor="#666666"
     borderopacity="1"
     objecttolerance="10"
     gridtolerance="10"
     guidetolerance="10"
     inkscape:pageopacity="0"
     inkscape:pageshadow="2"
     inkscape:window-width="1440"
     inkscape:window-height="851"
     id="namedview6"
     showgrid="false"
     inkscape:zoom="3.6875"
     inkscape:cx="-59.118644"
     inkscape:cy="32"
     inkscape:window-x="0"
     inkscape:window-y="1"
     inkscape:window-maximized="1"
     inkscape:current-layer="svg2" />
  <path
     d="m 24.0226,41.78531 6.19209,0 0,-12.38418 9.288136,0 -12.384181,-12.384181 -12.384181,12.384181 9.288136,0 z m 9.288136,-6.966101 0,4.774876 14.177564,5.28727 -20.369655,7.596148 -20.3696558,-7.596148 14.1775648,-5.28727 0,-4.774876 -18.5762713,6.966101 0,12.384181 24.7683623,9.288136 24.768361,-9.288136 0,-12.384181 z"
     id="path4"
     inkscape:connector-curvature="0"
     style="opacity:1;fill:#000000" />
  <path
     id="path4198"
     d="m 63.457627,20.440678 -4.543897,0 C 57.669705,12.416101 51.312713,6.0591096 43.288136,4.8150844 l 0,-4.54389788 -5.762712,0 0,4.54389788 C 29.500847,6.0591096 23.143856,12.416101 21.899831,20.440678 l -4.543898,0 0,5.762712 4.543898,0 c 1.244025,8.024577 7.601016,14.381568 15.625593,15.625593 l 0,4.543898 5.762712,0 0,-4.543898 C 51.312713,40.584958 57.669705,34.227967 58.91373,26.20339 l 4.543897,0 0,-5.762712 z m -10.408177,0 -4.491314,0 c -0.868009,-2.455636 -2.814364,-4.401991 -5.27,-5.27 l 0,-4.491314 c 4.840678,1.102839 8.659195,4.921356 9.761314,9.761314 z M 40.406781,26.20339 c -1.591229,0 -2.881357,-1.290128 -2.881357,-2.881357 0,-1.591228 1.290128,-2.881355 2.881357,-2.881355 1.591228,0 2.881355,1.290127 2.881355,2.881355 0,1.591229 -1.290127,2.881357 -2.881355,2.881357 z m -2.881357,-15.524026 0,4.491314 c -2.455635,0.868009 -4.401991,2.814364 -5.27,5.27 l -4.491313,0 C 28.86695,15.6 32.685466,11.781483 37.525424,10.679364 Z m -9.761313,15.524026 4.491313,0 c 0.868009,2.455635 2.814365,4.401991 5.27,5.27 l 0,4.491313 C 32.684746,34.861864 28.86623,31.043348 27.764111,26.20339 Z m 15.524025,9.761313 0,-4.491313 c 2.455636,-0.868009 4.401991,-2.814365 5.27,-5.27 l 4.491314,0 c -1.102839,4.840678 -4.921356,8.659194 -9.761314,9.761313 z"
     inkscape:connector-curvature="0"
     style="fill:#000000;opacity:0.37" />
</svg>
