<?xml version="1.0" encoding="UTF-8" standalone="no"?>
<!-- Generated by IcoMoon.io -->

<svg
   xmlns:dc="http://purl.org/dc/elements/1.1/"
   xmlns:cc="http://creativecommons.org/ns#"
   xmlns:rdf="http://www.w3.org/1999/02/22-rdf-syntax-ns#"
   xmlns:svg="http://www.w3.org/2000/svg"
   xmlns="http://www.w3.org/2000/svg"
   xmlns:sodipodi="http://sodipodi.sourceforge.net/DTD/sodipodi-0.dtd"
   xmlns:inkscape="http://www.inkscape.org/namespaces/inkscape"
   version="1.1"
   width="64"
   height="64"
   viewBox="0 0 64 64"
   id="svg2"
   inkscape:version="0.91 r13725"
   sodipodi:docname="gps-boardloading-debug-symbolic.svg">
  <metadata
     id="metadata10">
    <rdf:RDF>
      <cc:Work
         rdf:about="">
        <dc:format>image/svg+xml</dc:format>
        <dc:type
           rdf:resource="http://purl.org/dc/dcmitype/StillImage" />
        <dc:title />
      </cc:Work>
    </rdf:RDF>
  </metadata>
  <defs
     id="defs8" />
  <sodipodi:namedview
     pagecolor="#ffffff"
     bordercolor="#666666"
     borderopacity="1"
     objecttolerance="10"
     gridtolerance="10"
     guidetolerance="10"
     inkscape:pageopacity="0"
     inkscape:pageshadow="2"
     inkscape:window-width="1440"
     inkscape:window-height="851"
     id="namedview6"
     showgrid="false"
     inkscape:zoom="3.6875"
     inkscape:cx="-13.559322"
     inkscape:cy="32"
     inkscape:window-x="0"
     inkscape:window-y="1"
     inkscape:window-maximized="1"
     inkscape:current-layer="svg2" />
  <path
     d="m 45.808877,44.438423 0,-2.88867 -8.489598,0 c -0.257197,-3.280807 -1.39631,-6.274911 -3.147497,-8.677561 l 7.112261,0 3.077224,-12.64876 -2.727268,-0.700503 -2.544561,10.460593 -7.67233,0 c -0.03936,-0.03105 -0.0787,-0.06211 -0.11876,-0.09316 0.294441,-0.880321 0.455363,-1.824193 0.455363,-2.807064 0,-4.773525 -3.775028,-8.64362 -8.432676,-8.64362 -4.65765,0 -8.432678,3.870095 -8.432678,8.64362 0,0.982871 0.160221,1.926743 0.455364,2.807064 -0.03936,0.03105 -0.0794,0.06138 -0.11876,0.09316 l -7.6723308,0 -2.5445608,-10.460593 -2.727268,0.700503 3.077224,12.64876 7.1122616,0 c -1.751889,2.401927 -2.8903008,5.396754 -3.147498,8.67684 l -8.48959752,0 0,2.888668 8.49311122,0 c 0.1672478,2.061066 0.6809393,4.008752 1.4771233,5.765783 l -5.4461034,0 -3.077224,12.64876 2.727268,0.700503 2.5445609,-10.460593 4.9345215,0 c 2.577589,3.52201 6.473486,5.765784 10.83318,5.765784 4.359694,0 8.255591,-2.243774 10.83318,-5.765784 l 4.934521,0 2.544561,10.460593 2.727269,-0.700503 -3.077225,-12.64876 -5.445402,0 c 0.796186,-1.757754 1.310579,-3.704717 1.477124,-5.765783 l 8.493112,0 z"
     id="path4"
     inkscape:connector-curvature="0"
     style="fill:#000000;opacity:1" />
  <path
     id="path4220"
     d="m 63.728814,19.481206 -4.543898,0 C 57.940889,11.805527 51.5839,5.7249283 43.559321,4.5349893 l 0,-4.34633556 -5.762713,0 0,4.34633556 C 29.772033,5.7249283 23.415042,11.805527 22.171017,19.481206 l -4.543898,0 0,5.512163 4.543898,0 c 1.244025,7.675681 7.601016,13.756282 15.625591,14.946217 l 0,4.346339 5.762713,0 0,-4.346339 C 51.5839,38.749651 57.940889,32.66905 59.184916,24.993369 l 4.543898,0 0,-5.512163 z m -10.40818,0 -4.491313,0 c -0.868007,-2.348866 -2.814364,-4.210597 -5.27,-5.040866 l 0,-4.29604 c 4.84068,1.054889 8.659196,4.707385 9.761313,9.336906 z m -12.642668,5.512163 c -1.59123,0 -2.881358,-1.234035 -2.881358,-2.756084 0,-1.522045 1.290128,-2.756079 2.881358,-2.756079 1.591229,0 2.881355,1.234034 2.881355,2.756079 0,1.522049 -1.290126,2.756084 -2.881355,2.756084 z M 37.796608,10.1443 l 0,4.29604 c -2.455633,0.830269 -4.401989,2.692 -5.27,5.040866 l -4.491311,0 c 1.102838,-4.63021 4.921355,-8.282704 9.761311,-9.336906 z m -9.761311,14.849069 4.491311,0 c 0.868011,2.348866 2.814367,4.210599 5.27,5.04087 l 0,4.296037 c -4.840676,-1.054889 -8.659192,-4.707385 -9.761311,-9.336907 z m 15.524024,9.336907 0,-4.296037 c 2.455636,-0.830271 4.401993,-2.692004 5.27,-5.04087 l 4.491313,0 c -1.102838,4.630215 -4.921355,8.282707 -9.761313,9.336907 z"
     inkscape:connector-curvature="0"
     style="fill:#000000;fill-opacity:1;opacity:0.37" />
</svg>
