<?xml version="1.0" encoding="UTF-8" standalone="no"?>
<!-- Generator: Adobe Illustrator 16.0.0, SVG Export Plug-In . SVG Version: 6.00 Build 0)  -->

<svg
   xmlns:dc="http://purl.org/dc/elements/1.1/"
   xmlns:cc="http://creativecommons.org/ns#"
   xmlns:rdf="http://www.w3.org/1999/02/22-rdf-syntax-ns#"
   xmlns:svg="http://www.w3.org/2000/svg"
   xmlns="http://www.w3.org/2000/svg"
   xmlns:sodipodi="http://sodipodi.sourceforge.net/DTD/sodipodi-0.dtd"
   xmlns:inkscape="http://www.inkscape.org/namespaces/inkscape"
   version="1.1"
   id="Layer_1"
   x="0px"
   y="0px"
   width="16px"
   height="16px"
   viewBox="0 0 16 16"
   enable-background="new 0 0 16 16"
   xml:space="preserve"
   inkscape:version="0.91 r13725"
   sodipodi:docname="gps-stop-save-symbolic.svg"><metadata
     id="metadata3392"><rdf:RDF><cc:Work
         rdf:about=""><dc:format>image/svg+xml</dc:format><dc:type
           rdf:resource="http://purl.org/dc/dcmitype/StillImage" /><dc:title /></cc:Work></rdf:RDF></metadata><defs
     id="defs3390" /><sodipodi:namedview
     pagecolor="#ffffff"
     bordercolor="#666666"
     borderopacity="1"
     objecttolerance="10"
     gridtolerance="10"
     guidetolerance="10"
     inkscape:pageopacity="0"
     inkscape:pageshadow="2"
     inkscape:window-width="1228"
     inkscape:window-height="782"
     id="namedview3388"
     showgrid="false"
     inkscape:zoom="36.5625"
     inkscape:cx="4.034188"
     inkscape:cy="8"
     inkscape:window-x="0"
     inkscape:window-y="0"
     inkscape:window-maximized="0"
     inkscape:current-layer="Layer_1" /><linearGradient
     id="SVGID_1_"
     gradientUnits="userSpaceOnUse"
     x1="7.9995"
     y1="1"
     x2="7.9995"
     y2="15.0005"><stop
       offset="0"
       style="stop-color:#010101;stop-opacity:0.7"
       id="stop3382" /><stop
       offset="1"
       style="stop-color:#010101;stop-opacity:0.6"
       id="stop3384" /></linearGradient><path
     fill="url(#SVGID_1_)"
     d="M13.073,1H2.667C1.706,1,1,1.874,1,2.833v10.797C1,14.589,1.623,15,2.583,15h10.708  C14.252,15,15,14.417,15,13.459V3.189L13.073,1z M12,8c0,0.479-0.125,1-1.292,1H5.087C4.308,9,4,8.51,4,8V2h8V8z M11,3H7v3h4V3z"
     id="path3386" /><path
     style="fill:#ffffff;fill-opacity:1;fill-rule:evenodd;stroke:#000000;stroke-width:0;stroke-linecap:butt;stroke-linejoin:miter;stroke-miterlimit:1.79999995;stroke-dasharray:none;stroke-opacity:1"
     d="M 0.4348963,13.726458 13.538913,0.60830396 15.479745,2.5470444 2.3757284,15.665201 Z"
     id="path3398"
     inkscape:connector-curvature="0" /></svg>