<?xml version="1.0" encoding="utf-8"?>
<!DOCTYPE svg PUBLIC "-//W3C//DTD SVG 1.1//EN" "http://www.w3.org/Graphics/SVG/1.1/DTD/svg11.dtd">
<svg version="1.1" id="Layer_1" xmlns="http://www.w3.org/2000/svg" xmlns:xlink="http://www.w3.org/1999/xlink" x="0px" y="0px"
	 width="1024px" height="1024px" viewBox="0 0 1024 1024" xml:space="preserve">
<g>
   <path class="path1" style="color:#000000" d="M384 977.13c-20.554 0-39.84-7.966-54.306-22.43l-260.394-260.395c-14.466-14.464-22.432-33.75-22.432-54.304s7.966-39.84 22.434-54.306l439.594-439.592c24.91-24.914 70.269-43.702 105.504-43.702h230.4c42.349 0 76.8 34.453 76.8 76.8v230.4c0 35.232-18.787 80.59-43.699 105.504l-439.595 439.595c-14.466 14.466-33.752 22.43-54.306 22.43zM614.4 153.6c-21.246 0-54.278 13.682-69.299 28.704l-439.595 439.595c-4.795 4.795-7.435 11.224-7.435 18.101s2.64 13.306 7.435 18.099l260.394 260.397c4.795 4.794 11.224 7.434 18.101 7.434s13.307-2.64 18.102-7.435l439.594-439.592c15.021-15.024 28.704-48.058 28.704-69.302v-230.4c0-14.115-11.485-25.6-25.6-25.6h-230.4z"></path>
   <path class="path2" style="color:#000000" d="M742.4 358.4c-42.349 0-76.8-34.453-76.8-76.8s34.451-76.8 76.8-76.8 76.8 34.453 76.8 76.8-34.451 76.8-76.8 76.8zM742.4 256c-14.115 0-25.6 11.485-25.6 25.6s11.485 25.6 25.6 25.6 25.6-11.485 25.6-25.6-11.485-25.6-25.6-25.6z"></path>
</g>
</svg>

