<?xml version="1.0" encoding="UTF-8" standalone="no"?>
<!-- Created with Inkscape (http://www.inkscape.org/) -->

<svg
   xmlns:dc="http://purl.org/dc/elements/1.1/"
   xmlns:cc="http://creativecommons.org/ns#"
   xmlns:rdf="http://www.w3.org/1999/02/22-rdf-syntax-ns#"
   xmlns:svg="http://www.w3.org/2000/svg"
   xmlns="http://www.w3.org/2000/svg"
   xmlns:sodipodi="http://sodipodi.sourceforge.net/DTD/sodipodi-0.dtd"
   xmlns:inkscape="http://www.inkscape.org/namespaces/inkscape"
   width="16px"
   height="16px"
   id="svg3881"
   version="1.1"
   inkscape:version="0.48.4 r9939"
   sodipodi:docname="gps-select-all-symbolic.svg">
  <defs
     id="defs3883" />
  <sodipodi:namedview
     id="base"
     pagecolor="#ffffff"
     bordercolor="#666666"
     borderopacity="1.0"
     inkscape:pageopacity="0"
     inkscape:pageshadow="2"
     inkscape:zoom="22.197802"
     inkscape:cx="8"
     inkscape:cy="8"
     inkscape:current-layer="layer1"
     showgrid="true"
     inkscape:grid-bbox="true"
     inkscape:document-units="px"
     inkscape:window-width="882"
     inkscape:window-height="741"
     inkscape:window-x="16"
     inkscape:window-y="0"
     inkscape:window-maximized="0" />
  <metadata
     id="metadata3886">
    <rdf:RDF>
      <cc:Work
         rdf:about="">
        <dc:format>image/svg+xml</dc:format>
        <dc:type
           rdf:resource="http://purl.org/dc/dcmitype/StillImage" />
        <dc:title></dc:title>
      </cc:Work>
    </rdf:RDF>
  </metadata>
  <g
     id="layer1"
     inkscape:label="Layer 1"
     inkscape:groupmode="layer">
    <path
       style="font-size:medium;font-style:normal;font-variant:normal;font-weight:normal;font-stretch:normal;text-indent:0;text-align:start;text-decoration:none;line-height:normal;letter-spacing:normal;word-spacing:normal;text-transform:none;direction:ltr;block-progression:tb;writing-mode:lr-tb;text-anchor:start;baseline-shift:baseline;color:#000000;fill:#000000;fill-opacity:1;stroke:none;stroke-width:1;marker:none;visibility:visible;display:inline;overflow:visible;enable-background:accumulate;font-family:Sans;-inkscape-font-specification:Sans"
       d="m 2.125,2.625 0,0.5 0,3.6875 0,0.5 0.5,0 6.78125,0 0.5,0 0,-0.5 0,-3.6875 0,-0.5 -0.5,0 -6.78125,0 -0.5,0 z m 1,1 5.78125,0 0,2.6875 -5.78125,0 0,-2.6875 z"
       id="rect3889"
       inkscape:connector-curvature="0" />
    <path
       style="font-size:medium;font-style:normal;font-variant:normal;font-weight:normal;font-stretch:normal;text-indent:0;text-align:start;text-decoration:none;line-height:normal;letter-spacing:normal;word-spacing:normal;text-transform:none;direction:ltr;block-progression:tb;writing-mode:lr-tb;text-anchor:start;baseline-shift:baseline;color:#000000;fill:#000000;fill-opacity:1;stroke:none;stroke-width:1;marker:none;visibility:visible;display:inline;overflow:visible;enable-background:accumulate;font-family:Sans;-inkscape-font-specification:Sans"
       d="m 5.78125,8.875 0,0.5 0,3.6875 0,0.5 0.5,0 6.8125,0 0.5,0 0,-0.5 0,-3.6875 0,-0.5 -0.5,0 -6.8125,0 -0.5,0 z m 1,1 5.8125,0 0,2.6875 -5.8125,0 0,-2.6875 z"
       id="rect3889-0"
       inkscape:connector-curvature="0" />
    <path
       style="font-size:medium;font-style:normal;font-variant:normal;font-weight:normal;font-stretch:normal;text-indent:0;text-align:start;text-decoration:none;line-height:normal;letter-spacing:normal;word-spacing:normal;text-transform:none;direction:ltr;block-progression:tb;writing-mode:lr-tb;text-anchor:start;baseline-shift:baseline;color:#000000;fill:#000000;fill-opacity:1;stroke:none;stroke-width:0.60000002;marker:none;visibility:visible;display:inline;overflow:visible;enable-background:accumulate;font-family:Sans;-inkscape-font-specification:Sans"
       d="m 0.5,1.28125 -0.3125,0 0,0.40625 0.59375,0 0,-0.125 0.90625,0 0,-0.59375 -1.1875,0 z m 1.78125,0.28125 1.21875,0 0,-0.59375 -1.21875,0 z m 1.8125,0 1.1875,0 0,-0.59375 -1.1875,0 z m 1.8125,0 1.1875,0 0,-0.59375 -1.1875,0 z m 1.78125,0 1.21875,0 0,-0.59375 -1.21875,0 z m 1.8125,0 1.1875,0 0,-0.59375 -1.1875,0 z m 1.78125,0 1.21875,0 0,-0.59375 -1.21875,0 z m 1.8125,0 1.1875,0 0,-0.59375 -1.1875,0 z m 1.8125,-0.28125 -0.25,0 0,1.125 0.59375,0 0,-1.125 0,-0.3125 -0.28125,0 -0.0625,0 z M 0.1875,3.5 l 0.59375,0 0,-1.21875 -0.59375,0 z m 14.46875,0.71875 0.59375,0 L 15.25,3 14.65625,3 z m -14.46875,1.0625 0.59375,0 0,-1.1875 -0.59375,0 z M 14.65625,6 15.25,6 l 0,-1.1875 -0.59375,0 z M 0.1875,7.09375 l 0.59375,0 0,-1.21875 -0.59375,0 z m 14.46875,0.71875 0.59375,0 0,-1.21875 -0.59375,0 z M 0.1875,8.875 l 0.59375,0 0,-1.1875 -0.59375,0 z m 14.46875,0.71875 0.59375,0 0,-1.1875 -0.59375,0 z M 0.1875,10.6875 l 0.59375,0 0,-1.1875 -0.59375,0 z m 14.46875,0.71875 0.59375,0 0,-1.1875 -0.59375,0 z M 0.1875,12.5 l 0.59375,0 0,-1.21875 -0.59375,0 z m 14.46875,0.71875 0.59375,0 0,-1.21875 -0.59375,0 z m -14.46875,1.0625 0.59375,0 0,-1.1875 -0.59375,0 z m 14.46875,0.625 0.21875,0 0,0.3125 0.09375,0 0.28125,0 0,-0.3125 0,-1.09375 -0.59375,0 z M 0.5,14.875 l -0.3125,0 0,0.03125 0,0.3125 0.3125,0 1.15625,0 0,-0.59375 -1.15625,0 z m 1.78125,0.34375 1.1875,0 0,-0.59375 -1.1875,0 z m 1.78125,0 1.21875,0 0,-0.59375 -1.21875,0 z m 1.8125,0 1.1875,0 0,-0.59375 -1.1875,0 z m 1.78125,0 1.21875,0 0,-0.59375 -1.21875,0 z m 1.8125,0 1.1875,0 0,-0.59375 -1.1875,0 z m 1.8125,0 1.1875,0 0,-0.59375 -1.1875,0 z m 1.78125,0 1.21875,0 0,-0.59375 -1.21875,0 z"
       id="rect4417"
       inkscape:connector-curvature="0" />
  </g>
</svg>
