<?xml version="1.0" encoding="utf-8"?>
<!-- Generator: Adobe Illustrator 16.0.0, SVG Export Plug-In . SVG Version: 6.00 Build 0)  -->
<!DOCTYPE svg PUBLIC "-//W3C//DTD SVG 1.1//EN" "http://www.w3.org/Graphics/SVG/1.1/DTD/svg11.dtd">
<svg version="1.1" id="Layer_1" xmlns="http://www.w3.org/2000/svg" xmlns:xlink="http://www.w3.org/1999/xlink" x="0px" y="0px"
	 width="16px" height="16px" viewBox="0 0 16 16" enable-background="new 0 0 16 16" xml:space="preserve">
<g>
	
		<linearGradient id="SVGID_1_" gradientUnits="userSpaceOnUse" x1="306.0039" y1="-370.9995" x2="306.0039" y2="-385.0005" gradientTransform="matrix(1 0 0 -1 -298 -370)">
		<stop  offset="0" style="stop-color:#000000;stop-opacity:0.7"/>
		<stop  offset="1" style="stop-color:#000000;stop-opacity:0.6"/>
	</linearGradient>
	<path fill="url(#SVGID_1_)" d="M13.889,2.111c-1.291-1.294-2.266-1.102-2.266-1.102L7.092,5.544l-5.183,5.181L1.004,15l4.274-0.906
		l5.179-5.183l4.537-4.534C14.994,4.377,15.188,3.408,13.889,2.111z M5.022,13.579l-1.456,0.312
		c-0.141-0.259-0.311-0.523-0.622-0.832c-0.31-0.312-0.573-0.482-0.838-0.621l0.314-1.457l0.422-0.421c0,0,0.792,0.016,1.688,0.909
		c0.894,0.897,0.91,1.688,0.91,1.688L5.022,13.579z"/>
</g>
</svg>
