<?xml version="1.0" encoding="UTF-8" standalone="no"?>
<!-- Generated by IcoMoon.io -->

<svg
   xmlns:dc="http://purl.org/dc/elements/1.1/"
   xmlns:cc="http://creativecommons.org/ns#"
   xmlns:rdf="http://www.w3.org/1999/02/22-rdf-syntax-ns#"
   xmlns:svg="http://www.w3.org/2000/svg"
   xmlns="http://www.w3.org/2000/svg"
   xmlns:xlink="http://www.w3.org/1999/xlink"
   xmlns:sodipodi="http://sodipodi.sourceforge.net/DTD/sodipodi-0.dtd"
   xmlns:inkscape="http://www.inkscape.org/namespaces/inkscape"
   version="1.1"
   width="64"
   height="64"
   viewBox="0 0 64 64"
   id="svg2"
   inkscape:version="0.48.4 r9939"
   sodipodi:docname="gps-debugger-initialize-symbolic.svg">
  <metadata
     id="metadata10">
    <rdf:RDF>
      <cc:Work
         rdf:about="">
        <dc:format>image/svg+xml</dc:format>
        <dc:type
           rdf:resource="http://purl.org/dc/dcmitype/StillImage" />
        <dc:title></dc:title>
      </cc:Work>
    </rdf:RDF>
  </metadata>
  <defs
     id="defs8">
    <linearGradient
       id="SVGID_1_"
       gradientUnits="userSpaceOnUse"
       x1="305.91699"
       y1="-370"
       x2="305.91699"
       y2="-385.83539"
       gradientTransform="matrix(1,0,0,-1,-298,-370)">
      <stop
         offset="0"
         style="stop-color:#000000;stop-opacity:0.7"
         id="stop4920" />
      <stop
         offset="1"
         style="stop-color:#000000;stop-opacity:0.6"
         id="stop4922" />
    </linearGradient>
    <linearGradient
       y2="-385.83539"
       x2="305.91699"
       y1="-370"
       x1="305.91699"
       gradientTransform="matrix(2.7785801,0,0,-2.7785669,-811.82609,-1027.4428)"
       gradientUnits="userSpaceOnUse"
       id="linearGradient5034"
       xlink:href="#SVGID_1_"
       inkscape:collect="always" />
  </defs>
  <sodipodi:namedview
     pagecolor="#ffffff"
     bordercolor="#666666"
     borderopacity="1"
     objecttolerance="10"
     gridtolerance="10"
     guidetolerance="10"
     inkscape:pageopacity="0"
     inkscape:pageshadow="2"
     inkscape:window-width="3246"
     inkscape:window-height="2058"
     id="namedview6"
     showgrid="false"
     inkscape:zoom="21.232508"
     inkscape:cx="28.690528"
     inkscape:cy="30.569842"
     inkscape:window-x="114"
     inkscape:window-y="42"
     inkscape:window-maximized="1"
     inkscape:current-layer="svg2" />
  <path
     d="m 45.808877,44.438423 0,-2.88867 -8.489598,0 c -0.257197,-3.280807 -1.39631,-6.274911 -3.147497,-8.677561 l 7.112261,0 3.077224,-12.64876 -2.727268,-0.700503 -2.544561,10.460593 -7.67233,0 c -0.03936,-0.03105 -0.0787,-0.06211 -0.11876,-0.09316 0.294441,-0.880321 0.455363,-1.824193 0.455363,-2.807064 0,-4.773525 -3.775028,-8.64362 -8.432676,-8.64362 -4.65765,0 -8.432678,3.870095 -8.432678,8.64362 0,0.982871 0.160221,1.926743 0.455364,2.807064 -0.03936,0.03105 -0.0794,0.06138 -0.11876,0.09316 l -7.6723308,0 -2.5445608,-10.460593 -2.727268,0.700503 3.077224,12.64876 7.1122616,0 c -1.751889,2.401927 -2.8903008,5.396754 -3.147498,8.67684 l -8.48959752,0 0,2.888668 8.49311122,0 c 0.1672478,2.061066 0.6809393,4.008752 1.4771233,5.765783 l -5.4461034,0 -3.077224,12.64876 2.727268,0.700503 2.5445609,-10.460593 4.9345215,0 c 2.577589,3.52201 6.473486,5.765784 10.83318,5.765784 4.359694,0 8.255591,-2.243774 10.83318,-5.765784 l 4.934521,0 2.544561,10.460593 2.727269,-0.700503 -3.077225,-12.64876 -5.445402,0 c 0.796186,-1.757754 1.310579,-3.704717 1.477124,-5.765783 l 8.493112,0 z"
     id="path4"
     inkscape:connector-curvature="0"
     style="fill:#000000;opacity:1" />
  <path
     style="opacity:0.716707;fill:url(#linearGradient5034)"
     inkscape:connector-curvature="0"
     d="M 59.200243,37.85197 48.677755,27.326753 c 1.583795,-2.60628 2.500726,-5.665493 2.500726,-8.941414 0,-9.513828 -8.246828,-17.7578385 -17.757907,-17.7578385 -9.516641,0 -17.229977,7.7160835 -17.229977,17.2326715 0,9.511037 8.241268,17.755033 17.755135,17.755033 3.162018,0 6.126766,-0.858565 8.677499,-2.345079 l 10.580832,10.578009 c 1.033638,1.039153 2.711899,1.039153 3.751092,0 l 2.622975,-2.617424 c 1.033631,-1.039192 0.658531,-2.342352 -0.377887,-3.378741 z M 21.49213,17.860172 c 0,-6.59076 5.340426,-11.9256066 11.925672,-11.9256066 6.59079,0 12.456373,5.8683176 12.456373,12.4563086 0,6.587996 -5.343214,11.925624 -11.928443,11.925624 -6.582467,0 -12.453602,-5.87667 -12.453602,-12.456326 z"
     id="path4924" />
</svg>
