/* XPM */
char * codefix_answer_xpm[] = {
"10 10 24 1",
"+	c None",
"@	c #4C4C4C",
"#	c #606060",
"$	c #232323",
"%	c #010101",
"=	c #040404",
"-	c #1D1D1D",
";	c #020202",
">	c #141414",
"'	c #090909",
"!	c #747474",
"~	c #000000",
"{	c #3A3A3A",
"]	c #ACACAC",
"^	c #555555",
"/	c #8E8E8E",
"(	c #101010",
"_	c #404040",
":	c #333333",
"<	c #575757",
"[	c #191919",
"}	c #0B0B0B",
"|	c #808080",
"1	c #373737",
"++@#++++++",
"++$%++++++",
"+++=-+++++",
";>+'=+++++",
"!%~%~{++++",
"+]^/(~_+++",
"+++++:%<++",
"++++++[~<+",
"+++++++}~|",
"++++++++1|"};
