/* XPM */
char * codefix_ambiguous_xpm[] = {
"10 10 21 1",
"+	c None",
"@	c #4C4C4C",
"#	c #FF0000",
"%	c #CCCCCC",
"&	c #040404",
"*	c #1D1D1D",
"=	c #020202",
"-	c #090909",
">	c #747474",
",	c #010101",
"'	c #3A3A3A",
")	c #ACACAC",
"!	c #555555",
"~	c #8E8E8E",
"{	c #101010",
"]	c #575757",
"^	c #191919",
"/	c #000000",
"(	c #0B0B0B",
"_	c #808080",
":	c #373737",
"++@#####++",
"+###+++##+",
"%#+&*+++#+",
"=##-#++##+",
">,###'##++",
"+)!~{##+++",
"++++##,]++",
"++++#+^/]+",
"+++++++(/_",
"++++#+++:_"};
