<?xml version="1.0" encoding="utf-8"?>
<!-- Generator: Adobe Illustrator 16.0.0, SVG Export Plug-In . SVG Version: 6.00 Build 0)  -->
<!DOCTYPE svg PUBLIC "-//W3C//DTD SVG 1.1//EN" "http://www.w3.org/Graphics/SVG/1.1/DTD/svg11.dtd">
<svg version="1.1" id="Layer_1" xmlns="http://www.w3.org/2000/svg" xmlns:xlink="http://www.w3.org/1999/xlink" x="0px" y="0px"
	 width="16px" height="16px" viewBox="0 0 16 16" enable-background="new 0 0 16 16" xml:space="preserve">
<g>
	<path d="M15.625,5.726L15.36,5.444c-0.19-0.211-0.571-0.276-0.805-0.061c-0.216,0.002-0.5-0.089-0.716-0.299
		c-0.456-0.493-0.16-1.373-0.471-1.677c-0.145-0.141-0.721-0.702-1.272-1.239c-0.599-0.587-2.259-2.462-6.581-1.293l0.031,0.543
		c0,0,2.156-0.05,3.715,1.447c0,0,0.576,0.609,0.037,1.161c-0.139,0.168-0.21,0.24-0.21,0.24l-0.28,0.289l1.775,1.707
		c0,0,0.374-0.407,0.491-0.503c0.28-0.312,1.017-0.297,1.591,0.288c0.408,0.374,0.485,0.799,0.273,0.943
		c-0.116,0.168-0.018,0.522,0.199,0.709l0.288,0.304c0.286,0.257,0.69,0.251,0.946-0.012l1.265-1.32
		C15.896,6.385,15.891,5.982,15.625,5.726z"/>
	<path d="M0.431,13.026c-0.351,0.359-0.343,0.953,0.016,1.279l0.936,0.937c0.359,0.352,0.951,0.343,1.28-0.017l7.524-8.532
		L8.459,4.962L0.431,13.026z"/>
</g>
</svg>
