<?xml version="1.0" encoding="utf-8"?>
<!-- Generator: Adobe Illustrator 16.0.0, SVG Export Plug-In . SVG Version: 6.00 Build 0)  -->
<!DOCTYPE svg PUBLIC "-//W3C//DTD SVG 1.1//EN" "http://www.w3.org/Graphics/SVG/1.1/DTD/svg11.dtd">
<svg version="1.1" id="Layer_1" xmlns="http://www.w3.org/2000/svg" xmlns:xlink="http://www.w3.org/1999/xlink" x="0px" y="0px"
	 width="16px" height="16px" viewBox="0 0 16 16" enable-background="new 0 0 16 16" xml:space="preserve">
<linearGradient id="SVGID_1_" gradientUnits="userSpaceOnUse" x1="305.791" y1="-371.1626" x2="305.791" y2="-385.0005" gradientTransform="matrix(1 0 0 -1 -298 -370)">
	<stop  offset="0" style="stop-color:#000000;stop-opacity:0.7"/>
	<stop  offset="1" style="stop-color:#000000;stop-opacity:0.6"/>
</linearGradient>
<path fill="url(#SVGID_1_)" d="M14.825,5.984l-0.245-0.26c-0.174-0.195-0.526-0.255-0.741-0.057
	c-0.198,0.001-0.463-0.082-0.662-0.275c-0.42-0.455-0.145-1.267-0.433-1.547c-0.134-0.13-0.666-0.646-1.174-1.143
	C11.019,2.161,9.486,0.431,5.5,1.509l0.028,0.501c0,0,1.989-0.045,3.427,1.334c0,0,0.531,0.562,0.034,1.071
	C8.861,4.571,8.795,4.638,8.795,4.638L8.538,4.904l1.636,1.574c0,0,0.345-0.375,0.454-0.464c0.257-0.288,0.938-0.274,1.468,0.266
	c0.376,0.346,0.447,0.739,0.252,0.872c-0.107,0.155-0.018,0.48,0.184,0.653l0.265,0.28c0.263,0.237,0.637,0.232,0.873-0.01
	l1.167-1.218C15.076,6.593,15.071,6.221,14.825,5.984z M0.81,12.719c-0.325,0.331-0.317,0.879,0.014,1.178l0.864,0.865
	c0.333,0.324,0.877,0.316,1.181-0.017l6.94-7.87L8.214,5.278L0.81,12.719z"/>
</svg>
