<?xml version="1.0" encoding="utf-8"?>
<!-- Generator: Adobe Illustrator 16.0.0, SVG Export Plug-In . SVG Version: 6.00 Build 0)  -->
<!DOCTYPE svg PUBLIC "-//W3C//DTD SVG 1.1//EN" "http://www.w3.org/Graphics/SVG/1.1/DTD/svg11.dtd">
<svg version="1.1" id="Layer_1" xmlns="http://www.w3.org/2000/svg" xmlns:xlink="http://www.w3.org/1999/xlink" x="0px" y="0px"
	 width="16px" height="16px" viewBox="0 0 16 16" enable-background="new 0 0 16 16" xml:space="preserve">
<g>
	
		<linearGradient id="SVGID_1_" gradientUnits="userSpaceOnUse" x1="306" y1="-371" x2="306" y2="-385.0005" gradientTransform="matrix(1 0 0 -1 -298 -370)">
		<stop  offset="0" style="stop-color:#000000;stop-opacity:0.7"/>
		<stop  offset="1" style="stop-color:#000000;stop-opacity:0.6"/>
	</linearGradient>
	<path fill="url(#SVGID_1_)" d="M8,1C4.135,1,1,4.135,1,8c0,3.865,3.135,7,7,7c3.865,0,7-3.135,7-7C15,4.135,11.865,1,8,1z M9.442,8
		l2.547,2.551L10.55,11.99L8,9.442L5.448,11.99L4.01,10.551L6.561,8L4.01,5.452L5.448,4.01L8,6.558l2.551-2.548l1.439,1.438L9.442,8
		z"/>
</g>
</svg>
