<?xml version="1.0" encoding="utf-8"?>
<!-- Generator: Adobe Illustrator 16.0.0, SVG Export Plug-In . SVG Version: 6.00 Build 0)  -->
<!DOCTYPE svg PUBLIC "-//W3C//DTD SVG 1.1//EN" "http://www.w3.org/Graphics/SVG/1.1/DTD/svg11.dtd">
<svg version="1.1" id="Layer_1" xmlns="http://www.w3.org/2000/svg" xmlns:xlink="http://www.w3.org/1999/xlink" x="0px" y="0px"
	 width="16px" height="16px" viewBox="0 0 16 16" enable-background="new 0 0 16 16" xml:space="preserve">
<g>
	<g>
		<path fill="#231F20" d="M14.836,15.146c0,0.458-0.366,0.823-0.823,0.823H5.771c-0.458,0-0.825-0.365-0.825-0.823V3.606
			c0-0.458,0.367-0.824,0.825-0.824h4.67c0.076,0,0.138,0.03,0.199,0.076l4.121,4.122c0.046,0.061,0.075,0.122,0.075,0.199V15.146z"
			/>
		<g>
			<path fill="#231F20" d="M3.609,3.606c0-1.192,0.969-2.161,2.162-2.161h1.261L5.694,0.106C5.633,0.061,5.571,0.03,5.496,0.03
				H0.824C0.366,0.03,0,0.396,0,0.854v11.539c0,0.458,0.366,0.824,0.824,0.824h2.785V3.606z"/>
		</g>
	</g>
</g>
</svg>
