<?xml version="1.0" encoding="utf-8"?>
<!-- Generator: Adobe Illustrator 16.0.0, SVG Export Plug-In . SVG Version: 6.00 Build 0)  -->
<!DOCTYPE svg PUBLIC "-//W3C//DTD SVG 1.1//EN" "http://www.w3.org/Graphics/SVG/1.1/DTD/svg11.dtd">
<svg version="1.1" id="Layer_1" xmlns="http://www.w3.org/2000/svg" xmlns:xlink="http://www.w3.org/1999/xlink" x="0px" y="0px"
	 width="16px" height="16px" viewBox="0 0 16 16" enable-background="new 0 0 16 16" xml:space="preserve">
<path d="M13.734,0.015c-0.564-0.09-2.271,0.242-2.639,1.287c-0.531,1.194-0.803,2.378-2.527,3.735L8.02,5.528L8,5.53V5.528
	L7.437,5.037C5.713,3.68,5.439,2.496,4.908,1.302C4.541,0.257,3.771-0.075,2.267,0.015c-1.048,0.31-1.52,1.568-1.233,2.571
	C1.248,3.61,2.29,4.461,3.312,4.227C4.376,3.982,4.185,4.025,4.587,3.91c0.514-0.146,0.447,0.62,1.965,2.744l0.044,0.062
	l-4.098,5.849C1.985,13.41,2.069,14.929,2.734,16L8,8.613L13.266,16c0.664-1.071,0.748-2.59,0.234-3.436L9.402,6.716l0.045-0.062
	c1.518-2.124,1.449-2.891,1.965-2.744c0.402,0.115,0.211,0.072,1.275,0.316c1.021,0.234,2.064-0.616,2.279-1.641
	C15.252,1.583,14.781,0.324,13.734,0.015z M2.972,3C2.432,3,1.993,2.562,1.993,2.021s0.438-0.979,0.979-0.979
	S3.951,1.48,3.951,2.021S3.513,3,2.972,3z M12.973,2.979c-0.541,0-0.98-0.438-0.98-0.979c0-0.54,0.439-0.979,0.98-0.979
	S13.951,1.46,13.951,2C13.951,2.541,13.514,2.979,12.973,2.979z"/>
</svg>
