<?xml version="1.0" encoding="utf-8"?>
<!-- Generator: Adobe Illustrator 16.0.0, SVG Export Plug-In . SVG Version: 6.00 Build 0)  -->
<!DOCTYPE svg PUBLIC "-//W3C//DTD SVG 1.1//EN" "http://www.w3.org/Graphics/SVG/1.1/DTD/svg11.dtd">
<svg version="1.1" id="Layer_1" xmlns="http://www.w3.org/2000/svg" xmlns:xlink="http://www.w3.org/1999/xlink" x="0px" y="0px"
	 width="16px" height="16px" viewBox="0 0 16 16" enable-background="new 0 0 16 16" xml:space="preserve">
<linearGradient id="SVGID_1_" gradientUnits="userSpaceOnUse" x1="306" y1="-371.0225" x2="306" y2="-384.979" gradientTransform="matrix(1 0 0 -1 -298 -370)">
	<stop  offset="0" style="stop-color:#000000;stop-opacity:0.7"/>
	<stop  offset="1" style="stop-color:#000000;stop-opacity:0.6"/>
</linearGradient>
<path fill="url(#SVGID_1_)" d="M13.002,1.035c-0.492-0.08-1.982,0.21-2.301,1.122c-0.464,1.041-0.703,2.074-2.205,3.258L8.017,5.844
	L8,5.845V5.844L7.508,5.416C6.005,4.231,5.766,3.198,5.303,2.157C4.982,1.246,4.311,0.956,2.999,1.035
	c-0.914,0.27-1.326,1.367-1.076,2.242C2.11,4.17,3.019,4.912,3.91,4.708c0.929-0.214,0.761-0.175,1.113-0.276
	c0.449-0.126,0.389,0.542,1.713,2.394l0.039,0.053l-3.576,5.103c-0.447,0.736-0.374,2.063,0.206,2.996L8,8.536l4.593,6.443
	c0.578-0.933,0.651-2.258,0.204-2.996L9.225,6.88l0.038-0.054c1.324-1.853,1.265-2.522,1.715-2.393
	c0.351,0.1,0.183,0.062,1.111,0.274c0.892,0.204,1.802-0.537,1.988-1.431C14.326,2.402,13.916,1.305,13.002,1.035z M3.614,3.639
	c-0.471,0-0.854-0.382-0.854-0.854s0.382-0.854,0.854-0.854s0.854,0.381,0.854,0.853S4.085,3.639,3.614,3.639z M12.338,3.619
	c-0.471,0-0.854-0.381-0.854-0.854c0-0.47,0.382-0.853,0.854-0.853s0.854,0.383,0.854,0.853C13.191,3.238,12.809,3.619,12.338,3.619
	z"/>
</svg>
