<?xml version="1.0" encoding="utf-8"?>
<!-- Generator: Adobe Illustrator 16.0.0, SVG Export Plug-In . SVG Version: 6.00 Build 0)  -->
<!DOCTYPE svg PUBLIC "-//W3C//DTD SVG 1.1//EN" "http://www.w3.org/Graphics/SVG/1.1/DTD/svg11.dtd">
<svg version="1.1" id="Layer_1" xmlns="http://www.w3.org/2000/svg" xmlns:xlink="http://www.w3.org/1999/xlink" x="0px" y="0px"
	 width="16px" height="16px" viewBox="0 0 16 16" enable-background="new 0 0 16 16" xml:space="preserve">
<g>
	<path d="M15.06,6.057H0.735c-0.728,0-0.764,0.354-0.725,0.787l0.756,7.188c0.039,0.432,0.142,0.783,0.869,0.783h12.733
		c0.739,0,0.827-0.354,0.866-0.783l0.549-7.188C15.823,6.411,15.788,6.057,15.06,6.057z M15,4.632C14.912,4.282,14.482,4,14.043,4
		H8.662c-0.437,0-1.41-0.642-1.721-0.948L6.47,2.586C6.162,2.28,5.55,2.031,5.11,2.031L3,2C2.563,2,2.165,2.352,2.118,2.784L1.629,5
		H15V4.632z"/>
</g>
</svg>
