<?xml version="1.0" encoding="utf-8"?>
<!-- Generator: Adobe Illustrator 16.0.0, SVG Export Plug-In . SVG Version: 6.00 Build 0)  -->
<!DOCTYPE svg PUBLIC "-//W3C//DTD SVG 1.1//EN" "http://www.w3.org/Graphics/SVG/1.1/DTD/svg11.dtd">
<svg version="1.1" id="Layer_1" xmlns="http://www.w3.org/2000/svg" xmlns:xlink="http://www.w3.org/1999/xlink" x="0px" y="0px"
	 width="16px" height="16px" viewBox="0 0 16 16" enable-background="new 0 0 16 16" xml:space="preserve">
<linearGradient id="SVGID_1_" gradientUnits="userSpaceOnUse" x1="305.9824" y1="-372.0215" x2="305.9824" y2="-384.0093" gradientTransform="matrix(1 0 0 -1 -298 -370)">
	<stop  offset="0" style="stop-color:#000000;stop-opacity:0.7"/>
	<stop  offset="1" style="stop-color:#000000;stop-opacity:0.6"/>
</linearGradient>
<path fill="url(#SVGID_1_)" d="M1.494,8.944l0.95,0.235l0.714-1.123L1.8,7.719C1.46,7.635,1.117,7.84,1.032,8.179
	C0.948,8.516,1.154,8.858,1.494,8.944z M13.893,9.124l-3.11,2.798L7.125,9.096C7.056,9.041,6.976,9.003,6.891,8.98L6.403,8.86
	L5.688,9.982l0.766,0.189l3.971,3.074c0.114,0.088,0.252,0.131,0.388,0.131c0.153,0,0.307-0.057,0.427-0.163l3.505-3.155
	c0.26-0.234,0.279-0.633,0.046-0.891C14.555,8.911,14.15,8.891,13.893,9.124z M7.064,6.05l3.406,2.181
	c0.287,0.184,0.669,0.107,0.864-0.172l3.503-5.047c0.2-0.287,0.129-0.679-0.16-0.877c-0.289-0.199-0.682-0.127-0.882,0.161
	l-3.155,4.544L7.214,4.646c-0.143-0.09-0.315-0.121-0.479-0.084C6.57,4.597,6.427,4.697,6.336,4.838l-5.225,8.201
	c-0.187,0.295-0.1,0.687,0.195,0.873c0.105,0.064,0.223,0.097,0.339,0.097c0.209,0,0.415-0.104,0.535-0.293L7.064,6.05z"/>
</svg>
