<?xml version="1.0" encoding="utf-8"?>
<!-- Generator: Adobe Illustrator 16.0.0, SVG Export Plug-In . SVG Version: 6.00 Build 0)  -->
<!DOCTYPE svg PUBLIC "-//W3C//DTD SVG 1.1//EN" "http://www.w3.org/Graphics/SVG/1.1/DTD/svg11.dtd">
<svg version="1.1" id="Layer_1" xmlns="http://www.w3.org/2000/svg" xmlns:xlink="http://www.w3.org/1999/xlink" x="0px" y="0px"
	 width="16px" height="16px" viewBox="0 0 16 16" enable-background="new 0 0 16 16" xml:space="preserve">
<g>
	<path d="M13.401,5.671h-1.676V4.368c0-2.698-1.243-4.284-3.726-4.284c-2.482,0-3.725,1.586-3.725,4.284v1.304H2.412
		c-0.515,0-0.931,0.604-0.931,1.118v7.264c0,0.513,0.399,1.06,0.886,1.218l1.115,0.359c0.487,0.157,1.305,0.285,1.817,0.285h5.403
		c0.512,0,1.329-0.128,1.816-0.285l1.114-0.359c0.488-0.158,0.887-0.705,0.887-1.218V6.79C14.519,6.275,13.916,5.671,13.401,5.671z
		 M6.137,3.996C6.137,2.65,6.879,1.946,8,1.946c1.12,0,1.862,0.704,1.862,2.049v1.676H6.137V3.996z"/>
</g>
</svg>
