<?xml version="1.0" encoding="utf-8"?>
<!-- Generator: Adobe Illustrator 16.0.0, SVG Export Plug-In . SVG Version: 6.00 Build 0)  -->
<!DOCTYPE svg PUBLIC "-//W3C//DTD SVG 1.1//EN" "http://www.w3.org/Graphics/SVG/1.1/DTD/svg11.dtd">
<svg version="1.1" id="Layer_1" xmlns="http://www.w3.org/2000/svg" xmlns:xlink="http://www.w3.org/1999/xlink" x="0px" y="0px"
	 width="16px" height="16px" viewBox="0 0 16 16" enable-background="new 0 0 16 16" xml:space="preserve">
<g>
	
		<linearGradient id="SVGID_1_" gradientUnits="userSpaceOnUse" x1="305.9023" y1="-372.0449" x2="305.9023" y2="-384.0005" gradientTransform="matrix(1 0 0 -1 -298 -370)">
		<stop  offset="0" style="stop-color:#000000;stop-opacity:0.7"/>
		<stop  offset="1" style="stop-color:#000000;stop-opacity:0.6"/>
	</linearGradient>
	<path fill="url(#SVGID_1_)" d="M11.98,6.264h-1.266V5.28c0-2.039-0.938-3.235-2.813-3.235c-1.875,0-2.814,1.197-2.814,3.235v0.984
		H3.682C3.294,6.265,3,6.722,3,7.11v5.487c0,0.385,0.28,0.799,0.648,0.918l0.842,0.272C4.857,13.904,5.476,14,5.861,14h4.081
		c0.386,0,1.005-0.096,1.372-0.213l0.841-0.272c0.368-0.119,0.649-0.532,0.649-0.918V7.11C12.805,6.721,12.371,6.264,11.98,6.264z
		 M6.496,5c0-1.017,0.56-1.547,1.406-1.547c0.846,0,1.405,0.531,1.405,1.547v1.265H6.496V5z"/>
</g>
</svg>
