<?xml version="1.0" encoding="utf-8"?>
<!-- Generator: Adobe Illustrator 16.0.0, SVG Export Plug-In . SVG Version: 6.00 Build 0)  -->
<!DOCTYPE svg PUBLIC "-//W3C//DTD SVG 1.1//EN" "http://www.w3.org/Graphics/SVG/1.1/DTD/svg11.dtd">
<svg version="1.1" id="Layer_1" xmlns="http://www.w3.org/2000/svg" xmlns:xlink="http://www.w3.org/1999/xlink" x="0px" y="0px"
	 width="16px" height="16px" viewBox="0 0 16 16" enable-background="new 0 0 16 16" xml:space="preserve">
<g>
	<path d="M14.929,6.845H1.072C0.434,6.845-0.083,7.362-0.083,8s0.517,1.154,1.155,1.154h13.857c0.637,0,1.154-0.516,1.154-1.154
		S15.565,6.845,14.929,6.845z M1.072,4.536h13.857c0.637,0,1.154-0.517,1.154-1.155c0-0.638-0.518-1.155-1.154-1.155H1.072
		c-0.638,0-1.155,0.517-1.155,1.155C-0.083,4.019,0.434,4.536,1.072,4.536z M14.929,11.463H1.072c-0.638,0-1.155,0.518-1.155,1.156
		c0,0.637,0.517,1.154,1.155,1.154h13.857c0.637,0,1.154-0.518,1.154-1.154C16.083,11.98,15.565,11.463,14.929,11.463z"/>
</g>
</svg>
