<?xml version="1.0" encoding="utf-8"?>
<!-- Generator: Adobe Illustrator 16.0.0, SVG Export Plug-In . SVG Version: 6.00 Build 0)  -->
<!DOCTYPE svg PUBLIC "-//W3C//DTD SVG 1.1//EN" "http://www.w3.org/Graphics/SVG/1.1/DTD/svg11.dtd">
<svg version="1.1" id="Layer_1" xmlns="http://www.w3.org/2000/svg" xmlns:xlink="http://www.w3.org/1999/xlink" x="0px" y="0px"
	 width="16px" height="16px" viewBox="0 0 16 16" enable-background="new 0 0 16 16" xml:space="preserve">
<g>
	<g>
		
			<linearGradient id="SVGID_1_" gradientUnits="userSpaceOnUse" x1="307.0938" y1="-372.0151" x2="307.0938" y2="-384.062" gradientTransform="matrix(1 0 0 -1 -298 -370)">
			<stop  offset="0" style="stop-color:#000000;stop-opacity:0.7"/>
			<stop  offset="1" style="stop-color:#000000;stop-opacity:0.6"/>
		</linearGradient>
		<path fill="url(#SVGID_1_)" d="M8.195,2.015c3.264,0,5.92,2.616,6.002,5.873H16l-2.701,3.011l-2.703-3.01h2.1
			c-0.08-2.424-2.064-4.367-4.499-4.367c-2.489,0-4.504,2.023-4.504,4.518c0,2.494,2.016,4.518,4.504,4.518
			c0.995,0,1.918-0.328,2.661-0.877l1.033,1.105c-1.018,0.799-2.301,1.275-3.697,1.275c-3.317,0-6.004-2.695-6.004-6.022
			C2.189,4.711,4.879,2.015,8.195,2.015z"/>
	</g>
</g>
</svg>
