<?xml version="1.0" encoding="utf-8"?>
<!-- Generator: Adobe Illustrator 16.0.0, SVG Export Plug-In . SVG Version: 6.00 Build 0)  -->
<!DOCTYPE svg PUBLIC "-//W3C//DTD SVG 1.1//EN" "http://www.w3.org/Graphics/SVG/1.1/DTD/svg11.dtd">
<svg version="1.1" id="Layer_1" xmlns="http://www.w3.org/2000/svg" xmlns:xlink="http://www.w3.org/1999/xlink" x="0px" y="0px"
	 width="16px" height="16px" viewBox="0 0 16 16" enable-background="new 0 0 16 16" xml:space="preserve">
<g>
	<path d="M14.281,7.9c0-0.985,0.605-1.763,1.519-2.297c-0.164-0.55-0.382-1.077-0.65-1.572c-1.024,0.268-1.853-0.134-2.55-0.831
		c-0.696-0.696-0.909-1.526-0.642-2.55C11.462,0.382,10.936,0.165,10.385,0c-0.534,0.914-1.5,1.52-2.485,1.52
		c-0.985,0-1.95-0.606-2.485-1.52c-0.55,0.165-1.077,0.382-1.572,0.651c0.268,1.024,0.055,1.854-0.642,2.55
		c-0.697,0.697-1.526,1.098-2.55,0.831C0.382,4.526,0.164,5.053,0,5.604C0.913,6.138,1.52,6.916,1.52,7.9S0.913,9.852,0,10.386
		c0.164,0.55,0.382,1.077,0.651,1.572c1.024-0.268,1.853-0.055,2.55,0.642c0.696,0.697,0.91,1.526,0.642,2.55
		c0.496,0.269,1.022,0.486,1.573,0.651c0.534-0.914,1.5-1.52,2.484-1.52c0.986,0,1.951,0.605,2.485,1.52
		c0.551-0.165,1.077-0.383,1.573-0.651c-0.268-1.023-0.055-1.853,0.642-2.55c0.697-0.696,1.525-1.098,2.55-0.83
		c0.269-0.495,0.486-1.021,0.65-1.572C14.887,9.663,14.281,8.885,14.281,7.9z M7.899,11.336c-1.897,0-3.435-1.538-3.435-3.436
		c0-1.897,1.538-3.436,3.435-3.436c1.898,0,3.437,1.539,3.437,3.436C11.336,9.798,9.798,11.336,7.899,11.336z"/>
</g>
</svg>
