<?xml version="1.0" encoding="utf-8"?>
<!-- Generator: Adobe Illustrator 16.0.0, SVG Export Plug-In . SVG Version: 6.00 Build 0)  -->
<!DOCTYPE svg PUBLIC "-//W3C//DTD SVG 1.1//EN" "http://www.w3.org/Graphics/SVG/1.1/DTD/svg11.dtd">
<svg version="1.1" id="Layer_1" xmlns="http://www.w3.org/2000/svg" xmlns:xlink="http://www.w3.org/1999/xlink" x="0px" y="0px"
	 width="16px" height="16px" viewBox="0 0 16 16" enable-background="new 0 0 16 16" xml:space="preserve">
<g>
	
		<linearGradient id="SVGID_1_" gradientUnits="userSpaceOnUse" x1="306.0137" y1="-371" x2="306.0137" y2="-384.9731" gradientTransform="matrix(1 0 0 -1 -298 -370)">
		<stop  offset="0" style="stop-color:#000000;stop-opacity:0.7"/>
		<stop  offset="1" style="stop-color:#000000;stop-opacity:0.6"/>
	</linearGradient>
	<path fill="url(#SVGID_1_)" d="M13.657,7.985c0-0.871,0.535-1.559,1.343-2.031c-0.146-0.486-0.339-0.953-0.574-1.39
		c-0.905,0.237-1.639-0.119-2.255-0.734c-0.613-0.617-0.803-1.352-0.566-2.256C11.164,1.338,10.7,1.146,10.211,1
		C9.74,1.809,8.886,2.343,8.015,2.343S6.29,1.808,5.818,1C5.33,1.146,4.864,1.338,4.426,1.574c0.238,0.907,0.049,1.64-0.566,2.256
		C3.242,4.446,2.51,4.802,1.604,4.565C1.367,5.003,1.174,5.468,1.029,5.956c0.808,0.472,1.344,1.16,1.344,2.03
		s-0.537,1.728-1.344,2.198c0.145,0.487,0.338,0.953,0.574,1.392c0.907-0.24,1.639-0.05,2.256,0.566
		c0.615,0.616,0.804,1.35,0.566,2.255c0.44,0.239,0.904,0.43,1.392,0.576c0.472-0.808,1.326-1.345,2.196-1.345
		c0.872,0,1.727,0.535,2.197,1.345c0.487-0.147,0.951-0.339,1.392-0.576c-0.24-0.905-0.05-1.639,0.566-2.255
		c0.618-0.614,1.35-0.97,2.255-0.734c0.239-0.436,0.43-0.901,0.574-1.39C14.195,9.544,13.657,8.857,13.657,7.985z M8.014,11.025
		c-1.678,0-3.037-1.362-3.037-3.04s1.359-3.038,3.037-3.038c1.68,0,3.041,1.36,3.041,3.038S9.693,11.025,8.014,11.025z"/>
</g>
</svg>
