<?xml version="1.0" encoding="utf-8"?>
<!-- Generator: Adobe Illustrator 16.0.0, SVG Export Plug-In . SVG Version: 6.00 Build 0)  -->
<!DOCTYPE svg PUBLIC "-//W3C//DTD SVG 1.1//EN" "http://www.w3.org/Graphics/SVG/1.1/DTD/svg11.dtd">
<svg version="1.1" id="Layer_1" xmlns="http://www.w3.org/2000/svg" xmlns:xlink="http://www.w3.org/1999/xlink" x="0px" y="0px"
	 width="16px" height="16px" viewBox="0 0 16 16" enable-background="new 0 0 16 16" xml:space="preserve">
<g>
	<g>
		
			<linearGradient id="SVGID_1_" gradientUnits="userSpaceOnUse" x1="308.0947" y1="-372.001" x2="308.0947" y2="-384.0464" gradientTransform="matrix(-1 0 0 -1 316.1895 -370.001)">
			<stop  offset="0" style="stop-color:#000000;stop-opacity:0.7"/>
			<stop  offset="1" style="stop-color:#000000;stop-opacity:0.6"/>
		</linearGradient>
		<path fill="url(#SVGID_1_)" d="M15,8.023c0,3.327-2.688,6.022-6.004,6.022c-1.396,0-2.68-0.477-3.697-1.275l1.033-1.105
			c0.743,0.549,1.666,0.877,2.661,0.877c2.488,0,4.505-2.023,4.504-4.518c0-2.495-2.015-4.518-4.504-4.518
			c-2.435,0-4.419,1.942-4.499,4.367h2.1l-2.703,3.01L1.189,7.873h1.803C3.074,4.615,5.73,2,8.994,2C12.311,2,15,4.695,15,8.023z"/>
	</g>
</g>
</svg>
