<?xml version="1.0" encoding="utf-8"?>
<!-- Generator: Adobe Illustrator 16.0.0, SVG Export Plug-In . SVG Version: 6.00 Build 0)  -->
<!DOCTYPE svg PUBLIC "-//W3C//DTD SVG 1.1//EN" "http://www.w3.org/Graphics/SVG/1.1/DTD/svg11.dtd">
<svg version="1.1" id="Layer_1" xmlns="http://www.w3.org/2000/svg" xmlns:xlink="http://www.w3.org/1999/xlink" x="0px" y="0px"
	 width="16px" height="16px" viewBox="0 0 16 16" enable-background="new 0 0 16 16" xml:space="preserve">
<g>
	<g>
		<path d="M9.043,1.25c-3.659,0-6.633,2.931-6.724,6.582H0.296l3.028,3.375l3.027-3.375H4.001C4.09,5.114,6.313,2.938,9.043,2.938
			c2.788,0,5.047,2.267,5.047,5.062c0,2.795-2.259,5.062-5.047,5.062c-1.116,0-2.15-0.366-2.985-0.982l-1.157,1.238
			c1.142,0.896,2.579,1.432,4.142,1.432c3.717,0,6.729-3.021,6.729-6.75C15.772,4.272,12.76,1.25,9.043,1.25z"/>
	</g>
</g>
</svg>
