<?xml version="1.0" encoding="utf-8"?>
<!-- Generator: Adobe Illustrator 16.0.0, SVG Export Plug-In . SVG Version: 6.00 Build 0)  -->
<!DOCTYPE svg PUBLIC "-//W3C//DTD SVG 1.1//EN" "http://www.w3.org/Graphics/SVG/1.1/DTD/svg11.dtd">
<svg version="1.1" id="Layer_1" xmlns="http://www.w3.org/2000/svg" xmlns:xlink="http://www.w3.org/1999/xlink" x="0px" y="0px"
	 width="16px" height="16px" viewBox="0 0 16 16" enable-background="new 0 0 16 16" xml:space="preserve">
<g>
	<path d="M13.156,6.111h-1.601V3.978c0-2.576-1.186-4.089-3.555-4.089S4.445,1.402,4.445,3.978v0.355h1.778V3.623
		c0-1.284,0.708-1.956,1.778-1.956c1.069,0,1.779,0.671,1.779,1.956v2.489H2.667c-0.491,0-0.889,0.576-0.889,1.067v6.933
		c0,0.489,0.381,1.012,0.846,1.161l1.062,0.344c0.465,0.149,1.247,0.272,1.735,0.272h5.156c0.488,0,1.27-0.123,1.734-0.272
		l1.064-0.344c0.465-0.149,0.846-0.672,0.846-1.161V7.178C14.223,6.687,13.647,6.111,13.156,6.111z"/>
</g>
</svg>
