<?xml version="1.0" encoding="utf-8"?>
<!-- Generator: Adobe Illustrator 16.0.0, SVG Export Plug-In . SVG Version: 6.00 Build 0)  -->
<!DOCTYPE svg PUBLIC "-//W3C//DTD SVG 1.1//EN" "http://www.w3.org/Graphics/SVG/1.1/DTD/svg11.dtd">
<svg version="1.1" id="Layer_1" xmlns="http://www.w3.org/2000/svg" xmlns:xlink="http://www.w3.org/1999/xlink" x="0px" y="0px"
	 width="16px" height="16px" viewBox="0 0 16 16" enable-background="new 0 0 16 16" xml:space="preserve">
<linearGradient id="SVGID_1_" gradientUnits="userSpaceOnUse" x1="8.0024" y1="15.9414" x2="8.0024" y2="0.0186">
	<stop  offset="0" style="stop-color:#000000;stop-opacity:0.7"/>
	<stop  offset="1" style="stop-color:#000000;stop-opacity:0.6"/>
</linearGradient>
<path fill="url(#SVGID_1_)" d="M13.855,5.266c0-0.091-0.037-0.163-0.094-0.236L8.896,0.162V1H8v1h1v1H8v1h1v1H8v1h1v1H8V6H7V5h1V4H7
	V3h1V2H7V1h1V0.018H3.031c-0.547,0-0.984,0.436-0.984,0.983l0.101,13.957c0,0.547,0.437,0.983,0.984,0.983h9.839
	c0.549,0,0.986-0.436,0.986-0.983L13.855,5.266z M9,11H7V8h2V11z"/>
</svg>
