<?xml version="1.0" encoding="utf-8"?>
<!-- Generator: Adobe Illustrator 16.0.0, SVG Export Plug-In . SVG Version: 6.00 Build 0)  -->
<!DOCTYPE svg PUBLIC "-//W3C//DTD SVG 1.1//EN" "http://www.w3.org/Graphics/SVG/1.1/DTD/svg11.dtd">
<svg version="1.1" id="Layer_1" xmlns="http://www.w3.org/2000/svg" xmlns:xlink="http://www.w3.org/1999/xlink" x="0px" y="0px"
	 width="16px" height="16px" viewBox="0 0 16 16" enable-background="new 0 0 16 16" xml:space="preserve">
<linearGradient id="SVGID_1_" gradientUnits="userSpaceOnUse" x1="8.0005" y1="0.582" x2="8.0005" y2="15.4185">
	<stop  offset="0" style="stop-color:#020202;stop-opacity:0.7"/>
	<stop  offset="1" style="stop-color:#000000;stop-opacity:0.6"/>
</linearGradient>
<path fill="url(#SVGID_1_)" d="M15.084,13.134l-3.548-3.549c0.534-0.879,0.844-1.91,0.844-3.015c0-3.208-2.78-5.988-5.988-5.988
	c-3.208,0-5.809,2.602-5.809,5.81c0,3.208,2.779,5.987,5.987,5.987c1.066,0,2.065-0.289,2.925-0.791l3.567,3.566
	c0.349,0.351,0.914,0.351,1.264,0l0.885-0.883C15.561,13.922,15.434,13.482,15.084,13.134z M2.37,6.392
	c0-2.222,1.801-4.021,4.021-4.021c2.222,0,4.2,1.979,4.2,4.2c0,2.221-1.801,4.021-4.021,4.021C4.35,10.592,2.37,8.611,2.37,6.392z
	 M9.037,5.873v1.079H3.879V5.873H9.037z"/>
</svg>
