<?xml version="1.0" encoding="utf-8"?>
<!-- Generator: Adobe Illustrator 16.0.0, SVG Export Plug-In . SVG Version: 6.00 Build 0)  -->
<!DOCTYPE svg PUBLIC "-//W3C//DTD SVG 1.1//EN" "http://www.w3.org/Graphics/SVG/1.1/DTD/svg11.dtd">
<svg version="1.1" id="Layer_1" xmlns="http://www.w3.org/2000/svg" xmlns:xlink="http://www.w3.org/1999/xlink" x="0px" y="0px"
	 width="16px" height="16px" viewBox="0 0 16 16" enable-background="new 0 0 16 16" xml:space="preserve">
<linearGradient id="SVGID_1_" gradientUnits="userSpaceOnUse" x1="8.0044" y1="0" x2="8.0044" y2="15.7388">
	<stop  offset="0" style="stop-color:#000000;stop-opacity:0.7"/>
	<stop  offset="1" style="stop-color:#000000;stop-opacity:0.6"/>
</linearGradient>
<path fill="url(#SVGID_1_)" d="M8.108,6.954C8.076,6.979,8.044,6.995,8.003,6.995c-0.04,0-0.072-0.016-0.105-0.041L4.694,3.749
	C4.653,3.708,4.645,3.644,4.66,3.587C4.686,3.53,4.742,3.499,4.798,3.499H7V0h2.17v3.499h2.039c0.058,0,0.112,0.031,0.138,0.088
	c0.017,0.057,0.008,0.122-0.034,0.162L8.108,6.954z M10.855,5.031l-0.491,0.491l4.052,1.473L8.004,9.326L1.592,6.995l4.049-1.472
	l-0.49-0.491L1.01,6.412v6.994l6.995,2.332L15,13.406V6.412L10.855,5.031z M13.834,10.492l-3.498,1.166V9.909l3.498-1.166V10.492z"
	/>
</svg>
