<?xml version="1.0" encoding="utf-8"?>
<!-- Generator: Adobe Illustrator 16.0.0, SVG Export Plug-In . SVG Version: 6.00 Build 0)  -->
<!DOCTYPE svg PUBLIC "-//W3C//DTD SVG 1.1//EN" "http://www.w3.org/Graphics/SVG/1.1/DTD/svg11.dtd">
<svg version="1.1" id="Layer_1" xmlns="http://www.w3.org/2000/svg" xmlns:xlink="http://www.w3.org/1999/xlink" x="0px" y="0px"
	 width="16px" height="16px" viewBox="0 0 16 16" enable-background="new 0 0 16 16" xml:space="preserve">
<linearGradient id="SVGID_1_" gradientUnits="userSpaceOnUse" x1="306" y1="-371.0205" x2="306" y2="-384.98" gradientTransform="matrix(1 0 0 -1 -298 -370)">
	<stop  offset="0" style="stop-color:#000000;stop-opacity:0.7"/>
	<stop  offset="1" style="stop-color:#000000;stop-opacity:0.6"/>
</linearGradient>
<path fill="url(#SVGID_1_)" d="M8,1.021C4.151,1.021,1.021,4.152,1.021,8c0,3.851,3.13,6.979,6.979,6.979
	c3.851,0,6.979-3.129,6.979-6.979C14.979,4.151,11.851,1.021,8,1.021z M13.952,8c0,1.361-0.462,2.617-1.23,3.623
	c-0.22-0.174-0.449-0.632-0.233-1.109c0.221-0.479,0.277-1.592,0.228-2.022c-0.051-0.432-0.275-1.474-0.882-1.483
	c-0.611-0.01-1.028-0.21-1.392-0.934c-0.749-1.501,1.411-1.791,0.659-2.624c-0.21-0.233-1.295,0.963-1.454-0.632
	C9.633,2.705,9.744,2.535,9.891,2.357C12.247,3.151,13.952,5.379,13.952,8z M7.184,2.106C7.04,2.383,6.665,2.497,6.437,2.704
	c-0.499,0.45-0.711,0.387-0.979,0.819c-0.27,0.433-1.139,1.056-1.139,1.366c0,0.311,0.439,0.682,0.659,0.61
	C5.196,5.426,5.776,5.431,6.117,5.55c0.342,0.119,2.846,0.241,2.048,2.357C7.911,8.581,6.802,8.468,6.506,9.583
	c-0.043,0.163-0.197,0.861-0.208,1.091c-0.018,0.354,0.25,1.686-0.089,1.686c-0.343,0-1.265-1.189-1.265-1.405
	c0-0.217-0.24-0.977-0.24-1.623c0-0.647-1.101-0.639-1.101-1.5c0-0.777,0.598-1.164,0.463-1.537
	c-0.132-0.37-1.184-0.383-1.622-0.428C3.211,3.881,5.012,2.406,7.184,2.106z M6.127,13.649c0.357-0.189,0.394-0.434,0.717-0.446
	c0.373-0.02,0.675-0.146,1.091-0.238c0.372-0.081,1.036-0.457,1.62-0.507c0.491-0.04,1.464,0.026,1.728,0.503
	c-0.942,0.627-2.069,0.988-3.283,0.988C7.345,13.952,6.717,13.845,6.127,13.649z"/>
</svg>
