<?xml version="1.0" encoding="utf-8"?>
<!-- Generator: Adobe Illustrator 16.0.0, SVG Export Plug-In . SVG Version: 6.00 Build 0)  -->
<!DOCTYPE svg PUBLIC "-//W3C//DTD SVG 1.1//EN" "http://www.w3.org/Graphics/SVG/1.1/DTD/svg11.dtd">
<svg version="1.1" id="Layer_1" xmlns="http://www.w3.org/2000/svg" xmlns:xlink="http://www.w3.org/1999/xlink" x="0px" y="0px"
	 width="12px" height="12px" viewBox="0 0 12 12" enable-background="new 0 0 12 12" xml:space="preserve">
<g>
	<g>
		<g>
			
				<linearGradient id="SVGID_1_" gradientUnits="userSpaceOnUse" x1="1198" y1="1549.6436" x2="1198" y2="1559.959" gradientTransform="matrix(1 0 0 1 -1192 -1549)">
				<stop  offset="0" style="stop-color:#000000;stop-opacity:0.7"/>
				<stop  offset="1" style="stop-color:#000000;stop-opacity:0.6"/>
			</linearGradient>
			<path fill="url(#SVGID_1_)" d="M11.452,4.021H0.549c-0.544,0-0.57,0.264-0.542,0.587l0.564,5.766
				c0.029,0.322,0.106,0.584,0.649,0.584h9.715c0.552,0,0.617-0.265,0.646-0.584l0.41-5.766C12.021,4.286,11.996,4.021,11.452,4.021
				z M11.201,2.609c-0.065-0.261-0.387-0.472-0.715-0.472H6.468c-0.326,0-1.053-0.479-1.285-0.708L4.832,1.082
				c-0.23-0.229-0.688-0.414-1.016-0.414L1.833,0.644c-0.327,0-0.624,0.263-0.659,0.585L0.81,2.884h10.392V2.609z"/>
		</g>
	</g>
</g>
</svg>
