<?xml version="1.0" encoding="utf-8"?>
<!-- Generator: Adobe Illustrator 16.0.0, SVG Export Plug-In . SVG Version: 6.00 Build 0)  -->
<!DOCTYPE svg PUBLIC "-//W3C//DTD SVG 1.1//EN" "http://www.w3.org/Graphics/SVG/1.1/DTD/svg11.dtd">
<svg version="1.1" id="Layer_1" xmlns="http://www.w3.org/2000/svg" xmlns:xlink="http://www.w3.org/1999/xlink" x="0px" y="0px"
	 width="16px" height="16px" viewBox="0 0 16 16" enable-background="new 0 0 16 16" xml:space="preserve">
<linearGradient id="SVGID_1_" gradientUnits="userSpaceOnUse" x1="305.8652" y1="-372.4839" x2="306.0511" y2="-383.1244" gradientTransform="matrix(1 0 0 -1 -298 -370)">
	<stop  offset="0" style="stop-color:#000000;stop-opacity:0.7"/>
	<stop  offset="1" style="stop-color:#000000;stop-opacity:0.6"/>
</linearGradient>
<path fill="url(#SVGID_1_)" d="M6.524,10.447c-0.551,0.953-0.179,1.74,0.583,2.178c0.764,0.443,1.631,0.371,2.18-0.582
	c0.553-0.953,4.029-9.469,3.727-9.646C12.711,2.224,7.076,9.492,6.524,10.447z M8.019,4.382c0.348,0,0.69,0.03,1.021,0.086
	c0.351-0.437,0.741-0.92,1.124-1.378C9.482,2.894,8.765,2.787,8.019,2.787c-4.476,0-7.98,3.774-7.98,8.59
	c0,0.295,0.014,0.592,0.038,0.883c0.04,0.438,0.432,0.762,0.867,0.723c0.438-0.039,0.764-0.428,0.724-0.865
	c-0.022-0.242-0.033-0.49-0.033-0.74C1.634,7.454,4.439,4.382,8.019,4.382z M13.779,5.379c-0.225,0.599-0.457,1.208-0.666,1.735
	c0.812,1.173,1.291,2.642,1.291,4.261c0,0.252-0.012,0.508-0.033,0.756c-0.039,0.438,0.283,0.824,0.725,0.865
	C15.119,13,15.143,13,15.17,13c0.404,0,0.754-0.312,0.791-0.729C15.986,11.979,16,11.674,16,11.375
	C15.998,9.021,15.16,6.917,13.779,5.379z"/>
</svg>
