<?xml version="1.0" encoding="utf-8"?>
<!-- Generator: Adobe Illustrator 16.0.0, SVG Export Plug-In . SVG Version: 6.00 Build 0)  -->
<!DOCTYPE svg PUBLIC "-//W3C//DTD SVG 1.1//EN" "http://www.w3.org/Graphics/SVG/1.1/DTD/svg11.dtd">
<svg version="1.1" id="Layer_1" xmlns="http://www.w3.org/2000/svg" xmlns:xlink="http://www.w3.org/1999/xlink" x="0px" y="0px"
	 width="12px" height="12px" viewBox="0 0 12 12" enable-background="new 0 0 12 12" xml:space="preserve">
<g>
	
		<linearGradient id="SVGID_1_" gradientUnits="userSpaceOnUse" x1="187.9941" y1="1061" x2="187.9941" y2="1071" gradientTransform="matrix(1 0 0 1 -182 -1060)">
		<stop  offset="0" style="stop-color:#000000;stop-opacity:0.7"/>
		<stop  offset="1" style="stop-color:#000000;stop-opacity:0.6"/>
	</linearGradient>
	<path fill="url(#SVGID_1_)" d="M8,5L8,5V2.899C8,1.238,7.518,1,5.991,1C4.464,1,4,1.239,4,2.899V5l0,0C3,5,3,5,3,6v4c0,1,0,1,1,1h4
		c1,0,1,0,0.984-1V6C8.984,5,9,5,8,5z M5,2h0.992H7v3H5V2z M5.992,2"/>
</g>
</svg>
