<?xml version="1.0" encoding="utf-8"?>
<!-- Generator: Adobe Illustrator 16.0.0, SVG Export Plug-In . SVG Version: 6.00 Build 0)  -->
<!DOCTYPE svg PUBLIC "-//W3C//DTD SVG 1.1//EN" "http://www.w3.org/Graphics/SVG/1.1/DTD/svg11.dtd">
<svg version="1.1" id="Layer_1" xmlns="http://www.w3.org/2000/svg" xmlns:xlink="http://www.w3.org/1999/xlink" x="0px" y="0px"
	 width="12px" height="12px" viewBox="0 0 12 12" enable-background="new 0 0 12 12" xml:space="preserve">
<g>
	
		<linearGradient id="SVGID_1_" gradientUnits="userSpaceOnUse" x1="95.9941" y1="-143.0029" x2="95.9941" y2="-153.0005" gradientTransform="matrix(1 0 0 -1 -90 -142)">
		<stop  offset="0" style="stop-color:#010101;stop-opacity:0.7"/>
		<stop  offset="1" style="stop-color:#010101;stop-opacity:0.6"/>
	</linearGradient>
	<path fill="url(#SVGID_1_)" d="M9.988,5.002h-8c-0.552,0-0.999,0.448-0.999,1C0.989,6.553,1.436,7,1.988,7h8
		c0.552,0,0.998-0.447,0.998-0.998C10.986,5.45,10.54,5.002,9.988,5.002z M2,3h8c0.552,0,1-0.447,1-0.998
		c0-0.553-0.447-0.999-0.999-0.999h-8c-0.552,0-0.999,0.446-0.999,0.999C1.002,2.553,1.447,3,2,3z M10.001,9.002h-8
		c-0.552,0-0.999,0.448-0.999,1C1.002,10.555,1.448,11,2.001,11h8C10.553,11,11,10.555,11,10.002C11,9.45,10.553,9.002,10.001,9.002
		z"/>
</g>
</svg>
