<?xml version="1.0" encoding="utf-8"?>
<!-- Generator: Adobe Illustrator 16.0.0, SVG Export Plug-In . SVG Version: 6.00 Build 0)  -->
<!DOCTYPE svg PUBLIC "-//W3C//DTD SVG 1.1//EN" "http://www.w3.org/Graphics/SVG/1.1/DTD/svg11.dtd">
<svg version="1.1" id="Layer_1" xmlns="http://www.w3.org/2000/svg" xmlns:xlink="http://www.w3.org/1999/xlink" x="0px" y="0px"
	 width="16px" height="16px" viewBox="0 0 16 16" enable-background="new 0 0 16 16" xml:space="preserve">
<g>
	<linearGradient id="SVGID_1_" gradientUnits="userSpaceOnUse" x1="7.9995" y1="3.0029" x2="7.9995" y2="13.0005">
		<stop  offset="0" style="stop-color:#000000;stop-opacity:0.7"/>
		<stop  offset="1" style="stop-color:#000000;stop-opacity:0.6"/>
	</linearGradient>
	<path fill="url(#SVGID_1_)" d="M13.988,7.002H1.999C1.447,7.002,1,7.45,1,8.002C1,8.553,1.447,9,1.999,9h11.989
		c0.552,0,0.999-0.447,0.999-0.998C14.987,7.45,14.54,7.002,13.988,7.002z M2.011,5H14c0.552,0,1-0.447,1-0.998
		c0-0.553-0.447-0.999-0.999-0.999H2.012c-0.552,0-0.999,0.446-0.999,0.999C1.013,4.553,1.458,5,2.011,5z M14.001,11.002H2.012
		c-0.552,0-0.999,0.448-0.999,1S1.459,13,2.012,13h11.989C14.553,13,15,12.554,15,12.002S14.553,11.002,14.001,11.002z"/>
</g>
</svg>
