<?xml version="1.0" encoding="utf-8"?>
<!-- Generator: Adobe Illustrator 16.0.0, SVG Export Plug-In . SVG Version: 6.00 Build 0)  -->
<!DOCTYPE svg PUBLIC "-//W3C//DTD SVG 1.1//EN" "http://www.w3.org/Graphics/SVG/1.1/DTD/svg11.dtd">
<svg version="1.1" id="Layer_1" xmlns="http://www.w3.org/2000/svg" xmlns:xlink="http://www.w3.org/1999/xlink" x="0px" y="0px"
	 width="16px" height="16px" viewBox="0 0 16 16" enable-background="new 0 0 16 16" xml:space="preserve">
<g>
	<linearGradient id="SVGID_1_" gradientUnits="userSpaceOnUse" x1="8.0015" y1="3.4736" x2="8.0015" y2="13.7642">
		<stop  offset="0" style="stop-color:#000000;stop-opacity:0.7"/>
		<stop  offset="1" style="stop-color:#000000;stop-opacity:0.6"/>
	</linearGradient>
	<path fill="url(#SVGID_1_)" d="M0.545,4.436c0.432,0.233,6.429,3.455,6.653,3.575C7.421,8.13,7.71,8.188,8.002,8.188
		c0.291,0,0.58-0.058,0.803-0.178c0.224-0.12,6.219-3.341,6.653-3.575c0.434-0.232,0.843-0.962,0.047-0.962H0.497
		C-0.298,3.474,0.112,4.204,0.545,4.436z M15.643,6.21c-0.493,0.257-6.535,3.417-6.837,3.576C8.503,9.942,8.293,9.962,8.002,9.962
		c-0.292,0-0.502-0.02-0.804-0.176C6.896,9.627,0.854,6.467,0.362,6.21C0.015,6.03,0.018,6.242,0.018,6.405c0,0.164,0,6.508,0,6.508
		c0,0.372,0.496,0.851,0.88,0.851h14.208c0.384,0,0.879-0.479,0.879-0.851c0,0,0-6.344,0-6.508
		C15.985,6.242,15.988,6.03,15.643,6.21z"/>
</g>
</svg>
