<?xml version="1.0" encoding="utf-8"?>
<!-- Generator: Adobe Illustrator 16.0.0, SVG Export Plug-In . SVG Version: 6.00 Build 0)  -->
<!DOCTYPE svg PUBLIC "-//W3C//DTD SVG 1.1//EN" "http://www.w3.org/Graphics/SVG/1.1/DTD/svg11.dtd">
<svg version="1.1" id="Layer_1" xmlns="http://www.w3.org/2000/svg" xmlns:xlink="http://www.w3.org/1999/xlink" x="0px" y="0px"
	 width="16px" height="16px" viewBox="0 0 16 16" enable-background="new 0 0 16 16" xml:space="preserve">
<linearGradient id="SVGID_1_" gradientUnits="userSpaceOnUse" x1="306.0068" y1="-371" x2="306.0068" y2="-384.6528" gradientTransform="matrix(1 0 0 -1 -298 -370)">
	<stop  offset="0" style="stop-color:#000000;stop-opacity:0.7"/>
	<stop  offset="1" style="stop-color:#000000;stop-opacity:0.6"/>
</linearGradient>
<path fill="url(#SVGID_1_)" d="M7,7.567V2c0-0.583,0.425-1,1.008-1C8.592,1,9,1.417,9,2v5.624C9,8.207,8.592,8.68,8.008,8.68
	C7.425,8.681,7,8.15,7,7.567z M10.134,3.104v2.462c0.992,0.68,1.646,1.822,1.646,3.114c0,2.08-1.691,3.772-3.771,3.772
	c-2.079,0-3.77-1.692-3.77-3.772c0-1.292,0.653-2.435,1.646-3.114V3.104C3.636,3.96,2.037,6.132,2.037,8.681
	c0,3.297,2.672,5.972,5.971,5.972c3.3,0,5.971-2.674,5.971-5.972C13.979,6.132,12.381,3.962,10.134,3.104z"/>
</svg>
