<?xml version="1.0" encoding="utf-8"?>
<!-- Generator: Adobe Illustrator 16.0.0, SVG Export Plug-In . SVG Version: 6.00 Build 0)  -->
<!DOCTYPE svg PUBLIC "-//W3C//DTD SVG 1.1//EN" "http://www.w3.org/Graphics/SVG/1.1/DTD/svg11.dtd">
<svg version="1.1" id="Layer_1" xmlns="http://www.w3.org/2000/svg" xmlns:xlink="http://www.w3.org/1999/xlink" x="0px" y="0px"
	 width="12px" height="12px" viewBox="0 0 12 12" enable-background="new 0 0 12 12" xml:space="preserve">
<linearGradient id="SVGID_1_" gradientUnits="userSpaceOnUse" x1="5.9995" y1="0" x2="5.9995" y2="12.0005">
	<stop  offset="0" style="stop-color:#010101;stop-opacity:0.7"/>
	<stop  offset="1" style="stop-color:#010101;stop-opacity:0.6"/>
</linearGradient>
<path fill="url(#SVGID_1_)" d="M10.266,0H1.42C0.604,0,0,0.809,0,1.625v9.178C0,11.617,0.632,12,1.449,12h9.102
	C11.367,12,12,11.393,12,10.578v-8.73L10.266,0z M9.036,6.188c0,0.407-0.106,0.85-1.099,0.85L3.875,7.033
	c-0.663,0-0.924-0.416-0.924-0.85V0.9l6.085,0.004V6.188z M7.979,2.042H5.021V4h2.958V2.042z"/>
</svg>
