<?xml version="1.0" encoding="utf-8"?>
<!-- Generator: Adobe Illustrator 16.0.0, SVG Export Plug-In . SVG Version: 6.00 Build 0)  -->
<!DOCTYPE svg PUBLIC "-//W3C//DTD SVG 1.1//EN" "http://www.w3.org/Graphics/SVG/1.1/DTD/svg11.dtd">
<svg version="1.1" id="Layer_1" xmlns="http://www.w3.org/2000/svg" xmlns:xlink="http://www.w3.org/1999/xlink" x="0px" y="0px"
	 width="16px" height="16px" viewBox="0 0 16 16" enable-background="new 0 0 16 16" xml:space="preserve">
<g>
	
		<linearGradient id="SVGID_1_" gradientUnits="userSpaceOnUse" x1="305.9414" y1="-371.2871" x2="305.9414" y2="-384.0005" gradientTransform="matrix(1 0 0 -1 -298 -370)">
		<stop  offset="0" style="stop-color:#000000;stop-opacity:0.7"/>
		<stop  offset="1" style="stop-color:#000000;stop-opacity:0.6"/>
	</linearGradient>
	<path fill="url(#SVGID_1_)" d="M12.04,6.231h-1.271V4.536c0-2.046-0.941-3.249-2.825-3.249c-1.882,0-2.825,1.203-2.825,3.249v0.283
		h1.414V4.254c0-1.02,0.563-1.555,1.413-1.555c0.848,0,1.412,0.533,1.412,1.555v1.977H3.707C3.316,6.231,3,6.689,3,7.08v5.508
		c0,0.391,0.303,0.805,0.672,0.924l0.844,0.273C4.885,13.904,5.507,14,5.894,14h4.098c0.386,0,1.008-0.096,1.377-0.215l0.845-0.273
		c0.37-0.119,0.672-0.533,0.672-0.924V7.079C12.887,6.688,12.433,6.231,12.04,6.231z"/>
</g>
</svg>
