<?xml version="1.0" encoding="utf-8"?>
<!-- Generator: Adobe Illustrator 16.0.0, SVG Export Plug-In . SVG Version: 6.00 Build 0)  -->
<!DOCTYPE svg PUBLIC "-//W3C//DTD SVG 1.1//EN" "http://www.w3.org/Graphics/SVG/1.1/DTD/svg11.dtd">
<svg version="1.1" id="Layer_1" xmlns="http://www.w3.org/2000/svg" xmlns:xlink="http://www.w3.org/1999/xlink" x="0px" y="0px"
	 width="16px" height="16px" viewBox="0 0 16 16" enable-background="new 0 0 16 16" xml:space="preserve">
<g>
	
		<linearGradient id="SVGID_1_" gradientUnits="userSpaceOnUse" x1="306" y1="-370.8711" x2="306" y2="-385.0005" gradientTransform="matrix(1 0 0 -1 -298 -370)">
		<stop  offset="0" style="stop-color:#000000;stop-opacity:0.7"/>
		<stop  offset="1" style="stop-color:#000000;stop-opacity:0.6"/>
	</linearGradient>
	<path fill="url(#SVGID_1_)" d="M15.903,14.15L8.502,1.162C8.401,0.981,8.209,0.871,8,0.871c-0.21,0-0.401,0.11-0.502,0.291
		L0.097,14.15c-0.101,0.178-0.098,0.393,0.005,0.568C0.205,14.891,0.395,15,0.6,15h14.804c0.203,0,0.396-0.107,0.497-0.281
		C16.002,14.543,16.004,14.328,15.903,14.15z M9,14H7l0-1.818h2V14z M9,10.455H7V5h2V10.455z"/>
</g>
</svg>
